SplineFontDB: 3.2
FontName: CSLSans-ExtraBoldItalic
FullName: CSL Sans ExtraBold Italic
FamilyName: CSL Sans ExtraBold
Weight: Heavy
Copyright: Copyright (c) 2019 IBM Corp. with Reserved Font Name "Plex"  Copyright (c) 2019 The HMI Sans Project Authors (https://github.com/somegoodpixels/hmi-sans) Copyright (c) 2021 The CSL Sans Project Authors (https://github.com/cssobral2013/CSL-Sans) This Font Software is licensed under the SIL Open Font License, Version 1.1. This license is copied below, and is also available with a FAQ at: http://scripts.sil.org/OFL.
Version: 2.001;January 31, 2022;FontCreator 14.0.0.2808 64-bit
ItalicAngle: -11.3
UnderlinePosition: -225
UnderlineWidth: 100
Ascent: 800
Descent: 200
InvalidEm: 0
sfntRevision: 0x00020042
LayerCount: 2
Layer: 0 1 "Back" 1
Layer: 1 1 "Fore" 0
XUID: [1021 651 537639564 5505]
StyleMap: 0x0001
FSType: 0
OS2Version: 3
OS2_WeightWidthSlopeOnly: 0
OS2_UseTypoMetrics: 0
CreationTime: 1550580418
ModificationTime: 1643631595
PfmFamily: 81
TTFWeight: 800
TTFWidth: 5
LineGap: 0
VLineGap: 0
Panose: 0 0 8 0 0 0 0 0 0 0
OS2TypoAscent: 1000
OS2TypoAOffset: 0
OS2TypoDescent: -220
OS2TypoDOffset: 0
OS2TypoLinegap: 0
OS2WinAscent: 1000
OS2WinAOffset: 0
OS2WinDescent: 220
OS2WinDOffset: 0
HheadAscent: 1000
HheadAOffset: 0
HheadDescent: -220
HheadDOffset: 0
OS2SubXSize: 650
OS2SubYSize: 600
OS2SubXOff: -15
OS2SubYOff: 75
OS2SupXSize: 650
OS2SupYSize: 600
OS2SupXOff: 70
OS2SupYOff: 350
OS2StrikeYSize: 100
OS2StrikeYPos: 315
OS2CapHeight: 698
OS2XHeight: 525
OS2Vendor: 'UKWN'
OS2CodePages: 2000019f.00000000
OS2UnicodeRanges: 20000287.10000013.00000000.00000000
Lookup: 258 0 0 "'kern' Kerning Horizontal lookup 0" { "'kern' Kerning Horizontal lookup 0 per glyph data 0"  "'kern' Kerning Horizontal lookup 0 kerning class 1"  "'kern' Kerning Horizontal lookup 0 kerning class 2"  "'kern' Kerning Horizontal lookup 0 kerning class 3"  } ['kern' ('DFLT' <'dflt' > 'cyrl' <'dflt' > 'grek' <'dflt' > 'latn' <'dflt' > ) ]
DEI: 91125

StartChar: .notdef
Encoding: 65536 -1 0
Width: 472
Flags: W
LayerCount: 2
Fore
SplineSet
440 0 m 1,0,-1
 440 780 l 1,1,-1
 32 780 l 1,2,-1
 32 0 l 1,3,-1
 440 0 l 1,0,-1
340 100 m 1,4,-1
 132 100 l 1,5,-1
 132 680 l 1,6,-1
 340 680 l 1,7,-1
 340 100 l 1,4,-1
EndSplineSet
EndChar

StartChar: exclam
Encoding: 33 33 2
Width: 314
GlyphClass: 1
Flags: W
LayerCount: 2
Fore
SplineSet
181 220 m 1,0,-1
 282 504 l 1,1,-1
 320 698 l 1,2,-1
 168 698 l 1,3,-1
 130 504 l 1,4,-1
 119 220 l 1,5,-1
 181 220 l 1,0,-1
104 -12 m 0,6,7
 191 -12 191 -12 205 64 c 2,8,-1
 211 94 l 1,9,-1
 211 106 l 2,10,11
 211 164 211 164 134 164 c 0,12,13
 47 164 47 164 33 88 c 2,14,-1
 32 82 l 2,15,16
 27 61 27 61 27 46 c 0,17,18
 27 -12 27 -12 104 -12 c 0,6,7
EndSplineSet
EndChar

StartChar: quotedbl
Encoding: 34 34 3
Width: 488
GlyphClass: 7
Flags: W
LayerCount: 2
Fore
SplineSet
228 414 m 1,0,-1
 293 740 l 1,1,-1
 161 740 l 1,2,-1
 96 414 l 1,3,-1
 228 414 l 1,0,-1
453 414 m 1,4,-1
 518 740 l 1,5,-1
 386 740 l 1,6,-1
 321 414 l 1,7,-1
 453 414 l 1,4,-1
EndSplineSet
EndChar

StartChar: numbersign
Encoding: 35 35 4
Width: 640
GlyphClass: 5
Flags: W
LayerCount: 2
Fore
SplineSet
373 0 m 1,0,-1
 438 174 l 1,1,-1
 561 174 l 1,2,-1
 579 262 l 1,3,-1
 470 262 l 1,4,-1
 535 436 l 1,5,-1
 658 436 l 1,6,-1
 676 524 l 1,7,-1
 568 524 l 1,8,-1
 633 698 l 1,9,-1
 543 698 l 1,10,-1
 478 524 l 1,11,-1
 321 524 l 1,12,-1
 386 698 l 1,13,-1
 296 698 l 1,14,-1
 231 524 l 1,15,-1
 108 524 l 1,16,-1
 90 436 l 1,17,-1
 199 436 l 1,18,-1
 134 262 l 1,19,-1
 11 262 l 1,20,-1
 -7 174 l 1,21,-1
 101 174 l 1,22,-1
 36 0 l 1,23,-1
 126 0 l 1,24,-1
 191 174 l 1,25,-1
 348 174 l 1,26,-1
 283 0 l 1,27,-1
 373 0 l 1,0,-1
380 262 m 1,28,-1
 224 262 l 1,29,-1
 289 436 l 1,30,-1
 445 436 l 1,31,-1
 380 262 l 1,28,-1
EndSplineSet
EndChar

StartChar: dollar
Encoding: 36 36 5
Width: 561
Flags: W
LayerCount: 2
Fore
SplineSet
287 442 m 1,0,-1
 312 566 l 1,1,2
 243 558 243 558 243 501 c 0,3,4
 243 464 243 464 287 442 c 1,0,-1
315 132 m 1,5,6
 390 143 390 143 390 212 c 0,7,8
 390 249 390 249 361 265 c 0,9,10
 353 268 353 268 343 273 c 1,11,-1
 315 132 l 1,5,6
188 9 m 1,12,13
 86 31 86 31 19 109 c 1,14,-1
 115 207 l 1,15,16
 164 153 164 153 227 137 c 1,17,-1
 260 303 l 1,18,19
 94 360 94 360 94 491 c 0,20,21
 94 550 94 550 122.5 596.5 c 128,-1,22
 151 643 151 643 208 671 c 0,23,24
 257 694 257 694 325 697 c 1,25,-1
 342 780 l 1,26,-1
 456 780 l 1,27,-1
 438 689 l 1,28,29
 527 668 527 668 582 603 c 1,30,-1
 485 505 l 1,31,32
 451 546 451 546 400 560 c 1,33,-1
 370 410 l 1,34,35
 406 396 406 396 433 384 c 0,36,37
 480 361 480 361 505 325 c 0,38,39
 539 276 539 276 539 223 c 0,40,41
 539 161 539 161 510 110 c 128,-1,42
 481 59 481 59 422 30 c 0,43,44
 372 4 372 4 300 1 c 1,45,-1
 284 -82 l 1,46,-1
 170 -82 l 1,47,-1
 188 9 l 1,12,13
EndSplineSet
EndChar

StartChar: percent
Encoding: 37 37 6
Width: 939
Flags: W
LayerCount: 2
Fore
SplineSet
268 0 m 1,0,-1
 832 698 l 1,1,-1
 708 698 l 1,2,-1
 144 0 l 1,3,-1
 268 0 l 1,0,-1
247 314 m 0,4,5
 325 314 325 314 387.5 377.5 c 128,-1,6
 450 441 450 441 450 549 c 0,7,8
 450 630 450 630 408 670 c 128,-1,9
 366 710 366 710 295 710 c 0,10,11
 217 710 217 710 155 647 c 0,12,13
 92 580 92 580 92 475 c 0,14,15
 92 394 92 394 134 354 c 128,-1,16
 176 314 176 314 247 314 c 0,4,5
253 398 m 0,17,18
 213 398 213 398 211 448 c 0,19,20
 211 463 211 463 216 488 c 128,-1,21
 221 513 221 513 226 538 c 0,22,23
 235 583 235 583 249 604.5 c 128,-1,24
 263 626 263 626 289 626 c 0,25,26
 330 626 330 626 331 576 c 0,27,28
 331 561 331 561 326 536 c 128,-1,29
 321 511 321 511 316 486 c 0,30,31
 307 441 307 441 293 419.5 c 128,-1,32
 279 398 279 398 253 398 c 0,17,18
681 -12 m 0,33,34
 759 -12 759 -12 821.5 51.5 c 128,-1,35
 884 115 884 115 884 223 c 0,36,37
 884 304 884 304 842 344 c 128,-1,38
 800 384 800 384 729 384 c 0,39,40
 651 384 651 384 589 321 c 0,41,42
 526 254 526 254 526 149 c 0,43,44
 526 68 526 68 568 28 c 128,-1,45
 610 -12 610 -12 681 -12 c 0,33,34
687 72 m 0,46,47
 647 72 647 72 645 122 c 0,48,49
 645 137 645 137 650 162 c 128,-1,50
 655 187 655 187 660 212 c 0,51,52
 669 257 669 257 683 278.5 c 128,-1,53
 697 300 697 300 723 300 c 0,54,55
 764 300 764 300 765 250 c 0,56,57
 765 235 765 235 760 210 c 128,-1,58
 755 185 755 185 750 160 c 0,59,60
 741 115 741 115 727 93.5 c 128,-1,61
 713 72 713 72 687 72 c 0,46,47
EndSplineSet
EndChar

StartChar: ampersand
Encoding: 38 38 7
Width: 704
GlyphClass: 3
Flags: W
LayerCount: 2
Fore
SplineSet
236 -12 m 0,0,1
 354 -12 354 -12 435 57 c 1,2,-1
 476 0 l 1,3,-1
 643 0 l 1,4,-1
 537 150 l 1,5,6
 572 203 572 203 588 265 c 1,7,-1
 667 265 l 1,8,-1
 691 385 l 1,9,-1
 518 385 l 1,10,11
 503 307 503 307 470 244 c 1,12,-1
 387 361 l 1,13,14
 460 396 460 396 511 443 c 0,15,16
 564 495 564 495 564 561 c 0,17,18
 564 633 564 633 513.5 671.5 c 128,-1,19
 463 710 463 710 383 710 c 0,20,21
 283 710 283 710 218.5 657.5 c 128,-1,22
 154 605 154 605 154 516 c 0,23,24
 154 454 154 454 206 380 c 1,25,26
 128 342 128 342 80 292 c 0,27,28
 31 238 31 238 31 158 c 0,29,30
 31 85 31 85 84.5 36.5 c 128,-1,31
 138 -12 138 -12 236 -12 c 0,0,1
330 441 m 1,32,33
 294 486 294 486 294 522 c 0,34,35
 294 543 294 543 297 551 c 0,36,37
 314 602 314 602 363 602 c 0,38,39
 390 602 390 602 406.5 587.5 c 128,-1,40
 423 573 423 573 423 548 c 0,41,42
 423 512 423 512 400 488.5 c 128,-1,43
 377 465 377 465 330 441 c 1,32,33
272 107 m 0,44,45
 176 107 176 107 176 182 c 0,46,47
 176 197 176 197 179 209 c 0,48,49
 195 271 195 271 262 301 c 1,50,-1
 378 138 l 1,51,52
 331 107 331 107 272 107 c 0,44,45
EndSplineSet
EndChar

StartChar: quotesingle
Encoding: 39 39 8
Width: 263
Flags: W
LayerCount: 2
Fore
SplineSet
228 414 m 1,0,-1
 293 740 l 1,1,-1
 161 740 l 1,2,-1
 96 414 l 1,3,-1
 228 414 l 1,0,-1
EndSplineSet
EndChar

StartChar: parenleft
Encoding: 40 40 9
Width: 353
Flags: W
LayerCount: 2
Fore
SplineSet
328 -137 m 1,0,1
 188 14 188 14 188 222 c 0,2,3
 188 240 188 240 192 267 c 2,4,-1
 212 367 l 2,5,6
 238 484 238 484 318 583.5 c 128,-1,7
 398 683 398 683 506 760 c 1,8,-1
 355 760 l 1,9,10
 236 680 236 680 151 539 c 0,11,12
 62 389 62 389 62 222 c 0,13,14
 62 120 62 120 102 18 c 0,15,16
 140 -76 140 -76 195 -137 c 1,17,-1
 328 -137 l 1,0,1
EndSplineSet
EndChar

StartChar: parenright
Encoding: 41 41 10
Width: 353
GlyphClass: 3
Flags: W
LayerCount: 2
Fore
SplineSet
23 -137 m 1,0,1
 143 -56 143 -56 228 84 c 0,2,3
 316 233 316 233 316 401 c 0,4,5
 316 511 316 511 277.5 605.5 c 128,-1,6
 239 700 239 700 183 760 c 1,7,-1
 50 760 l 1,8,9
 190 609 190 609 190 401 c 0,10,11
 190 383 190 383 186 356 c 2,12,-1
 166 256 l 1,13,14
 118 41 118 41 -128 -137 c 1,15,-1
 23 -137 l 1,0,1
EndSplineSet
EndChar

StartChar: asterisk
Encoding: 42 42 11
Width: 595
Flags: W
LayerCount: 2
Fore
SplineSet
402 239 m 1,0,-1
 510 305 l 1,1,-1
 422 456 l 1,2,-1
 607 516 l 1,3,-1
 575 628 l 1,4,-1
 410 562 l 1,5,-1
 453 747 l 1,6,-1
 323 747 l 1,7,-1
 294 560 l 1,8,-1
 136 631 l 1,9,-1
 85 516 l 1,10,-1
 242 462 l 1,11,-1
 95 320 l 1,12,-1
 187 239 l 1,13,-1
 326 399 l 1,14,-1
 402 239 l 1,0,-1
EndSplineSet
EndChar

StartChar: plus
Encoding: 43 43 12
Width: 600
Flags: W
LayerCount: 2
Fore
SplineSet
322 63 m 1,0,-1
 358 248 l 1,1,-1
 527 248 l 1,2,-1
 550 364 l 1,3,-1
 381 364 l 1,4,-1
 418 549 l 1,5,-1
 292 549 l 1,6,-1
 256 364 l 1,7,-1
 87 364 l 1,8,-1
 64 248 l 1,9,-1
 233 248 l 1,10,-1
 196 63 l 1,11,-1
 322 63 l 1,0,-1
EndSplineSet
EndChar

StartChar: comma
Encoding: 44 44 13
Width: 307
GlyphClass: 3
Flags: W
LayerCount: 2
Fore
SplineSet
63 -147 m 1,0,1
 120 -106 120 -106 156 -50.5 c 128,-1,2
 192 5 192 5 204 59 c 0,3,4
 210 89 210 89 210 103 c 0,5,6
 210 129 210 129 193 149 c 128,-1,7
 176 169 176 169 133 169 c 0,8,9
 92 169 92 169 68.5 149 c 128,-1,10
 45 129 45 129 38 95 c 2,11,-1
 36 86 l 2,12,13
 31 60 31 60 31 49 c 0,14,15
 31 31 31 31 43 15 c 128,-1,16
 55 -1 55 -1 82 -8 c 1,17,18
 41 -84 41 -84 -43 -147 c 1,19,-1
 63 -147 l 1,0,1
EndSplineSet
EndChar

StartChar: hyphen
Encoding: 45 45 14
Width: 395
Flags: W
LayerCount: 2
Fore
SplineSet
340 238 m 1,0,-1
 367 372 l 1,1,-1
 72 372 l 1,2,-1
 45 238 l 1,3,-1
 340 238 l 1,0,-1
EndSplineSet
EndChar

StartChar: period
Encoding: 46 46 15
Width: 307
Flags: W
LayerCount: 2
Fore
SplineSet
102 -11 m 256,0,1
 144 -11 144 -11 168.5 9.5 c 128,-1,2
 193 30 193 30 199 63 c 2,3,-1
 205 94 l 1,4,-1
 206 109 l 2,5,6
 206 131 206 131 189 150 c 128,-1,7
 172 169 172 169 130 169 c 256,8,9
 88 169 88 169 63.5 149 c 128,-1,10
 39 129 39 129 33 95 c 2,11,-1
 31 86 l 2,12,13
 26 60 26 60 26 49 c 0,14,15
 26 27 26 27 43 8 c 128,-1,16
 60 -11 60 -11 102 -11 c 256,0,1
EndSplineSet
EndChar

StartChar: slash
Encoding: 47 47 16
Width: 479
GlyphClass: 3
Flags: W
LayerCount: 2
Fore
SplineSet
55 -151 m 1,0,-1
 529 740 l 1,1,-1
 401 740 l 1,2,-1
 -73 -151 l 1,3,-1
 55 -151 l 1,0,-1
EndSplineSet
EndChar

StartChar: zero
Encoding: 48 48 17
Width: 600
GlyphClass: 5
Flags: W
LayerCount: 2
Fore
SplineSet
262 -12 m 0,0,1
 338 -12 338 -12 397.5 27 c 128,-1,2
 457 66 457 66 497 132 c 0,3,4
 579 276 579 276 579 454 c 0,5,6
 579 558 579 558 538 626 c 0,7,8
 486 710 486 710 364 710 c 0,9,10
 287 710 287 710 228 671 c 128,-1,11
 169 632 169 632 129 566 c 0,12,13
 47 423 47 423 47 244 c 0,14,15
 47 141 47 141 89 73 c 0,16,17
 140 -12 140 -12 262 -12 c 0,0,1
275 106 m 0,18,19
 227 106 227 106 207.5 135 c 128,-1,20
 188 164 188 164 188 215 c 0,21,22
 188 250 188 250 196 287 c 2,23,-1
 221 411 l 2,24,25
 236 492 236 492 264.5 542 c 128,-1,26
 293 592 293 592 351 592 c 0,27,28
 399 592 399 592 418.5 563 c 128,-1,29
 438 534 438 534 438 483 c 0,30,31
 438 449 438 449 430 411 c 2,32,-1
 405 287 l 2,33,34
 390 206 390 206 362 156 c 128,-1,35
 334 106 334 106 275 106 c 0,18,19
EndSplineSet
EndChar

StartChar: one
Encoding: 49 49 18
Width: 600
Flags: W
LayerCount: 2
Fore
SplineSet
359 0 m 1,0,-1
 217 0 l 1,1,-1
 330 560 l 1,2,-1
 162 472 l 1,3,-1
 191 616 l 1,4,-1
 346 698 l 1,5,-1
 499 698 l 1,6,-1
 359 0 l 1,0,-1
EndSplineSet
EndChar

StartChar: two
Encoding: 50 50 19
Width: 600
Flags: W
LayerCount: 2
Fore
SplineSet
488 0 m 1,0,-1
 512 121 l 1,1,-1
 205 121 l 1,2,-1
 357 230 l 2,3,4
 459 300 459 300 515.5 367 c 128,-1,5
 572 434 572 434 572 517 c 0,6,7
 572 603 572 603 512.5 656.5 c 128,-1,8
 453 710 453 710 349 710 c 0,9,10
 174 710 174 710 95 534 c 1,11,-1
 217 485 l 1,12,13
 233 526 233 526 262.5 555.5 c 128,-1,14
 292 585 292 585 337 585 c 0,15,16
 374 585 374 585 397 563 c 128,-1,17
 420 541 420 541 420 505 c 0,18,19
 420 454 420 454 381 404 c 0,20,21
 352 366 352 366 289 319 c 2,22,-1
 39 134 l 1,23,-1
 12 0 l 1,24,-1
 488 0 l 1,0,-1
EndSplineSet
EndChar

StartChar: three
Encoding: 51 51 20
Width: 600
Flags: W
LayerCount: 2
Fore
SplineSet
244 -12 m 0,0,1
 376 -12 376 -12 448.5 53.5 c 128,-1,2
 521 119 521 119 521 216 c 0,3,4
 521 336 521 336 410 362 c 1,5,-1
 411 367 l 1,6,7
 487 385 487 385 530 430.5 c 128,-1,8
 573 476 573 476 573 546 c 0,9,10
 573 620 573 620 515 665 c 128,-1,11
 457 710 457 710 359 710 c 0,12,13
 271 710 271 710 214.5 679.5 c 128,-1,14
 158 649 158 649 113 599 c 1,15,-1
 193 509 l 1,16,17
 225 554 225 554 259.5 572.5 c 128,-1,18
 294 591 294 591 334 591 c 256,19,20
 374 591 374 591 397 572 c 128,-1,21
 420 553 420 553 420 520 c 0,22,23
 420 468 420 468 380 441 c 0,24,25
 351 421 351 421 296 421 c 2,26,-1
 231 421 l 1,27,-1
 207 300 l 1,28,-1
 279 300 l 2,29,30
 369 300 369 300 373 221 c 0,31,32
 373 203 373 203 371 195 c 0,33,34
 354 106 354 106 253 106 c 0,35,36
 197 106 197 106 166.5 131 c 128,-1,37
 136 156 136 156 122 196 c 1,38,-1
 17 121 l 1,39,40
 38 67 38 67 91 29 c 0,41,42
 149 -12 149 -12 244 -12 c 0,0,1
EndSplineSet
EndChar

StartChar: four
Encoding: 52 52 21
Width: 600
GlyphClass: 2
Flags: W
LayerCount: 2
Fore
SplineSet
424 0 m 1,0,-1
 451 134 l 1,1,-1
 536 134 l 1,2,-1
 559 246 l 1,3,-1
 473 246 l 1,4,-1
 564 698 l 1,5,-1
 392 698 l 1,6,-1
 36 261 l 1,7,-1
 11 134 l 1,8,-1
 316 134 l 1,9,-1
 289 0 l 1,10,-1
 424 0 l 1,0,-1
338 246 m 1,11,-1
 154 246 l 1,12,-1
 385 534 l 1,13,-1
 396 534 l 1,14,-1
 338 246 l 1,11,-1
EndSplineSet
EndChar

StartChar: five
Encoding: 53 53 22
Width: 600
Flags: W
LayerCount: 2
Fore
SplineSet
255 -12 m 0,0,1
 325 -12 325 -12 379 11.5 c 128,-1,2
 433 35 433 35 470 74 c 0,3,4
 545 159 545 159 545 262 c 0,5,6
 545 356 545 356 497.5 405.5 c 128,-1,7
 450 455 450 455 371 455 c 0,8,9
 309 455 309 455 272.5 426.5 c 128,-1,10
 236 398 236 398 208 346 c 1,11,-1
 199 346 l 1,12,-1
 256 572 l 1,13,-1
 564 572 l 1,14,-1
 589 698 l 1,15,-1
 179 698 l 1,16,-1
 77 303 l 1,17,-1
 190 287 l 1,18,19
 234 337 234 337 300 337 c 0,20,21
 342 337 342 337 366 315 c 128,-1,22
 390 293 390 293 390 253 c 0,23,24
 390 231 390 231 385 212 c 0,25,26
 376 166 376 166 346 136.5 c 128,-1,27
 316 107 316 107 262 107 c 0,28,29
 211 107 211 107 180.5 132 c 128,-1,30
 150 157 150 157 138 197 c 1,31,-1
 22 123 l 1,32,33
 43 69 43 69 96 29 c 0,34,35
 154 -12 154 -12 255 -12 c 0,0,1
EndSplineSet
EndChar

StartChar: six
Encoding: 54 54 23
Width: 600
GlyphClass: 2
Flags: W
LayerCount: 2
Fore
SplineSet
264 -12 m 0,0,1
 331 -12 331 -12 384 10 c 128,-1,2
 437 32 437 32 474 69 c 0,3,4
 550 151 550 151 550 257 c 0,5,6
 550 343 550 343 506 396 c 128,-1,7
 462 449 462 449 384 449 c 0,8,9
 352 449 352 449 327 440 c 0,10,11
 267 419 267 419 223 344 c 1,12,-1
 215 347 l 1,13,14
 254 454 254 454 346 534.5 c 128,-1,15
 438 615 438 615 577 698 c 1,16,-1
 370 698 l 1,17,18
 243 625 243 625 147 503 c 0,19,20
 45 369 45 369 45 223 c 0,21,22
 45 115 45 115 102 51.5 c 128,-1,23
 159 -12 159 -12 264 -12 c 0,0,1
277 102 m 0,24,25
 232 102 232 102 210 125.5 c 128,-1,26
 188 149 188 149 188 190 c 0,27,28
 188 213 188 213 193 233 c 0,29,30
 213 337 213 337 312 337 c 0,31,32
 357 337 357 337 379 313.5 c 128,-1,33
 401 290 401 290 401 249 c 0,34,35
 401 227 401 227 396 206 c 0,36,37
 386 157 386 157 356.5 129.5 c 128,-1,38
 327 102 327 102 277 102 c 0,24,25
EndSplineSet
EndChar

StartChar: seven
Encoding: 55 55 24
Width: 600
Flags: W
LayerCount: 2
Fore
SplineSet
266 0 m 1,0,-1
 112 0 l 1,1,-1
 459 579 l 1,2,-1
 118 579 l 1,3,-1
 142 698 l 1,4,-1
 626 698 l 1,5,-1
 601 572 l 1,6,-1
 266 0 l 1,0,-1
EndSplineSet
EndChar

StartChar: eight
Encoding: 56 56 25
Width: 600
Flags: W
LayerCount: 2
Fore
SplineSet
257 -12 m 0,0,1
 385 -12 385 -12 464 58 c 0,2,3
 537 126 537 126 537 210 c 0,4,5
 537 329 537 329 436 360 c 1,6,-1
 437 368 l 1,7,8
 502 392 502 392 541.5 438.5 c 128,-1,9
 581 485 581 485 581 550 c 0,10,11
 581 621 581 621 530 665.5 c 128,-1,12
 479 710 479 710 375 710 c 0,13,14
 309 710 309 710 260 693 c 128,-1,15
 211 676 211 676 179 646 c 128,-1,16
 147 616 147 616 131 579.5 c 128,-1,17
 115 543 115 543 115 505 c 0,18,19
 115 403 115 403 199 368 c 1,20,-1
 198 361 l 1,21,22
 120 343 120 343 75.5 291.5 c 128,-1,23
 31 240 31 240 31 165 c 0,24,25
 31 87 31 87 86.5 37.5 c 128,-1,26
 142 -12 142 -12 257 -12 c 0,0,1
267 100 m 0,27,28
 179 100 179 100 178 177 c 0,29,30
 178 187 178 187 179 194 c 0,31,32
 191 303 191 303 299 303 c 0,33,34
 388 303 388 303 388 226 c 0,35,36
 388 216 388 216 387 209 c 0,37,38
 375 100 375 100 267 100 c 0,27,28
328 411 m 0,39,40
 285 411 285 411 264 429.5 c 128,-1,41
 243 448 243 448 243 478 c 0,42,43
 243 488 243 488 247 507 c 2,44,-1
 249 517 l 2,45,46
 256 552 256 552 282.5 575 c 128,-1,47
 309 598 309 598 357 598 c 0,48,49
 400 598 400 598 421 579.5 c 128,-1,50
 442 561 442 561 442 531 c 2,51,-1
 441 519 l 1,52,-1
 436 492 l 2,53,54
 429 457 429 457 402.5 434 c 128,-1,55
 376 411 376 411 328 411 c 0,39,40
EndSplineSet
EndChar

StartChar: nine
Encoding: 57 57 26
Width: 600
GlyphClass: 1
Flags: W
LayerCount: 2
Fore
SplineSet
259 0 m 1,0,1
 386 73 386 73 483 196 c 0,2,3
 584 329 584 329 584 475 c 0,4,5
 584 583 584 583 527 646.5 c 128,-1,6
 470 710 470 710 365 710 c 0,7,8
 298 710 298 710 245 688 c 128,-1,9
 192 666 192 666 155 629 c 0,10,11
 79 548 79 548 79 441 c 0,12,13
 79 356 79 356 123 302.5 c 128,-1,14
 167 249 167 249 245 249 c 0,15,16
 305 249 305 249 345 282 c 0,17,18
 382 312 382 312 406 354 c 1,19,-1
 414 351 l 1,20,21
 373 244 373 244 282 163.5 c 128,-1,22
 191 83 191 83 52 0 c 1,23,-1
 259 0 l 1,0,1
317 361 m 0,24,25
 272 361 272 361 250 384.5 c 128,-1,26
 228 408 228 408 228 449 c 0,27,28
 228 472 228 472 233 492 c 0,29,30
 243 541 243 541 272.5 568.5 c 128,-1,31
 302 596 302 596 352 596 c 0,32,33
 397 596 397 596 419 572.5 c 128,-1,34
 441 549 441 549 441 508 c 0,35,36
 441 486 441 486 436 465 c 0,37,38
 416 361 416 361 317 361 c 0,24,25
EndSplineSet
EndChar

StartChar: colon
Encoding: 58 58 27
Width: 327
Flags: W
LayerCount: 2
Fore
SplineSet
112 -11 m 256,0,1
 154 -11 154 -11 178.5 9.5 c 128,-1,2
 203 30 203 30 209 63 c 2,3,-1
 215 94 l 1,4,-1
 216 109 l 2,5,6
 216 131 216 131 199 150 c 128,-1,7
 182 169 182 169 140 169 c 256,8,9
 98 169 98 169 73.5 149 c 128,-1,10
 49 129 49 129 43 95 c 2,11,-1
 41 86 l 2,12,13
 36 60 36 60 36 49 c 0,14,15
 36 27 36 27 53 8 c 128,-1,16
 70 -11 70 -11 112 -11 c 256,0,1
185 357 m 256,17,18
 227 357 227 357 251.5 377.5 c 128,-1,19
 276 398 276 398 282 431 c 2,20,-1
 288 462 l 1,21,-1
 289 477 l 2,22,23
 289 499 289 499 272 518 c 128,-1,24
 255 537 255 537 213 537 c 256,25,26
 171 537 171 537 146.5 517 c 128,-1,27
 122 497 122 497 116 463 c 2,28,-1
 114 454 l 2,29,30
 109 428 109 428 109 417 c 0,31,32
 109 395 109 395 126 376 c 128,-1,33
 143 357 143 357 185 357 c 256,17,18
EndSplineSet
EndChar

StartChar: semicolon
Encoding: 59 59 28
Width: 327
GlyphClass: 2
Flags: W
LayerCount: 2
Fore
SplineSet
73 -147 m 1,0,1
 130 -106 130 -106 166 -50.5 c 128,-1,2
 202 5 202 5 214 59 c 0,3,4
 220 89 220 89 220 103 c 0,5,6
 220 129 220 129 203 149 c 128,-1,7
 186 169 186 169 143 169 c 0,8,9
 102 169 102 169 78.5 149 c 128,-1,10
 55 129 55 129 48 95 c 2,11,-1
 46 86 l 2,12,13
 41 60 41 60 41 49 c 0,14,15
 41 31 41 31 53 15 c 128,-1,16
 65 -1 65 -1 92 -8 c 1,17,18
 51 -84 51 -84 -33 -147 c 1,19,-1
 73 -147 l 1,0,1
185 357 m 256,20,21
 227 357 227 357 251.5 377.5 c 128,-1,22
 276 398 276 398 282 431 c 2,23,-1
 288 462 l 1,24,-1
 289 477 l 2,25,26
 289 499 289 499 272 518 c 128,-1,27
 255 537 255 537 213 537 c 256,28,29
 171 537 171 537 146.5 517 c 128,-1,30
 122 497 122 497 116 463 c 2,31,-1
 114 454 l 2,32,33
 109 428 109 428 109 417 c 0,34,35
 109 395 109 395 126 376 c 128,-1,36
 143 357 143 357 185 357 c 256,20,21
EndSplineSet
EndChar

StartChar: less
Encoding: 60 60 29
Width: 600
Flags: W
LayerCount: 2
Fore
SplineSet
440 -1 m 1,0,-1
 468 138 l 1,1,-1
 260 288 l 1,2,-1
 262 295 l 1,3,-1
 530 444 l 1,4,-1
 562 603 l 1,5,-1
 116 345 l 1,6,-1
 98 258 l 1,7,-1
 440 -1 l 1,0,-1
EndSplineSet
EndChar

StartChar: equal
Encoding: 61 61 30
Width: 600
GlyphClass: 2
Flags: W
LayerCount: 2
Fore
SplineSet
552 363 m 1,0,-1
 575 479 l 1,1,-1
 112 479 l 1,2,-1
 89 363 l 1,3,-1
 552 363 l 1,0,-1
506 132 m 1,4,-1
 529 248 l 1,5,-1
 66 248 l 1,6,-1
 43 132 l 1,7,-1
 506 132 l 1,4,-1
EndSplineSet
EndChar

StartChar: greater
Encoding: 62 62 31
Width: 600
GlyphClass: 5
Flags: W
LayerCount: 2
Fore
SplineSet
55 -1 m 1,0,-1
 501 257 l 1,1,-1
 519 344 l 1,2,-1
 177 603 l 1,3,-1
 149 464 l 1,4,-1
 357 314 l 1,5,-1
 355 307 l 1,6,-1
 87 158 l 1,7,-1
 55 -1 l 1,0,-1
EndSplineSet
EndChar

StartChar: question
Encoding: 63 63 32
Width: 490
GlyphClass: 3
Flags: W
LayerCount: 2
Fore
SplineSet
286 233 m 1,0,-1
 303 309 l 1,1,2
 394 329 394 329 453 393.5 c 128,-1,3
 512 458 512 458 512 542 c 0,4,5
 512 619 512 619 458.5 664.5 c 128,-1,6
 405 710 405 710 309 710 c 0,7,8
 215 710 215 710 155.5 666.5 c 128,-1,9
 96 623 96 623 64 550 c 1,10,-1
 178 499 l 1,11,12
 194 539 194 539 221.5 563.5 c 128,-1,13
 249 588 249 588 289 588 c 0,14,15
 319 588 319 588 341 572.5 c 128,-1,16
 363 557 363 557 363 524 c 0,17,18
 363 505 363 505 358 488 c 0,19,20
 339 401 339 401 181 386 c 1,21,-1
 149 233 l 1,22,-1
 286 233 l 1,0,-1
175 -12 m 0,23,24
 262 -12 262 -12 276 64 c 2,25,-1
 282 94 l 1,26,-1
 282 106 l 2,27,28
 282 164 282 164 205 164 c 0,29,30
 118 164 118 164 104 88 c 2,31,-1
 103 82 l 2,32,33
 98 61 98 61 98 46 c 0,34,35
 98 -12 98 -12 175 -12 c 0,23,24
EndSplineSet
EndChar

StartChar: at
Encoding: 64 64 33
Width: 891
Flags: W
LayerCount: 2
Fore
SplineSet
573 -121 m 1,0,-1
 590 -36 l 1,1,-1
 401 -36 l 2,2,3
 287 -36 287 -36 220.5 29.5 c 128,-1,4
 154 95 154 95 154 209 c 0,5,6
 154 250 154 250 164 292 c 2,7,-1
 172 332 l 2,8,9
 200 465 200 465 291.5 544.5 c 128,-1,10
 383 624 383 624 509 624 c 0,11,12
 616 624 616 624 688 568 c 0,13,14
 759 510 759 510 759 408 c 0,15,16
 759 376 759 376 747 316 c 0,17,18
 731 237 731 237 703 202.5 c 128,-1,19
 675 168 675 168 643 168 c 0,20,21
 612 168 612 168 612 201 c 0,22,23
 612 210 612 210 615 227 c 2,24,-1
 667 489 l 1,25,-1
 557 489 l 1,26,-1
 545 431 l 1,27,-1
 541 431 l 1,28,29
 524 498 524 498 444 498 c 0,30,31
 414 498 414 498 385 486 c 0,32,33
 325 461 325 461 288 386 c 0,34,35
 269 348 269 348 260.5 306.5 c 128,-1,36
 252 265 252 265 252 233 c 0,37,38
 252 159 252 159 286.5 121.5 c 128,-1,39
 321 84 321 84 383 84 c 0,40,41
 427 84 427 84 458 111 c 128,-1,42
 489 138 489 138 501 175 c 1,43,-1
 506 175 l 1,44,-1
 506 164 l 2,45,46
 506 127 506 127 535 104.5 c 128,-1,47
 564 82 564 82 618 82 c 0,48,49
 659 82 659 82 695 100 c 0,50,51
 768 138 768 138 812 223 c 0,52,53
 851 303 851 303 851 393 c 0,54,55
 851 539 851 539 756 625 c 0,56,57
 660 709 660 709 523 709 c 0,58,59
 349 709 349 709 228 602 c 128,-1,60
 107 495 107 495 70 320 c 0,61,62
 59 264 59 264 59 211 c 0,63,64
 59 63 59 63 146 -28 c 0,65,66
 188 -72 188 -72 248.5 -96.5 c 128,-1,67
 309 -121 309 -121 384 -121 c 2,68,-1
 573 -121 l 1,0,-1
424 174 m 0,69,70
 366 174 366 174 365 233 c 0,71,72
 365 246 365 246 366 251 c 2,73,-1
 381 324 l 2,74,75
 398 408 398 408 464 408 c 0,76,77
 496 408 496 408 514 390 c 0,78,79
 529 377 529 377 529 356 c 0,80,81
 529 350 529 350 508 245 c 0,82,83
 503 221 503 221 479.5 197.5 c 128,-1,84
 456 174 456 174 424 174 c 0,69,70
EndSplineSet
EndChar

StartChar: A
Encoding: 65 65 34
Width: 658
GlyphClass: 5
Flags: W
LayerCount: 2
Fore
SplineSet
588 0 m 1,0,-1
 509 698 l 1,1,-1
 324 698 l 1,2,-1
 -35 0 l 1,3,-1
 120 0 l 1,4,-1
 202 170 l 1,5,-1
 425 170 l 1,6,-1
 441 0 l 1,7,-1
 588 0 l 1,0,-1
415 291 m 1,8,-1
 259 291 l 1,9,-1
 386 567 l 1,10,-1
 394 567 l 1,11,-1
 415 291 l 1,8,-1
EndSplineSet
EndChar

StartChar: B
Encoding: 66 66 35
Width: 651
GlyphClass: 7
Flags: W
LayerCount: 2
Fore
SplineSet
360 0 m 2,0,1
 480 0 480 0 540.5 61 c 128,-1,2
 601 122 601 122 601 222 c 0,3,4
 601 327 601 327 497 357 c 1,5,-1
 498 362 l 1,6,7
 567 382 567 382 600.5 434 c 128,-1,8
 634 486 634 486 634 555 c 0,9,10
 634 627 634 627 585.5 662.5 c 128,-1,11
 537 698 537 698 460 698 c 2,12,-1
 162 698 l 1,13,-1
 22 0 l 1,14,-1
 360 0 l 2,0,1
360 124 m 2,15,-1
 193 124 l 1,16,-1
 226 291 l 1,17,-1
 397 291 l 2,18,19
 452 291 452 291 452 246 c 2,20,-1
 451 232 l 1,21,-1
 443 189 l 2,22,23
 431 124 431 124 360 124 c 2,15,-1
391 410 m 2,24,-1
 250 410 l 1,25,-1
 283 574 l 1,26,-1
 429 574 l 2,27,28
 457 574 457 574 470 561 c 128,-1,29
 483 548 483 548 483 527 c 0,30,31
 483 515 483 515 478 494 c 2,32,-1
 474 472 l 2,33,34
 462 410 462 410 391 410 c 2,24,-1
EndSplineSet
EndChar

StartChar: C
Encoding: 67 67 36
Width: 635
Flags: W
LayerCount: 2
Fore
SplineSet
306 -12 m 0,0,1
 397 -12 397 -12 471 31.5 c 128,-1,2
 545 75 545 75 593 166 c 1,3,-1
 472 221 l 1,4,5
 450 174 450 174 414 145.5 c 128,-1,6
 378 117 378 117 319 117 c 0,7,8
 204 117 204 117 204 246 c 0,9,10
 204 266 204 266 209 296 c 2,11,-1
 231 406 l 2,12,13
 247 486 247 486 290.5 533.5 c 128,-1,14
 334 581 334 581 404 581 c 0,15,16
 460 581 460 581 485.5 554.5 c 128,-1,17
 511 528 511 528 522 486 c 1,18,-1
 651 540 l 1,19,20
 626 622 626 622 567.5 666 c 128,-1,21
 509 710 509 710 415 710 c 0,22,23
 339 710 339 710 273.5 676.5 c 128,-1,24
 208 643 208 643 160 583 c 128,-1,25
 112 523 112 523 84.5 443.5 c 128,-1,26
 57 364 57 364 57 272 c 0,27,28
 57 130 57 130 126 60 c 0,29,30
 194 -12 194 -12 306 -12 c 0,0,1
EndSplineSet
EndChar

StartChar: D
Encoding: 68 68 37
Width: 682
Flags: W
LayerCount: 2
Fore
SplineSet
288 0 m 2,0,1
 376 0 376 0 444.5 33.5 c 128,-1,2
 513 67 513 67 560 126 c 0,3,4
 654 251 654 251 654 437 c 0,5,6
 654 566 654 566 582.5 632 c 128,-1,7
 511 698 511 698 386 698 c 2,8,-1
 162 698 l 1,9,-1
 22 0 l 1,10,-1
 288 0 l 2,0,1
300 128 m 2,11,-1
 193 128 l 1,12,-1
 282 570 l 1,13,-1
 395 570 l 2,14,15
 507 570 507 570 507 452 c 0,16,17
 507 443 507 443 505.5 425.5 c 128,-1,18
 504 408 504 408 481 296 c 0,19,20
 463 210 463 210 415.5 169 c 128,-1,21
 368 128 368 128 300 128 c 2,11,-1
EndSplineSet
EndChar

StartChar: E
Encoding: 69 69 38
Width: 578
Flags: W
LayerCount: 2
Fore
SplineSet
481 0 m 1,0,-1
 507 128 l 1,1,-1
 193 128 l 1,2,-1
 225 289 l 1,3,-1
 493 289 l 1,4,-1
 519 417 l 1,5,-1
 251 417 l 1,6,-1
 282 570 l 1,7,-1
 585 570 l 1,8,-1
 611 698 l 1,9,-1
 162 698 l 1,10,-1
 22 0 l 1,11,-1
 481 0 l 1,0,-1
EndSplineSet
EndChar

StartChar: F
Encoding: 70 70 39
Width: 557
GlyphClass: 2
Flags: W
LayerCount: 2
Fore
SplineSet
167 0 m 1,0,-1
 224 289 l 1,1,-1
 481 289 l 1,2,-1
 507 417 l 1,3,-1
 250 417 l 1,4,-1
 281 570 l 1,5,-1
 573 570 l 1,6,-1
 599 698 l 1,7,-1
 162 698 l 1,8,-1
 22 0 l 1,9,-1
 167 0 l 1,0,-1
EndSplineSet
EndChar

StartChar: G
Encoding: 71 71 40
Width: 700
Flags: W
LayerCount: 2
Fore
SplineSet
283 -12 m 0,0,1
 354 -12 354 -12 401 23.5 c 128,-1,2
 448 59 448 59 474 111 c 1,3,-1
 482 111 l 1,4,-1
 460 0 l 1,5,-1
 579 0 l 1,6,-1
 656 386 l 1,7,-1
 392 386 l 1,8,-1
 368 264 l 1,9,-1
 494 264 l 1,10,-1
 487 230 l 2,11,12
 476 181 476 181 429.5 149 c 128,-1,13
 383 117 383 117 318 117 c 0,14,15
 272 117 272 117 237.5 146 c 128,-1,16
 203 175 203 175 203 241 c 0,17,18
 203 267 203 267 209 297 c 2,19,-1
 231 407 l 2,20,21
 264 581 264 581 417 581 c 0,22,23
 471 581 471 581 507.5 555.5 c 128,-1,24
 544 530 544 530 556 481 c 1,25,-1
 677 545 l 1,26,27
 652 625 652 625 586 668 c 0,28,29
 517 710 517 710 425 710 c 0,30,31
 342 710 342 710 274.5 677 c 128,-1,32
 207 644 207 644 159 584 c 0,33,34
 57 456 57 456 57 268 c 0,35,36
 57 129 57 129 120 58.5 c 128,-1,37
 183 -12 183 -12 283 -12 c 0,0,1
EndSplineSet
EndChar

StartChar: H
Encoding: 72 72 41
Width: 700
GlyphClass: 5
Flags: W
LayerCount: 2
Fore
SplineSet
572 0 m 1,0,-1
 712 698 l 1,1,-1
 567 698 l 1,2,-1
 511 417 l 1,3,-1
 251 417 l 1,4,-1
 307 698 l 1,5,-1
 162 698 l 1,6,-1
 22 0 l 1,7,-1
 167 0 l 1,8,-1
 225 289 l 1,9,-1
 485 289 l 1,10,-1
 427 0 l 1,11,-1
 572 0 l 1,0,-1
EndSplineSet
EndChar

StartChar: I
Encoding: 73 73 42
Width: 295
Flags: W
LayerCount: 2
Fore
SplineSet
167 0 m 1,0,-1
 22 0 l 1,1,-1
 163 698 l 1,2,-1
 308 698 l 1,3,-1
 167 0 l 1,0,-1
EndSplineSet
EndChar

StartChar: J
Encoding: 74 74 43
Width: 536
GlyphClass: 5
Flags: W
LayerCount: 2
Fore
SplineSet
215 -11 m 0,0,1
 148 -11 148 -11 103 14.5 c 128,-1,2
 58 40 58 40 34 83 c 128,-1,3
 10 126 10 126 5 180 c 1,4,-1
 144 208 l 1,5,6
 147 165 147 165 162.5 140 c 128,-1,7
 178 115 178 115 215 115 c 0,8,9
 246 115 246 115 270.5 136 c 128,-1,10
 295 157 295 157 305 205 c 2,11,-1
 403 698 l 1,12,-1
 549 698 l 1,13,-1
 447 190 l 2,14,15
 429 98 429 98 371 43.5 c 128,-1,16
 313 -11 313 -11 215 -11 c 0,0,1
EndSplineSet
EndChar

StartChar: K
Encoding: 75 75 44
Width: 657
GlyphClass: 3
Flags: W
LayerCount: 2
Fore
SplineSet
596 0 m 1,0,-1
 433 398 l 1,1,-1
 721 698 l 1,2,-1
 545 698 l 1,3,-1
 357 495 l 1,4,-1
 247 364 l 1,5,-1
 240 364 l 1,6,-1
 307 698 l 1,7,-1
 162 698 l 1,8,-1
 22 0 l 1,9,-1
 167 0 l 1,10,-1
 203 179 l 1,11,-1
 319 299 l 1,12,-1
 436 0 l 1,13,-1
 596 0 l 1,0,-1
EndSplineSet
EndChar

StartChar: L
Encoding: 76 76 45
Width: 510
GlyphClass: 5
Flags: W
LayerCount: 2
Fore
SplineSet
423 0 m 1,0,-1
 449 128 l 1,1,-1
 193 128 l 1,2,-1
 307 698 l 1,3,-1
 162 698 l 1,4,-1
 22 0 l 1,5,-1
 423 0 l 1,0,-1
EndSplineSet
EndChar

StartChar: M
Encoding: 77 77 46
Width: 801
GlyphClass: 3
Flags: W
LayerCount: 2
Fore
SplineSet
673 0 m 1,0,-1
 813 698 l 1,1,-1
 652 698 l 1,2,-1
 419 366 l 1,3,-1
 415 366 l 1,4,-1
 314 698 l 1,5,-1
 162 698 l 1,6,-1
 22 0 l 1,7,-1
 160 0 l 1,8,-1
 253 463 l 1,9,-1
 258 463 l 1,10,-1
 371 115 l 1,11,12
 497 287 497 287 622 461 c 1,13,-1
 628 461 l 1,14,-1
 535 0 l 1,15,-1
 673 0 l 1,0,-1
EndSplineSet
EndChar

StartChar: N
Encoding: 78 78 47
Width: 700
GlyphClass: 7
Flags: W
LayerCount: 2
Fore
SplineSet
572 0 m 1,0,-1
 712 698 l 1,1,-1
 575 698 l 1,2,-1
 480 223 l 1,3,-1
 474 223 l 1,4,-1
 432 362 l 1,5,-1
 319 698 l 1,6,-1
 162 698 l 1,7,-1
 22 0 l 1,8,-1
 159 0 l 1,9,-1
 254 475 l 1,10,-1
 260 475 l 1,11,-1
 302 336 l 1,12,-1
 415 0 l 1,13,-1
 572 0 l 1,0,-1
EndSplineSet
EndChar

StartChar: O
Encoding: 79 79 48
Width: 695
GlyphClass: 3
Flags: W
LayerCount: 2
Fore
SplineSet
308 -12 m 0,0,1
 386 -12 386 -12 452 22 c 128,-1,2
 518 56 518 56 566 117 c 0,3,4
 668 247 668 247 668 427 c 0,5,6
 668 569 668 569 593 643 c 0,7,8
 525 710 525 710 417 710 c 0,9,10
 339 710 339 710 273 676 c 128,-1,11
 207 642 207 642 159 581 c 0,12,13
 57 451 57 451 57 271 c 0,14,15
 57 131 57 131 133 56 c 0,16,17
 202 -12 202 -12 308 -12 c 0,0,1
318 117 m 0,18,19
 204 117 204 117 204 245 c 0,20,21
 204 268 204 268 209 297 c 2,22,-1
 230 402 l 2,23,24
 247 487 247 487 292 534 c 128,-1,25
 337 581 337 581 407 581 c 0,26,27
 521 581 521 581 521 453 c 0,28,29
 521 431 521 431 516 401 c 2,30,-1
 495 296 l 2,31,32
 478 211 478 211 433 164 c 128,-1,33
 388 117 388 117 318 117 c 0,18,19
EndSplineSet
EndChar

StartChar: P
Encoding: 80 80 49
Width: 637
GlyphClass: 1
Flags: W
LayerCount: 2
Fore
SplineSet
167 0 m 1,0,-1
 218 255 l 1,1,-1
 374 255 l 2,2,3
 493 255 493 255 569 326 c 128,-1,4
 645 397 645 397 645 511 c 0,5,6
 645 600 645 600 587.5 649 c 128,-1,7
 530 698 530 698 425 698 c 2,8,-1
 162 698 l 1,9,-1
 22 0 l 1,10,-1
 167 0 l 1,0,-1
393 383 m 2,11,-1
 244 383 l 1,12,-1
 281 570 l 1,13,-1
 431 570 l 2,14,15
 464 570 464 570 479.5 554.5 c 128,-1,16
 495 539 495 539 495 516 c 0,17,18
 495 500 495 500 484 456 c 0,19,20
 475 419 475 419 451 401 c 128,-1,21
 427 383 427 383 393 383 c 2,11,-1
EndSplineSet
EndChar

StartChar: Q
Encoding: 81 81 50
Width: 714
GlyphClass: 1
Flags: W
LayerCount: 2
Fore
SplineSet
318 117 m 0,0,1
 204 117 204 117 204 245 c 0,2,3
 204 268 204 268 209 297 c 2,4,-1
 230 402 l 2,5,6
 247 487 247 487 292 534 c 128,-1,7
 337 581 337 581 407 581 c 0,8,9
 521 581 521 581 521 453 c 0,10,11
 521 431 521 431 516 401 c 2,12,-1
 495 296 l 2,13,14
 478 211 478 211 433 164 c 128,-1,15
 388 117 388 117 318 117 c 0,0,1
566 117 m 0,17,18
 668 247 668 247 668 427 c 0,19,20
 668 569 668 569 593 643 c 0,21,22
 525 710 525 710 417 710 c 0,23,24
 339 710 339 710 273 676 c 128,-1,25
 207 642 207 642 159 581 c 0,26,27
 57 451 57 451 57 271 c 0,28,29
 57 131 57 131 133 56 c 0,30,31
 202 -12 202 -12 308 -12 c 0,32,33
 355 -12 355 -12 397 0 c 1,34,-1
 545 -97 l 1,35,-1
 629 10 l 1,36,-1
 528 76 l 1,37,16
 548 95 548 95 566 117 c 0,17,18
EndSplineSet
EndChar

StartChar: R
Encoding: 82 82 51
Width: 655
GlyphClass: 7
Flags: W
LayerCount: 2
Fore
SplineSet
558 0 m 1,0,-1
 474 276 l 1,1,2
 558 305 558 305 601.5 372.5 c 128,-1,3
 645 440 645 440 645 518 c 0,4,5
 645 604 645 604 589.5 651 c 128,-1,6
 534 698 534 698 434 698 c 2,7,-1
 162 698 l 1,8,-1
 22 0 l 1,9,-1
 167 0 l 1,10,-1
 219 259 l 1,11,-1
 334 259 l 1,12,-1
 403 0 l 1,13,-1
 558 0 l 1,0,-1
393 383 m 2,14,-1
 244 383 l 1,15,-1
 281 570 l 1,16,-1
 431 570 l 2,17,18
 464 570 464 570 479.5 554.5 c 128,-1,19
 495 539 495 539 495 516 c 0,20,21
 495 500 495 500 484 456 c 0,22,23
 475 419 475 419 451 401 c 128,-1,24
 427 383 427 383 393 383 c 2,14,-1
EndSplineSet
EndChar

StartChar: S
Encoding: 83 83 52
Width: 624
GlyphClass: 1
Flags: W
LayerCount: 2
Fore
SplineSet
274 -12 m 0,0,1
 405 -12 405 -12 476 52.5 c 128,-1,2
 547 117 547 117 547 219 c 0,3,4
 547 274 547 274 512 324 c 128,-1,5
 477 374 477 374 375 412 c 2,6,-1
 309 436 l 2,7,8
 241 460 241 460 241 506 c 0,9,10
 241 576 241 576 341 576 c 0,11,12
 437 576 437 576 491 510 c 1,13,-1
 592 612 l 1,14,15
 508 710 508 710 350 710 c 0,16,17
 226 710 226 710 156.5 650.5 c 128,-1,18
 87 591 87 591 87 496 c 0,19,20
 87 359 87 359 261 300 c 2,21,-1
 327 278 l 2,22,23
 372 261 372 261 385 239 c 0,24,25
 393 224 393 224 393 207 c 0,26,27
 393 122 393 122 284 122 c 0,28,29
 181 122 181 122 109 202 c 1,30,-1
 9 101 l 1,31,32
 107 -12 107 -12 274 -12 c 0,0,1
EndSplineSet
EndChar

StartChar: T
Encoding: 84 84 53
Width: 569
GlyphClass: 3
Flags: W
LayerCount: 2
Fore
SplineSet
304 0 m 1,0,-1
 418 570 l 1,1,-1
 602 570 l 1,2,-1
 628 698 l 1,3,-1
 115 698 l 1,4,-1
 89 570 l 1,5,-1
 273 570 l 1,6,-1
 159 0 l 1,7,-1
 304 0 l 1,0,-1
EndSplineSet
EndChar

StartChar: U
Encoding: 85 85 54
Width: 678
GlyphClass: 5
Flags: W
LayerCount: 2
Fore
SplineSet
308 -12 m 0,0,1
 439 -12 439 -12 508 58 c 128,-1,2
 577 128 577 128 605 275 c 2,3,-1
 690 698 l 1,4,-1
 547 698 l 1,5,-1
 461 270 l 1,6,7
 435 120 435 120 315 120 c 0,8,9
 213 120 213 120 213 220 c 0,10,11
 213 249 213 249 220 283 c 2,12,-1
 303 698 l 1,13,-1
 160 698 l 1,14,-1
 81 303 l 2,15,16
 72 255 72 255 72 214 c 0,17,18
 72 -9 72 -9 308 -12 c 0,0,1
EndSplineSet
EndChar

StartChar: V
Encoding: 86 86 55
Width: 631
Flags: W
LayerCount: 2
Fore
SplineSet
344 0 m 1,0,-1
 705 698 l 1,1,-1
 551 698 l 1,2,-1
 408 405 l 1,3,-1
 295 154 l 1,4,-1
 288 154 l 1,5,-1
 270 429 l 1,6,-1
 245 698 l 1,7,-1
 99 698 l 1,8,-1
 181 0 l 1,9,-1
 344 0 l 1,0,-1
EndSplineSet
EndChar

StartChar: W
Encoding: 87 87 56
Width: 941
Flags: W
LayerCount: 2
Fore
SplineSet
706 0 m 1,0,-1
 997 698 l 1,1,-1
 851 698 l 1,2,-1
 733 384 l 1,3,-1
 646 134 l 1,4,-1
 636 134 l 1,5,-1
 643 416 l 1,6,-1
 636 698 l 1,7,-1
 477 698 l 1,8,-1
 351 401 l 1,9,-1
 254 144 l 1,10,-1
 244 144 l 1,11,-1
 255 419 l 1,12,-1
 259 698 l 1,13,-1
 116 698 l 1,14,-1
 130 0 l 1,15,-1
 302 0 l 1,16,-1
 432 312 l 1,17,-1
 521 536 l 1,18,-1
 530 536 l 1,19,-1
 530 291 l 1,20,-1
 538 0 l 1,21,-1
 706 0 l 1,0,-1
EndSplineSet
EndChar

StartChar: X
Encoding: 88 88 57
Width: 641
Flags: W
LayerCount: 2
Fore
SplineSet
571 0 m 1,0,-1
 419 347 l 1,1,-1
 706 698 l 1,2,-1
 538 698 l 1,3,-1
 363 468 l 1,4,-1
 355 468 l 1,5,-1
 260 698 l 1,6,-1
 104 698 l 1,7,-1
 250 369 l 1,8,-1
 -40 0 l 1,9,-1
 128 0 l 1,10,-1
 307 243 l 1,11,-1
 315 243 l 1,12,-1
 414 0 l 1,13,-1
 571 0 l 1,0,-1
EndSplineSet
EndChar

StartChar: Y
Encoding: 89 89 58
Width: 624
Flags: W
LayerCount: 2
Fore
SplineSet
330 0 m 1,0,-1
 382 258 l 1,1,-1
 701 698 l 1,2,-1
 541 698 l 1,3,-1
 340 404 l 1,4,-1
 333 404 l 1,5,-1
 239 698 l 1,6,-1
 91 698 l 1,7,-1
 239 271 l 1,8,-1
 185 0 l 1,9,-1
 330 0 l 1,0,-1
EndSplineSet
EndChar

StartChar: Z
Encoding: 90 90 59
Width: 573
Flags: W
LayerCount: 2
Fore
SplineSet
486 0 m 1,0,-1
 512 128 l 1,1,-1
 187 128 l 1,2,-1
 597 570 l 1,3,-1
 623 698 l 1,4,-1
 145 698 l 1,5,-1
 119 570 l 1,6,-1
 425 570 l 1,7,-1
 15 128 l 1,8,-1
 -11 0 l 1,9,-1
 486 0 l 1,0,-1
EndSplineSet
EndChar

StartChar: bracketleft
Encoding: 91 91 60
Width: 323
Flags: W
LayerCount: 2
Fore
SplineSet
213 -138 m 1,0,-1
 232 -41 l 1,1,-1
 141 -41 l 1,2,-1
 283 663 l 1,3,-1
 373 663 l 1,4,-1
 392 760 l 1,5,-1
 175 760 l 1,6,-1
 -5 -138 l 1,7,-1
 213 -138 l 1,0,-1
EndSplineSet
EndChar

StartChar: backslash
Encoding: 92 92 61
Width: 479
Flags: W
LayerCount: 2
Fore
SplineSet
379 -151 m 1,0,-1
 262 740 l 1,1,-1
 148 740 l 1,2,-1
 265 -151 l 1,3,-1
 379 -151 l 1,0,-1
EndSplineSet
EndChar

StartChar: bracketright
Encoding: 93 93 62
Width: 323
Flags: W
LayerCount: 2
Fore
SplineSet
167 -138 m 1,0,-1
 347 760 l 1,1,-1
 129 760 l 1,2,-1
 110 663 l 1,3,-1
 201 663 l 1,4,-1
 59 -41 l 1,5,-1
 -31 -41 l 1,6,-1
 -50 -138 l 1,7,-1
 167 -138 l 1,0,-1
EndSplineSet
EndChar

StartChar: asciicircum
Encoding: 94 94 63
Width: 600
Flags: W
LayerCount: 2
Fore
SplineSet
466 280 m 1,0,-1
 584 325 l 1,1,-1
 444 698 l 1,2,-1
 313 698 l 1,3,-1
 49 343 l 1,4,-1
 154 280 l 1,5,-1
 353 551 l 1,6,-1
 364 551 l 1,7,-1
 466 280 l 1,0,-1
EndSplineSet
EndChar

StartChar: underscore
Encoding: 95 95 64
Width: 548
Flags: W
LayerCount: 2
Fore
SplineSet
431 -187 m 1,0,-1
 454 -68 l 1,1,-1
 -39 -68 l 1,2,-1
 -62 -187 l 1,3,-1
 431 -187 l 1,0,-1
EndSplineSet
EndChar

StartChar: grave
Encoding: 96 96 65
Width: 585
Flags: W
LayerCount: 2
Fore
SplineSet
279 580 m 1,0,-1
 368 619 l 1,1,-1
 300 815 l 1,2,-1
 174 756 l 1,3,-1
 279 580 l 1,0,-1
EndSplineSet
EndChar

StartChar: a
Encoding: 97 97 66
Width: 591
Flags: W
LayerCount: 2
Fore
SplineSet
171 -12 m 0,0,1
 233 -12 233 -12 272.5 23 c 128,-1,2
 312 58 312 58 342 122 c 1,3,-1
 348 122 l 1,4,5
 347 115 347 115 345.5 109 c 128,-1,6
 344 103 344 103 343 94 c 128,-1,7
 342 85 342 85 342 77 c 0,8,9
 342 40 342 40 367 20 c 128,-1,10
 392 0 392 0 430 0 c 2,11,-1
 523 0 l 1,12,-1
 545 112 l 1,13,-1
 486 112 l 1,14,-1
 569 525 l 1,15,-1
 429 525 l 1,16,-1
 411 434 l 1,17,-1
 406 434 l 1,18,19
 400 478 400 478 365 507.5 c 128,-1,20
 330 537 330 537 275 537 c 0,21,22
 175 537 175 537 103 435 c 128,-1,23
 31 333 31 333 31 170 c 0,24,25
 31 92 31 92 64.5 40 c 128,-1,26
 98 -12 98 -12 171 -12 c 0,0,1
240 103 m 0,27,28
 179 103 179 103 174 178 c 0,29,30
 174 190 174 190 176 207 c 0,31,32
 179 228 179 228 194 305 c 0,33,34
 218 422 218 422 309 422 c 0,35,36
 353 422 353 422 376 397 c 0,37,38
 393 379 393 379 393 354 c 0,39,40
 393 345 393 345 375 255 c 0,41,42
 362 194 362 194 327 151 c 0,43,44
 290 103 290 103 240 103 c 0,27,28
EndSplineSet
EndChar

StartChar: b
Encoding: 98 98 67
Width: 583
Flags: W
LayerCount: 2
Fore
SplineSet
308 -12 m 0,0,1
 409 -12 409 -12 480.5 90 c 128,-1,2
 552 192 552 192 552 355 c 0,3,4
 552 433 552 433 519 485 c 128,-1,5
 486 537 486 537 412 537 c 0,6,7
 350 537 350 537 310.5 502 c 128,-1,8
 271 467 271 467 241 403 c 1,9,-1
 235 403 l 1,10,-1
 302 740 l 1,11,-1
 162 740 l 1,12,-1
 14 0 l 1,13,-1
 154 0 l 1,14,-1
 172 91 l 1,15,-1
 177 91 l 1,16,17
 183 47 183 47 218 17.5 c 128,-1,18
 253 -12 253 -12 308 -12 c 0,0,1
274 103 m 0,19,20
 230 103 230 103 207 126 c 0,21,22
 190 144 190 144 190 170 c 0,23,24
 190 180 190 180 208 270 c 0,25,26
 221 331 221 331 256 374 c 0,27,28
 293 422 293 422 343 422 c 0,29,30
 405 422 405 422 409 347 c 0,31,32
 409 335 409 335 407 319 c 0,33,34
 404 297 404 297 389 220 c 0,35,36
 366 103 366 103 274 103 c 0,19,20
EndSplineSet
EndChar

StartChar: c
Encoding: 99 99 68
Width: 494
Flags: W
LayerCount: 2
Fore
SplineSet
237 -12 m 0,0,1
 387 -12 387 -12 460 134 c 1,2,-1
 353 184 l 1,3,4
 332 147 332 147 311 124 c 128,-1,5
 290 101 290 101 249 101 c 0,6,7
 170 101 170 101 170 183 c 0,8,9
 170 203 170 203 175 225 c 2,10,-1
 193 314 l 2,11,12
 215 424 215 424 302 424 c 0,13,14
 340 424 340 424 356 405.5 c 128,-1,15
 372 387 372 387 380 356 c 1,16,-1
 498 401 l 1,17,18
 486 463 486 463 437 500 c 0,19,20
 384 537 384 537 310 537 c 0,21,22
 190 537 190 537 110.5 446 c 128,-1,23
 31 355 31 355 31 215 c 0,24,25
 31 99 31 99 91 41 c 0,26,27
 145 -12 145 -12 237 -12 c 0,0,1
EndSplineSet
EndChar

StartChar: d
Encoding: 100 100 69
Width: 591
Flags: W
LayerCount: 2
Fore
SplineSet
171 -12 m 0,0,1
 233 -12 233 -12 272.5 23 c 128,-1,2
 312 58 312 58 342 122 c 1,3,-1
 348 122 l 1,4,5
 347 115 347 115 345.5 109 c 128,-1,6
 344 103 344 103 343 94 c 128,-1,7
 342 85 342 85 342 77 c 0,8,9
 342 40 342 40 367 20 c 128,-1,10
 392 0 392 0 430 0 c 2,11,-1
 523 0 l 1,12,-1
 545 112 l 1,13,-1
 486 112 l 1,14,-1
 612 740 l 1,15,-1
 472 740 l 1,16,-1
 411 434 l 1,17,-1
 406 434 l 1,18,19
 400 478 400 478 365 507.5 c 128,-1,20
 330 537 330 537 275 537 c 0,21,22
 175 537 175 537 103 435 c 128,-1,23
 31 333 31 333 31 170 c 0,24,25
 31 92 31 92 64.5 40 c 128,-1,26
 98 -12 98 -12 171 -12 c 0,0,1
240 103 m 0,27,28
 179 103 179 103 174 178 c 0,29,30
 174 190 174 190 176 207 c 0,31,32
 179 228 179 228 194 305 c 0,33,34
 218 422 218 422 309 422 c 0,35,36
 353 422 353 422 376 399 c 0,37,38
 393 381 393 381 393 355 c 0,39,40
 393 345 393 345 375 255 c 0,41,42
 362 194 362 194 327 151 c 0,43,44
 290 103 290 103 240 103 c 0,27,28
EndSplineSet
EndChar

StartChar: e
Encoding: 101 101 70
Width: 515
Flags: W
LayerCount: 2
Fore
SplineSet
253 -12 m 0,0,1
 321 -12 321 -12 375 15 c 128,-1,2
 429 42 429 42 477 106 c 1,3,-1
 391 174 l 1,4,5
 356 131 356 131 326.5 116 c 128,-1,6
 297 101 297 101 263 101 c 0,7,8
 211 101 211 101 190.5 124 c 128,-1,9
 170 147 170 147 170 185 c 0,10,11
 170 198 170 198 171 204 c 2,12,-1
 172 208 l 1,13,14
 504 219 504 219 504 391 c 0,15,16
 504 469 504 469 440 507 c 0,17,18
 388 537 388 537 316 537 c 0,19,20
 251 537 251 537 198 510.5 c 128,-1,21
 145 484 145 484 108 439 c 0,22,23
 31 340 31 340 31 214 c 0,24,25
 31 109 31 109 86 48.5 c 128,-1,26
 141 -12 141 -12 253 -12 c 0,0,1
187 297 m 1,27,-1
 191 320 l 2,28,29
 201 372 201 372 232 401 c 128,-1,30
 263 430 263 430 308 430 c 0,31,32
 368 430 368 430 368 377 c 0,33,34
 368 361 368 361 361 348 c 128,-1,35
 354 335 354 335 334 325 c 0,36,37
 297 304 297 304 187 297 c 1,27,-1
EndSplineSet
EndChar

StartChar: f
Encoding: 102 102 71
Width: 353
Flags: W
LayerCount: 2
Fore
SplineSet
-11 -200 m 2,0,1
 151 -200 151 -200 181 -50 c 2,2,-1
 273 413 l 1,3,-1
 376 413 l 1,4,-1
 398 525 l 1,5,-1
 296 525 l 1,6,-1
 316 628 l 1,7,-1
 412 628 l 1,8,-1
 436 740 l 1,9,-1
 360 740 l 2,10,11
 198 740 198 740 168 590 c 2,12,-1
 155 525 l 1,13,-1
 86 525 l 1,14,-1
 64 413 l 1,15,-1
 133 413 l 1,16,-1
 33 -88 l 1,17,-1
 -63 -88 l 1,18,-1
 -87 -200 l 1,19,-1
 -11 -200 l 2,0,1
EndSplineSet
EndChar

StartChar: g
Encoding: 103 103 72
Width: 572
Flags: W
LayerCount: 2
Fore
SplineSet
207 -212 m 0,0,1
 141 -212 141 -212 87.5 -190.5 c 128,-1,2
 34 -169 34 -169 -4 -118 c 1,3,-1
 85 -37 l 1,4,5
 127 -100 127 -100 203 -100 c 0,6,7
 304 -100 304 -100 328 26 c 2,8,-1
 350 136 l 1,9,-1
 344 136 l 1,10,11
 314 72 314 72 274.5 37 c 128,-1,12
 235 2 235 2 173 2 c 0,13,14
 100 2 100 2 66.5 53.5 c 128,-1,15
 33 105 33 105 33 184 c 0,16,17
 33 296 33 296 65.5 374.5 c 128,-1,18
 98 453 98 453 152.5 495 c 128,-1,19
 207 537 207 537 274 537 c 0,20,21
 329 537 329 537 364 507.5 c 128,-1,22
 399 478 399 478 405 434 c 1,23,-1
 410 434 l 1,24,-1
 428 525 l 1,25,-1
 568 525 l 1,26,-1
 467 19 l 2,27,28
 447 -92 447 -92 387.5 -152 c 128,-1,29
 328 -212 328 -212 207 -212 c 0,0,1
242 117 m 0,30,31
 291 117 291 117 329 165 c 0,32,33
 364 208 364 208 377 269 c 0,34,35
 391 342 391 342 391 350 c 0,36,37
 391 374 391 374 373.5 398 c 128,-1,38
 356 422 356 422 308 422 c 0,39,40
 215 422 215 422 193 305 c 2,41,-1
 182 249 l 2,42,43
 176 216 176 216 176 192 c 0,44,45
 176 122 176 122 242 117 c 0,30,31
EndSplineSet
EndChar

StartChar: h
Encoding: 104 104 73
Width: 588
Flags: W
LayerCount: 2
Fore
SplineSet
520 0 m 1,0,-1
 542 112 l 1,1,-1
 489 112 l 1,2,-1
 532 327 l 2,3,4
 541 364 541 364 541 401 c 0,5,6
 541 466 541 466 508.5 501.5 c 128,-1,7
 476 537 476 537 415 537 c 0,8,9
 353 537 353 537 311.5 502 c 128,-1,10
 270 467 270 467 241 403 c 1,11,-1
 235 403 l 1,12,-1
 302 740 l 1,13,-1
 162 740 l 1,14,-1
 14 0 l 1,15,-1
 154 0 l 1,16,-1
 208 270 l 2,17,18
 221 330 221 330 258 372 c 0,19,20
 298 420 298 420 343 420 c 0,21,22
 396 420 396 420 396 368 c 0,23,24
 396 338 396 338 369 208 c 0,25,26
 345 89 345 89 345 76 c 0,27,28
 345 41 345 41 367 20.5 c 128,-1,29
 389 0 389 0 429 0 c 2,30,-1
 520 0 l 1,0,-1
EndSplineSet
EndChar

StartChar: i
Encoding: 105 105 74
Width: 281
Flags: W
LayerCount: 2
Fore
SplineSet
202 583 m 0,0,1
 227 583 227 583 244 590 c 0,2,3
 304 612 304 612 304 695 c 0,4,5
 304 719 304 719 286.5 733 c 128,-1,6
 269 747 269 747 232 747 c 0,7,8
 207 747 207 747 190 740 c 0,9,10
 130 718 130 718 130 635 c 0,11,12
 130 611 130 611 147.5 597 c 128,-1,13
 165 583 165 583 202 583 c 0,0,1
213 0 m 1,14,-1
 235 112 l 1,15,-1
 176 112 l 1,16,-1
 259 525 l 1,17,-1
 119 525 l 1,18,19
 32 90 32 90 32 80 c 0,20,21
 32 44 32 44 56.5 22 c 128,-1,22
 81 0 81 0 122 0 c 2,23,-1
 213 0 l 1,14,-1
EndSplineSet
EndChar

StartChar: j
Encoding: 106 106 75
Width: 276
Flags: W
LayerCount: 2
Fore
SplineSet
-18 -200 m 2,0,1
 55 -200 55 -200 93 -165 c 128,-1,2
 131 -130 131 -130 144 -61 c 2,3,-1
 263 525 l 1,4,-1
 123 525 l 1,5,-1
 0 -88 l 1,6,-1
 -75 -88 l 1,7,-1
 -97 -200 l 1,8,-1
 -18 -200 l 2,0,1
206 583 m 0,9,10
 231 583 231 583 248 590 c 0,11,12
 308 612 308 612 308 695 c 0,13,14
 308 719 308 719 290.5 733 c 128,-1,15
 273 747 273 747 236 747 c 0,16,17
 211 747 211 747 194 740 c 0,18,19
 134 718 134 718 134 635 c 0,20,21
 134 611 134 611 151.5 597 c 128,-1,22
 169 583 169 583 206 583 c 0,9,10
EndSplineSet
EndChar

StartChar: k
Encoding: 107 107 76
Width: 550
Flags: W
LayerCount: 2
Fore
SplineSet
479 0 m 1,0,-1
 503 112 l 1,1,-1
 442 112 l 1,2,-1
 370 312 l 1,3,-1
 583 525 l 1,4,-1
 420 525 l 1,5,-1
 294 395 l 1,6,-1
 222 305 l 1,7,-1
 215 305 l 1,8,-1
 302 740 l 1,9,-1
 162 740 l 1,10,-1
 14 0 l 1,11,-1
 154 0 l 1,12,-1
 182 142 l 1,13,-1
 261 216 l 1,14,-1
 305 79 l 2,15,16
 331 0 331 0 404 0 c 2,17,-1
 479 0 l 1,0,-1
EndSplineSet
EndChar

StartChar: l
Encoding: 108 108 77
Width: 281
Flags: W
LayerCount: 2
Fore
SplineSet
216 0 m 1,0,-1
 238 112 l 1,1,-1
 176 112 l 1,2,-1
 302 740 l 1,3,-1
 162 740 l 1,4,5
 32 90 32 90 32 80 c 0,6,7
 32 44 32 44 56.5 22 c 128,-1,8
 81 0 81 0 122 0 c 2,9,-1
 216 0 l 1,0,-1
EndSplineSet
EndChar

StartChar: m
Encoding: 109 109 78
Width: 877
Flags: W
LayerCount: 2
Fore
SplineSet
809 0 m 1,0,-1
 831 112 l 1,1,-1
 778 112 l 1,2,-1
 818 313 l 2,3,4
 830 358 830 358 830 404 c 0,5,6
 830 466 830 466 799.5 501.5 c 128,-1,7
 769 537 769 537 711 537 c 0,8,9
 648 537 648 537 607 500 c 128,-1,10
 566 463 566 463 537 403 c 1,11,-1
 532 403 l 1,12,13
 529 537 529 537 410 537 c 0,14,15
 350 537 350 537 310 501.5 c 128,-1,16
 270 466 270 466 241 403 c 1,17,-1
 235 403 l 1,18,-1
 259 525 l 1,19,-1
 119 525 l 1,20,-1
 14 0 l 1,21,-1
 154 0 l 1,22,-1
 208 270 l 2,23,24
 220 329 220 329 256 372 c 0,25,26
 294 420 294 420 340 420 c 0,27,28
 387 420 387 420 387 366 c 0,29,30
 387 342 387 342 380 312 c 2,31,-1
 318 0 l 1,32,-1
 458 0 l 1,33,-1
 512 270 l 2,34,35
 524 328 524 328 560 373 c 0,36,37
 599 420 599 420 642 420 c 0,38,39
 686 420 686 420 686 367 c 0,40,41
 686 342 686 342 658 208 c 0,42,43
 634 89 634 89 634 76 c 0,44,45
 634 41 634 41 656 20.5 c 128,-1,46
 678 0 678 0 718 0 c 2,47,-1
 809 0 l 1,0,-1
EndSplineSet
EndChar

StartChar: n
Encoding: 110 110 79
Width: 588
Flags: W
LayerCount: 2
Fore
SplineSet
520 0 m 1,0,-1
 542 112 l 1,1,-1
 489 112 l 1,2,-1
 532 327 l 2,3,4
 541 364 541 364 541 401 c 0,5,6
 541 466 541 466 508.5 501.5 c 128,-1,7
 476 537 476 537 415 537 c 0,8,9
 353 537 353 537 311.5 502 c 128,-1,10
 270 467 270 467 241 403 c 1,11,-1
 235 403 l 1,12,-1
 259 525 l 1,13,-1
 119 525 l 1,14,-1
 14 0 l 1,15,-1
 154 0 l 1,16,-1
 208 270 l 2,17,18
 221 330 221 330 258 372 c 0,19,20
 298 420 298 420 343 420 c 0,21,22
 396 420 396 420 396 368 c 0,23,24
 396 338 396 338 369 208 c 0,25,26
 345 89 345 89 345 76 c 0,27,28
 345 41 345 41 367 20.5 c 128,-1,29
 389 0 389 0 429 0 c 2,30,-1
 520 0 l 1,0,-1
EndSplineSet
EndChar

StartChar: o
Encoding: 111 111 80
Width: 542
Flags: W
LayerCount: 2
Fore
SplineSet
240 -12 m 0,0,1
 356 -12 356 -12 433.5 82 c 128,-1,2
 511 176 511 176 511 318 c 0,3,4
 511 422 511 422 455 479.5 c 128,-1,5
 399 537 399 537 302 537 c 0,6,7
 184 537 184 537 107.5 443.5 c 128,-1,8
 31 350 31 350 31 207 c 0,9,10
 31 103 31 103 87 45.5 c 128,-1,11
 143 -12 143 -12 240 -12 c 0,0,1
245 101 m 0,12,13
 172 101 172 101 170 184 c 0,14,15
 170 201 170 201 173 212 c 0,16,17
 173 215 173 215 192 309 c 0,18,19
 215 424 215 424 297 424 c 0,20,21
 371 424 371 424 372 341 c 0,22,23
 372 324 372 324 369 313 c 0,24,25
 369 310 369 310 350 216 c 0,26,27
 328 101 328 101 245 101 c 0,12,13
EndSplineSet
EndChar

StartChar: p
Encoding: 112 112 81
Width: 583
Flags: W
LayerCount: 2
Fore
SplineSet
114 -200 m 1,0,-1
 172 91 l 1,1,-1
 177 91 l 1,2,3
 183 47 183 47 218 17.5 c 128,-1,4
 253 -12 253 -12 308 -12 c 0,5,6
 409 -12 409 -12 480.5 90 c 128,-1,7
 552 192 552 192 552 355 c 0,8,9
 552 433 552 433 519 485 c 128,-1,10
 486 537 486 537 412 537 c 0,11,12
 350 537 350 537 310.5 502 c 128,-1,13
 271 467 271 467 241 403 c 1,14,-1
 235 403 l 1,15,-1
 259 525 l 1,16,-1
 119 525 l 1,17,-1
 -26 -200 l 1,18,-1
 114 -200 l 1,0,-1
274 103 m 0,19,20
 230 103 230 103 207 126 c 0,21,22
 190 144 190 144 190 170 c 0,23,24
 190 180 190 180 208 270 c 0,25,26
 221 331 221 331 256 374 c 0,27,28
 293 422 293 422 343 422 c 0,29,30
 405 422 405 422 409 347 c 0,31,32
 409 335 409 335 407 319 c 0,33,34
 404 297 404 297 389 220 c 0,35,36
 366 103 366 103 274 103 c 0,19,20
EndSplineSet
EndChar

StartChar: q
Encoding: 113 113 82
Width: 583
Flags: W
LayerCount: 2
Fore
SplineSet
424 -200 m 1,0,-1
 569 525 l 1,1,-1
 429 525 l 1,2,-1
 411 434 l 1,3,-1
 406 434 l 1,4,5
 400 478 400 478 365 507.5 c 128,-1,6
 330 537 330 537 275 537 c 0,7,8
 175 537 175 537 103 435 c 128,-1,9
 31 333 31 333 31 170 c 0,10,11
 31 92 31 92 64.5 40 c 128,-1,12
 98 -12 98 -12 171 -12 c 0,13,14
 233 -12 233 -12 272.5 23 c 128,-1,15
 312 58 312 58 342 122 c 1,16,-1
 348 122 l 1,17,-1
 284 -200 l 1,18,-1
 424 -200 l 1,0,-1
240 103 m 0,19,20
 179 103 179 103 174 178 c 0,21,22
 174 190 174 190 176 207 c 0,23,24
 179 228 179 228 194 305 c 0,25,26
 218 422 218 422 309 422 c 0,27,28
 353 422 353 422 376 399 c 0,29,30
 393 381 393 381 393 355 c 0,31,32
 393 345 393 345 375 255 c 0,33,34
 362 194 362 194 327 151 c 0,35,36
 290 103 290 103 240 103 c 0,19,20
EndSplineSet
EndChar

StartChar: r
Encoding: 114 114 83
Width: 394
Flags: W
LayerCount: 2
Fore
SplineSet
154 0 m 1,0,-1
 209 276 l 2,1,2
 221 339 221 339 256.5 364 c 128,-1,3
 292 389 292 389 359 389 c 2,4,-1
 394 389 l 1,5,-1
 422 525 l 1,6,-1
 397 525 l 2,7,8
 342 525 342 525 297 481 c 0,9,10
 257 440 257 440 240 394 c 1,11,-1
 233 394 l 1,12,-1
 259 525 l 1,13,-1
 119 525 l 1,14,-1
 14 0 l 1,15,-1
 154 0 l 1,0,-1
EndSplineSet
EndChar

StartChar: s
Encoding: 115 115 84
Width: 504
Flags: W
LayerCount: 2
Fore
SplineSet
227 -12 m 0,0,1
 329 -12 329 -12 391 38 c 0,2,3
 445 81 445 81 451 143 c 2,4,-1
 452 163 l 1,5,6
 448 264 448 264 309 312 c 0,7,8
 281 321 281 321 252 332 c 0,9,10
 207 347 207 347 207 378 c 0,11,12
 207 422 207 422 275 422 c 0,13,14
 341 422 341 422 396 368 c 1,15,-1
 481 455 l 1,16,17
 442 494 442 494 396 515.5 c 128,-1,18
 350 537 350 537 267 537 c 0,19,20
 173 537 173 537 118 490.5 c 128,-1,21
 63 444 63 444 63 366 c 0,22,23
 66 261 66 261 209 213 c 2,24,-1
 263 195 l 2,25,26
 308 180 308 180 308 150 c 2,27,-1
 309 141 l 1,28,29
 299 103 299 103 232 103 c 0,30,31
 153 103 153 103 93 170 c 1,32,-1
 6 82 l 1,33,34
 90 -12 90 -12 227 -12 c 0,0,1
EndSplineSet
EndChar

StartChar: t
Encoding: 116 116 85
Width: 354
Flags: W
LayerCount: 2
Fore
SplineSet
270 0 m 1,0,-1
 292 112 l 1,1,-1
 196 112 l 1,2,-1
 256 413 l 1,3,-1
 362 413 l 1,4,-1
 385 525 l 1,5,-1
 279 525 l 1,6,-1
 307 667 l 1,7,-1
 177 667 l 1,8,-1
 159 578 l 2,9,10
 155 551 155 551 143.5 538 c 128,-1,11
 132 525 132 525 100 525 c 2,12,-1
 65 525 l 1,13,-1
 43 413 l 1,14,-1
 117 413 l 1,15,-1
 63 142 l 2,16,17
 59 116 59 116 59 99 c 0,18,19
 59 0 59 0 182 0 c 2,20,-1
 270 0 l 1,0,-1
EndSplineSet
EndChar

StartChar: u
Encoding: 117 117 86
Width: 582
Flags: W
LayerCount: 2
Fore
SplineSet
164 -12 m 256,0,1
 224 -12 224 -12 264 23.5 c 128,-1,2
 304 59 304 59 333 122 c 1,3,-1
 339 122 l 1,4,5
 338 115 338 115 336.5 109 c 128,-1,6
 335 103 335 103 334 94 c 128,-1,7
 333 85 333 85 333 77 c 0,8,9
 333 40 333 40 358 20 c 128,-1,10
 383 0 383 0 421 0 c 2,11,-1
 514 0 l 1,12,-1
 536 112 l 1,13,-1
 477 112 l 1,14,-1
 560 525 l 1,15,-1
 420 525 l 1,16,-1
 366 255 l 2,17,18
 354 197 354 197 318 153 c 0,19,20
 280 105 280 105 234 105 c 0,21,22
 185 105 185 105 185 160 c 0,23,24
 185 183 185 183 192 213 c 2,25,-1
 254 525 l 1,26,-1
 114 525 l 1,27,-1
 49 200 l 2,28,29
 40 165 40 165 40 124 c 0,30,31
 40 59 40 59 72 23.5 c 128,-1,32
 104 -12 104 -12 164 -12 c 256,0,1
EndSplineSet
EndChar

StartChar: v
Encoding: 118 118 87
Width: 512
Flags: W
LayerCount: 2
Fore
SplineSet
281 0 m 1,0,-1
 554 525 l 1,1,-1
 405 525 l 1,2,-1
 312 327 l 1,3,-1
 224 125 l 1,4,-1
 217 125 l 1,5,6
 210 226 210 226 202 326 c 128,-1,7
 194 426 194 426 185 525 c 1,8,-1
 46 525 l 1,9,-1
 111 0 l 1,10,-1
 281 0 l 1,0,-1
EndSplineSet
EndChar

StartChar: w
Encoding: 119 119 88
Width: 791
Flags: W
LayerCount: 2
Fore
SplineSet
583 0 m 1,0,-1
 823 525 l 1,1,-1
 685 525 l 1,2,-1
 595 309 l 1,3,-1
 533 150 l 1,4,-1
 527 150 l 1,5,6
 522 243 522 243 515.5 336.5 c 128,-1,7
 509 430 509 430 502 525 c 1,8,-1
 372 525 l 1,9,-1
 274 309 l 1,10,-1
 209 157 l 1,11,-1
 203 157 l 1,12,-1
 200 335 l 1,13,-1
 193 525 l 1,14,-1
 54 525 l 1,15,-1
 94 0 l 1,16,-1
 243 0 l 1,17,18
 323 174 323 174 402 349 c 1,19,-1
 408 349 l 1,20,21
 421 174 421 174 436 0 c 1,22,-1
 583 0 l 1,0,-1
EndSplineSet
EndChar

StartChar: x
Encoding: 120 120 89
Width: 518
Flags: W
LayerCount: 2
Fore
SplineSet
453 0 m 1,0,-1
 338 252 l 1,1,-1
 567 525 l 1,2,-1
 414 525 l 1,3,-1
 284 350 l 1,4,-1
 278 350 l 1,5,-1
 216 525 l 1,6,-1
 65 525 l 1,7,-1
 177 274 l 1,8,-1
 -51 0 l 1,9,-1
 102 0 l 1,10,-1
 232 172 l 1,11,-1
 238 172 l 1,12,-1
 302 0 l 1,13,-1
 453 0 l 1,0,-1
EndSplineSet
EndChar

StartChar: y
Encoding: 121 121 90
Width: 509
Flags: W
LayerCount: 2
Fore
SplineSet
49 -200 m 2,0,1
 123 -200 123 -200 164.5 -171.5 c 128,-1,2
 206 -143 206 -143 235 -85 c 2,3,-1
 557 525 l 1,4,-1
 408 525 l 1,5,-1
 314 327 l 1,6,-1
 226 131 l 1,7,-1
 220 131 l 1,8,9
 212 229 212 229 203 327.5 c 128,-1,10
 194 426 194 426 184 525 c 1,11,-1
 45 525 l 1,12,-1
 119 -30 l 1,13,-1
 91 -88 l 1,14,-1
 -6 -88 l 1,15,-1
 -29 -200 l 1,16,-1
 49 -200 l 2,0,1
EndSplineSet
EndChar

StartChar: z
Encoding: 122 122 91
Width: 492
Flags: W
LayerCount: 2
Fore
SplineSet
414 0 m 1,0,-1
 436 112 l 1,1,-1
 178 112 l 1,2,-1
 485 413 l 1,3,-1
 507 525 l 1,4,-1
 98 525 l 1,5,-1
 76 413 l 1,6,-1
 317 413 l 1,7,-1
 11 112 l 1,8,-1
 -11 0 l 1,9,-1
 414 0 l 1,0,-1
EndSplineSet
EndChar

StartChar: braceleft
Encoding: 123 123 92
Width: 361
Flags: W
LayerCount: 2
Fore
SplineSet
246 -138 m 1,0,-1
 267 -34 l 1,1,-1
 190 -34 l 1,2,3
 237 201 237 201 237 211 c 0,4,5
 237 251 237 251 214 276.5 c 128,-1,6
 191 302 191 302 156 309 c 1,7,-1
 156 313 l 1,8,9
 215 316 215 316 245 352.5 c 128,-1,10
 275 389 275 389 284 436 c 2,11,-1
 328 656 l 1,12,-1
 405 656 l 1,13,-1
 426 760 l 1,14,-1
 309 760 l 2,15,16
 267 760 267 760 238 735 c 128,-1,17
 209 710 209 710 199 661 c 2,18,-1
 158 456 l 2,19,20
 140 368 140 368 46 368 c 1,21,-1
 23 255 l 1,22,23
 100 255 100 255 100 181 c 0,24,25
 100 166 100 166 97 151 c 2,26,-1
 59 -39 l 2,27,28
 57 -49 57 -49 57 -63 c 0,29,30
 57 -99 57 -99 79.5 -118.5 c 128,-1,31
 102 -138 102 -138 138 -138 c 2,32,-1
 246 -138 l 1,0,-1
EndSplineSet
EndChar

StartChar: bar
Encoding: 124 124 93
Width: 395
Flags: W
LayerCount: 2
Fore
SplineSet
180 -138 m 1,0,-1
 360 760 l 1,1,-1
 234 760 l 1,2,-1
 54 -138 l 1,3,-1
 180 -138 l 1,0,-1
EndSplineSet
EndChar

StartChar: braceright
Encoding: 125 125 94
Width: 361
Flags: W
LayerCount: 2
Fore
SplineSet
70 -138 m 2,0,1
 112 -138 112 -138 141 -113 c 128,-1,2
 170 -88 170 -88 180 -39 c 2,3,-1
 221 166 l 2,4,5
 239 254 239 254 333 254 c 1,6,-1
 356 367 l 1,7,8
 280 367 280 367 279 441 c 0,9,10
 279 456 279 456 282 471 c 2,11,-1
 320 661 l 2,12,13
 322 672 322 672 322 685 c 0,14,15
 322 721 322 721 299.5 740.5 c 128,-1,16
 277 760 277 760 241 760 c 2,17,-1
 133 760 l 1,18,-1
 112 656 l 1,19,-1
 189 656 l 1,20,21
 142 421 142 421 142 411 c 0,22,23
 142 371 142 371 165 345.5 c 128,-1,24
 188 320 188 320 223 313 c 1,25,-1
 223 309 l 1,26,27
 164 304 164 304 133.5 267.5 c 128,-1,28
 103 231 103 231 95 186 c 2,29,-1
 51 -34 l 1,30,-1
 -26 -34 l 1,31,-1
 -47 -138 l 1,32,-1
 70 -138 l 2,0,1
EndSplineSet
EndChar

StartChar: asciitilde
Encoding: 126 126 95
Width: 600
Flags: W
LayerCount: 2
Fore
SplineSet
400 211 m 0,0,1
 491 211 491 211 541 269 c 1,2,-1
 504 356 l 1,3,4
 481 341 481 341 462.5 334 c 128,-1,5
 444 327 444 327 421 327 c 0,6,7
 391 327 391 327 367 336.5 c 128,-1,8
 343 346 343 346 317.5 361.5 c 128,-1,9
 292 377 292 377 267 388.5 c 128,-1,10
 242 400 242 400 200 400 c 0,11,12
 109 400 109 400 59 342 c 1,13,-1
 96 255 l 1,14,15
 119 270 119 270 137.5 277 c 128,-1,16
 156 284 156 284 179 284 c 0,17,18
 209 284 209 284 233 274 c 0,19,20
 253 266 253 266 289 245 c 0,21,22
 313 231 313 231 337.5 221 c 128,-1,23
 362 211 362 211 400 211 c 0,0,1
EndSplineSet
EndChar

StartChar: exclamdown
Encoding: 161 161 97
Width: 314
Flags: W
LayerCount: 2
Fore
SplineSet
147 -173 m 1,0,-1
 186 21 l 1,1,-1
 195 305 l 1,2,-1
 132 305 l 1,3,-1
 30 21 l 1,4,-1
 -9 -173 l 1,5,-1
 147 -173 l 1,0,-1
175 361 m 0,6,7
 262 361 262 361 276 437 c 2,8,-1
 282 467 l 1,9,-1
 282 479 l 2,10,11
 282 537 282 537 205 537 c 0,12,13
 118 537 118 537 104 461 c 2,14,-1
 103 455 l 2,15,16
 98 434 98 434 98 419 c 0,17,18
 98 361 98 361 175 361 c 0,6,7
EndSplineSet
EndChar

StartChar: cent
Encoding: 162 162 98
Width: 532
Flags: W
LayerCount: 2
Fore
SplineSet
270 -114 m 1,0,-1
 291 -8 l 1,1,2
 420 15 420 15 483 114 c 1,3,-1
 391 173 l 1,4,5
 357 124 357 124 303 103 c 1,6,-1
 365 412 l 1,7,8
 409 392 409 392 419 346 c 1,9,-1
 527 399 l 1,10,11
 501 492 501 492 396 521 c 1,12,-1
 418 630 l 1,13,-1
 308 630 l 1,14,-1
 287 525 l 1,15,16
 168 506 168 506 100.5 420.5 c 128,-1,17
 33 335 33 335 33 222 c 0,18,19
 33 131 33 131 73 73 c 128,-1,20
 113 15 113 15 182 -4 c 1,21,-1
 160 -114 l 1,22,-1
 270 -114 l 1,0,-1
213 106 m 1,23,24
 168 128 168 128 168 186 c 0,25,26
 168 198 168 198 171 213 c 2,27,-1
 189 303 l 2,28,29
 207 383 207 383 274 410 c 1,30,-1
 213 106 l 1,23,24
EndSplineSet
EndChar

StartChar: sterling
Encoding: 163 163 99
Width: 591
Flags: W
LayerCount: 2
Fore
SplineSet
503 0 m 1,0,-1
 528 125 l 1,1,-1
 203 125 l 1,2,-1
 205 134 l 1,3,4
 295 181 295 181 305 291 c 1,5,-1
 455 291 l 1,6,-1
 479 408 l 1,7,-1
 288 408 l 1,8,9
 285 426 285 426 285 447 c 0,10,11
 285 509 285 509 315 545.5 c 128,-1,12
 345 582 345 582 399 582 c 0,13,14
 440 582 440 582 466 566 c 128,-1,15
 492 550 492 550 512 514 c 1,16,-1
 627 590 l 1,17,18
 592 650 592 650 540.5 680 c 128,-1,19
 489 710 489 710 410 710 c 0,20,21
 289 710 289 710 215 636 c 128,-1,22
 141 562 141 562 141 455 c 0,23,24
 141 430 141 430 144 408 c 1,25,-1
 80 408 l 1,26,-1
 56 291 l 1,27,-1
 159 291 l 1,28,29
 159 238 159 238 132 196.5 c 128,-1,30
 105 155 105 155 57 134 c 1,31,-1
 30 0 l 1,32,-1
 503 0 l 1,0,-1
EndSplineSet
EndChar

StartChar: yen
Encoding: 165 165 100
Width: 626
Flags: W
LayerCount: 2
Fore
SplineSet
333 0 m 1,0,-1
 360 134 l 1,1,-1
 524 134 l 1,2,-1
 542 222 l 1,3,-1
 378 222 l 1,4,-1
 392 293 l 1,5,-1
 556 293 l 1,6,-1
 574 381 l 1,7,-1
 469 381 l 1,8,-1
 698 698 l 1,9,-1
 530 698 l 1,10,-1
 346 426 l 1,11,-1
 342 426 l 1,12,-1
 263 698 l 1,13,-1
 108 698 l 1,14,-1
 207 381 l 1,15,-1
 102 381 l 1,16,-1
 84 293 l 1,17,-1
 245 293 l 1,18,-1
 231 222 l 1,19,-1
 70 222 l 1,20,-1
 52 134 l 1,21,-1
 213 134 l 1,22,-1
 187 0 l 1,23,-1
 333 0 l 1,0,-1
EndSplineSet
EndChar

StartChar: brokenbar
Encoding: 166 166 101
Width: 395
Flags: W
LayerCount: 2
Fore
SplineSet
288 401 m 1,0,-1
 360 760 l 1,1,-1
 234 760 l 1,2,-1
 162 401 l 1,3,-1
 288 401 l 1,0,-1
180 -138 m 1,4,-1
 252 221 l 1,5,-1
 126 221 l 1,6,-1
 54 -138 l 1,7,-1
 180 -138 l 1,4,-1
EndSplineSet
EndChar

StartChar: section
Encoding: 167 167 102
Width: 557
Flags: W
LayerCount: 2
Fore
SplineSet
208 -161 m 0,0,1
 309 -161 309 -161 372 -105.5 c 128,-1,2
 435 -50 435 -50 435 38 c 0,3,4
 435 109 435 109 380 152 c 1,5,-1
 382 162 l 1,6,7
 450 184 450 184 480.5 225 c 128,-1,8
 511 266 511 266 511 318 c 0,9,10
 511 360 511 360 483.5 395.5 c 128,-1,11
 456 431 456 431 393 452 c 0,12,13
 359 463 359 463 324 473.5 c 128,-1,14
 289 484 289 484 271.5 498.5 c 128,-1,15
 254 513 254 513 254 539 c 0,16,17
 254 568 254 568 279.5 588 c 128,-1,18
 305 608 305 608 343 608 c 0,19,20
 428 608 428 608 469 553 c 1,21,-1
 551 633 l 1,22,23
 516 674 516 674 464.5 692 c 128,-1,24
 413 710 413 710 356 710 c 0,25,26
 256 710 256 710 192 656 c 0,27,28
 129 600 129 600 129 514 c 0,29,30
 129 447 129 447 184 402 c 1,31,-1
 182 392 l 1,32,33
 114 370 114 370 83.5 329 c 128,-1,34
 53 288 53 288 53 236 c 0,35,36
 53 194 53 194 81 159 c 128,-1,37
 109 124 109 124 171 103 c 0,38,39
 206 93 206 93 240.5 82 c 128,-1,40
 275 71 275 71 292.5 57 c 128,-1,41
 310 43 310 43 310 15 c 0,42,43
 310 -16 310 -16 284.5 -37.5 c 128,-1,44
 259 -59 259 -59 221 -59 c 0,45,46
 136 -59 136 -59 95 -4 c 1,47,-1
 13 -86 l 1,48,49
 47 -125 47 -125 99 -143 c 128,-1,50
 151 -161 151 -161 208 -161 c 0,0,1
340 175 m 1,51,52
 334 179 334 179 326 181.5 c 128,-1,53
 318 184 318 184 307 188 c 2,54,-1
 238 208 l 1,55,56
 174 231 174 231 174 284 c 0,57,58
 174 310 174 310 184.5 333.5 c 128,-1,59
 195 357 195 357 224 379 c 1,60,61
 234 372 234 372 326 346 c 1,62,63
 390 323 390 323 390 270 c 0,64,65
 390 244 390 244 379.5 220.5 c 128,-1,66
 369 197 369 197 340 175 c 1,51,52
EndSplineSet
EndChar

StartChar: dieresis
Encoding: 168 168 103
Width: 585
Flags: W
LayerCount: 2
Fore
SplineSet
207 600 m 0,0,1
 281 600 281 600 292 663 c 2,2,-1
 295 678 l 2,3,4
 298 693 298 693 298 703 c 0,5,6
 298 723 298 723 283 737 c 128,-1,7
 268 751 268 751 233 751 c 0,8,9
 159 751 159 751 148 688 c 0,10,11
 146 678 146 678 145 670.5 c 128,-1,12
 144 663 144 663 143 657.5 c 128,-1,13
 142 652 142 652 142 648 c 0,14,15
 142 628 142 628 157 614 c 128,-1,16
 172 600 172 600 207 600 c 0,0,1
407 600 m 0,17,18
 481 600 481 600 492 663 c 2,19,-1
 495 678 l 2,20,21
 498 693 498 693 498 703 c 0,22,23
 498 723 498 723 483 737 c 128,-1,24
 468 751 468 751 433 751 c 0,25,26
 359 751 359 751 348 688 c 0,27,28
 346 678 346 678 345 670.5 c 128,-1,29
 344 663 344 663 343 657.5 c 128,-1,30
 342 652 342 652 342 648 c 0,31,32
 342 628 342 628 357 614 c 128,-1,33
 372 600 372 600 407 600 c 0,17,18
EndSplineSet
EndChar

StartChar: copyright
Encoding: 169 169 104
Width: 771
Flags: W
LayerCount: 2
Fore
SplineSet
349 -12 m 0,0,1
 517 -12 517 -12 631 107 c 0,2,3
 684 164 684 164 713.5 239.5 c 128,-1,4
 743 315 743 315 743 405 c 0,5,6
 743 539 743 539 663 625 c 0,7,8
 582 710 582 710 452 710 c 0,9,10
 284 710 284 710 171 591 c 0,11,12
 118 534 118 534 88 458.5 c 128,-1,13
 58 383 58 383 58 293 c 0,14,15
 58 157 58 157 138.5 72.5 c 128,-1,16
 219 -12 219 -12 349 -12 c 0,0,1
353 51 m 0,17,18
 256 51 256 51 193 117 c 0,19,20
 130 181 130 181 130 293 c 0,21,22
 130 331 130 331 145 401 c 0,23,24
 167 506 167 506 251 575 c 0,25,26
 339 647 339 647 448 647 c 0,27,28
 546 647 546 647 609 582 c 0,29,30
 671 515 671 515 671 405 c 0,31,32
 671 368 671 368 656 297 c 0,33,34
 634 192 634 192 551 123 c 0,35,36
 463 51 463 51 353 51 c 0,17,18
382 134 m 0,37,38
 454 134 454 134 499.5 166.5 c 128,-1,39
 545 199 545 199 570 244 c 1,40,-1
 480 290 l 1,41,42
 445 234 445 234 398 234 c 0,43,44
 334 234 334 234 333 292 c 2,45,-1
 333 304 l 2,46,47
 333 307 333 307 350 394 c 0,48,49
 356 425 356 425 376 444 c 128,-1,50
 396 463 396 463 430 463 c 0,51,52
 484 463 484 463 496 406 c 1,53,-1
 595 450 l 1,54,55
 580 501 580 501 542 532.5 c 128,-1,56
 504 564 504 564 429 564 c 0,57,58
 381 564 381 564 340 543.5 c 128,-1,59
 299 523 299 523 269 488 c 0,60,61
 204 411 204 411 204 313 c 0,62,63
 204 231 204 231 253.5 182.5 c 128,-1,64
 303 134 303 134 382 134 c 0,37,38
EndSplineSet
EndChar

StartChar: ordfeminine
Encoding: 170 170 105
Width: 444
Flags: W
LayerCount: 2
Fore
SplineSet
182 332 m 0,0,1
 259 332 259 332 294 404 c 1,2,-1
 298 404 l 1,3,-1
 298 394 l 2,4,5
 298 342 298 342 358 340 c 2,6,-1
 417 340 l 1,7,-1
 432 414 l 1,8,-1
 393 414 l 1,9,-1
 425 575 l 2,10,11
 428 591 428 591 428 604 c 0,12,13
 428 657 428 657 387 683.5 c 128,-1,14
 346 710 346 710 283 710 c 0,15,16
 224 710 224 710 186.5 690 c 128,-1,17
 149 670 149 670 123 637 c 1,18,-1
 180 589 l 1,19,20
 198 610 198 610 217.5 622.5 c 128,-1,21
 237 635 237 635 268 635 c 0,22,23
 323 635 323 635 323 591 c 0,24,25
 323 582 323 582 322 578.5 c 128,-1,26
 321 575 321 575 316 550 c 1,27,-1
 251 550 l 2,28,29
 165 550 165 550 122 517 c 128,-1,30
 79 484 79 484 79 427 c 0,31,32
 79 380 79 380 109.5 356 c 128,-1,33
 140 332 140 332 182 332 c 0,0,1
226 399 m 0,34,35
 206 399 206 399 193 407 c 128,-1,36
 180 415 180 415 180 431 c 0,37,38
 180 444 180 444 182 452 c 0,39,40
 191 495 191 495 248 495 c 2,41,-1
 305 495 l 1,42,-1
 296 452 l 2,43,44
 290 426 290 426 271 412.5 c 128,-1,45
 252 399 252 399 226 399 c 0,34,35
EndSplineSet
EndChar

StartChar: guillemotleft
Encoding: 171 171 106
Width: 562
Flags: W
LayerCount: 2
Fore
SplineSet
190 49 m 1,0,-1
 247 132 l 1,1,-1
 153 263 l 1,2,-1
 304 401 l 1,3,-1
 263 494 l 1,4,-1
 60 337 l 1,5,-1
 34 209 l 1,6,-1
 190 49 l 1,0,-1
440 49 m 1,7,-1
 497 132 l 1,8,-1
 403 263 l 1,9,-1
 554 401 l 1,10,-1
 513 494 l 1,11,-1
 310 337 l 1,12,-1
 284 209 l 1,13,-1
 440 49 l 1,7,-1
EndSplineSet
EndChar

StartChar: logicalnot
Encoding: 172 172 107
Width: 600
Flags: W
LayerCount: 2
Fore
SplineSet
477 79 m 1,0,-1
 534 364 l 1,1,-1
 89 364 l 1,2,-1
 66 248 l 1,3,-1
 392 248 l 1,4,-1
 358 79 l 1,5,-1
 477 79 l 1,0,-1
EndSplineSet
EndChar

StartChar: sfthyphen
Encoding: 173 173 108
Width: 395
Flags: W
LayerCount: 2
Fore
SplineSet
340 238 m 1,0,-1
 367 372 l 1,1,-1
 72 372 l 1,2,-1
 45 238 l 1,3,-1
 340 238 l 1,0,-1
EndSplineSet
EndChar

StartChar: registered
Encoding: 174 174 109
Width: 453
Flags: W
LayerCount: 2
Fore
SplineSet
246 298 m 0,0,1
 341 298 341 298 409 364.5 c 128,-1,2
 477 431 477 431 477 537 c 0,3,4
 477 614 477 614 427.5 662 c 128,-1,5
 378 710 378 710 298 710 c 0,6,7
 204 710 204 710 136 644 c 0,8,9
 104 612 104 612 85.5 568 c 128,-1,10
 67 524 67 524 67 471 c 0,11,12
 67 395 67 395 116 347 c 0,13,14
 164 298 164 298 246 298 c 0,0,1
252 342 m 0,15,16
 193 342 193 342 155 374 c 128,-1,17
 117 406 117 406 117 466 c 2,18,-1
 118 481 l 1,19,-1
 119 487 l 2,20,21
 120 500 120 500 126 530 c 0,22,23
 140 594 140 594 187 630 c 128,-1,24
 234 666 234 666 292 666 c 0,25,26
 351 666 351 666 389 634 c 128,-1,27
 427 602 427 602 427 542 c 0,28,29
 427 535 427 535 425.5 521.5 c 128,-1,30
 424 508 424 508 418 478 c 0,31,32
 405 414 405 414 358 379 c 0,33,34
 308 342 308 342 252 342 c 0,15,16
349 400 m 1,35,-1
 321 473 l 1,36,37
 348 482 348 482 362 502 c 128,-1,38
 376 522 376 522 376 543 c 0,39,40
 376 609 376 609 299 609 c 2,41,-1
 210 609 l 1,42,-1
 168 400 l 1,43,-1
 230 400 l 1,44,-1
 242 463 l 1,45,-1
 261 463 l 1,46,-1
 285 400 l 1,47,-1
 349 400 l 1,35,-1
277 506 m 2,48,-1
 251 506 l 1,49,-1
 262 563 l 1,50,-1
 287 563 l 2,51,52
 312 563 312 563 312 544 c 0,53,54
 312 540 312 540 311 537 c 0,55,56
 311 506 311 506 277 506 c 2,48,-1
EndSplineSet
EndChar

StartChar: macron
Encoding: 175 175 110
Width: 585
Flags: W
LayerCount: 2
Fore
SplineSet
449 625 m 1,0,-1
 469 727 l 1,1,-1
 191 727 l 1,2,-1
 171 625 l 1,3,-1
 449 625 l 1,0,-1
EndSplineSet
EndChar

StartChar: degree
Encoding: 176 176 111
Width: 459
Flags: W
LayerCount: 2
Fore
SplineSet
263 334 m 0,0,1
 347 334 347 334 407.5 392.5 c 128,-1,2
 468 451 468 451 468 539 c 0,3,4
 468 611 468 611 421.5 660.5 c 128,-1,5
 375 710 375 710 301 710 c 0,6,7
 217 710 217 710 156.5 652 c 128,-1,8
 96 594 96 594 96 505 c 0,9,10
 96 433 96 433 143 383.5 c 128,-1,11
 190 334 190 334 263 334 c 0,0,1
273 426 m 0,12,13
 238 426 238 426 217.5 449 c 128,-1,14
 197 472 197 472 197 506 c 0,15,16
 197 553 197 553 223 585.5 c 128,-1,17
 249 618 249 618 291 618 c 0,18,19
 326 618 326 618 346.5 595 c 128,-1,20
 367 572 367 572 367 538 c 0,21,22
 367 491 367 491 341 458.5 c 128,-1,23
 315 426 315 426 273 426 c 0,12,13
EndSplineSet
EndChar

StartChar: plusminus
Encoding: 177 177 112
Width: 600
Flags: W
LayerCount: 2
Fore
SplineSet
346 184 m 1,0,-1
 379 351 l 1,1,-1
 548 351 l 1,2,-1
 571 467 l 1,3,-1
 402 467 l 1,4,-1
 435 634 l 1,5,-1
 310 634 l 1,6,-1
 277 467 l 1,7,-1
 108 467 l 1,8,-1
 85 351 l 1,9,-1
 254 351 l 1,10,-1
 221 184 l 1,11,-1
 346 184 l 1,0,-1
479 0 m 1,12,-1
 502 116 l 1,13,-1
 39 116 l 1,14,-1
 16 0 l 1,15,-1
 479 0 l 1,12,-1
EndSplineSet
EndChar

StartChar: twosuperior
Encoding: 178 178 113
Width: 340
Flags: W
LayerCount: 2
Fore
SplineSet
318 329 m 1,0,-1
 334 408 l 1,1,-1
 170 408 l 1,2,-1
 239 448 l 2,3,4
 302 483 302 483 334 516.5 c 128,-1,5
 366 550 366 550 366 598 c 0,6,7
 366 648 366 648 328 676 c 128,-1,8
 290 704 290 704 232 704 c 0,9,10
 125 704 125 704 81 607 c 1,11,-1
 163 576 l 1,12,13
 180 623 180 623 224 623 c 0,14,15
 241 623 241 623 252.5 614 c 128,-1,16
 264 605 264 605 264 588 c 0,17,18
 264 564 264 564 246 544 c 0,19,20
 231 528 231 528 194 505 c 2,21,-1
 54 414 l 1,22,-1
 37 329 l 1,23,-1
 318 329 l 1,0,-1
EndSplineSet
EndChar

StartChar: threesuperior
Encoding: 179 179 114
Width: 332
Flags: W
LayerCount: 2
Fore
SplineSet
171 323 m 0,0,1
 248 323 248 323 291 357.5 c 128,-1,2
 334 392 334 392 334 446 c 0,3,4
 334 506 334 506 270 520 c 1,5,-1
 270 522 l 1,6,7
 315 531 315 531 337.5 555.5 c 128,-1,8
 360 580 360 580 360 614 c 0,9,10
 360 655 360 655 326 679.5 c 128,-1,11
 292 704 292 704 229 704 c 0,12,13
 180 704 180 704 146.5 688.5 c 128,-1,14
 113 673 113 673 86 645 c 1,15,-1
 138 585 l 1,16,17
 175 628 175 628 215 628 c 0,18,19
 256 628 256 628 259 599 c 1,20,-1
 257 585 l 2,21,22
 255 574 255 574 240 565 c 128,-1,23
 225 556 225 556 195 556 c 2,24,-1
 159 556 l 1,25,-1
 144 479 l 1,26,-1
 184 479 l 2,27,28
 232 479 232 479 232 450 c 1,29,-1
 230 436 l 2,30,31
 226 417 226 417 209.5 408 c 128,-1,32
 193 399 193 399 172 399 c 0,33,34
 121 399 121 399 103 445 c 1,35,-1
 34 396 l 1,36,37
 63 323 63 323 171 323 c 0,0,1
EndSplineSet
EndChar

StartChar: acute
Encoding: 180 180 115
Width: 585
Flags: W
LayerCount: 2
Fore
SplineSet
321 579 m 1,0,-1
 468 755 l 1,1,-1
 356 815 l 1,2,-1
 237 625 l 1,3,-1
 321 579 l 1,0,-1
EndSplineSet
EndChar

StartChar: mu
Encoding: 181 181 116
Width: 587
Flags: W
LayerCount: 2
Fore
SplineSet
113 -200 m 1,0,-1
 131 -103 l 1,1,-1
 128 30 l 1,2,-1
 133 30 l 1,3,4
 140 12 140 12 153.5 0 c 128,-1,5
 167 -12 167 -12 197 -12 c 0,6,7
 245 -12 245 -12 278 24.5 c 128,-1,8
 311 61 311 61 337 122 c 1,9,-1
 343 122 l 1,10,11
 338 94 338 94 338 82 c 0,12,13
 338 45 338 45 361.5 22.5 c 128,-1,14
 385 0 385 0 423 0 c 2,15,-1
 520 0 l 1,16,-1
 542 112 l 1,17,-1
 483 112 l 1,18,-1
 565 525 l 1,19,-1
 426 525 l 1,20,-1
 368 240 l 2,21,22
 353 180 353 180 323 148 c 0,23,24
 287 105 287 105 242 105 c 0,25,26
 191 105 191 105 191 157 c 0,27,28
 191 179 191 179 196 208 c 2,29,-1
 259 525 l 1,30,-1
 119 525 l 1,31,-1
 -26 -200 l 1,32,-1
 113 -200 l 1,0,-1
EndSplineSet
EndChar

StartChar: paragraph
Encoding: 182 182 117
Width: 646
Flags: W
LayerCount: 2
Fore
SplineSet
443 -149 m 1,0,-1
 592 594 l 1,1,-1
 652 594 l 1,2,-1
 673 698 l 1,3,-1
 327 698 l 2,4,5
 211 698 211 698 137.5 624.5 c 128,-1,6
 64 551 64 551 64 453 c 0,7,8
 64 375 64 375 111 319 c 128,-1,9
 158 263 158 263 225 263 c 1,10,-1
 142 -149 l 1,11,-1
 245 -149 l 1,12,-1
 394 594 l 1,13,-1
 489 594 l 1,14,-1
 340 -149 l 1,15,-1
 443 -149 l 1,0,-1
EndSplineSet
EndChar

StartChar: periodcentered
Encoding: 183 183 118
Width: 350
Flags: W
LayerCount: 2
Fore
SplineSet
169 213 m 256,0,1
 211 213 211 213 235.5 233.5 c 128,-1,2
 260 254 260 254 266 287 c 2,3,-1
 272 318 l 1,4,-1
 273 333 l 2,5,6
 273 355 273 355 256 374 c 128,-1,7
 239 393 239 393 197 393 c 256,8,9
 155 393 155 393 130.5 373 c 128,-1,10
 106 353 106 353 100 319 c 2,11,-1
 98 310 l 2,12,13
 93 284 93 284 93 273 c 0,14,15
 93 251 93 251 110 232 c 128,-1,16
 127 213 127 213 169 213 c 256,0,1
EndSplineSet
EndChar

StartChar: cedilla
Encoding: 184 184 119
Width: 585
Flags: W
LayerCount: 2
Fore
SplineSet
269 -212 m 0,0,1
 329 -212 329 -212 371 -186 c 128,-1,2
 413 -160 413 -160 413 -108 c 0,3,4
 413 -82 413 -82 395 -67 c 128,-1,5
 377 -52 377 -52 351 -52 c 0,6,7
 330 -52 330 -52 308 -59 c 1,8,-1
 306 -55 l 1,9,-1
 340 30 l 1,10,-1
 274 30 l 1,11,-1
 230 -73 l 1,12,-1
 252 -75 l 2,13,14
 318 -82 318 -82 318 -111 c 0,15,16
 318 -142 318 -142 268 -142 c 0,17,18
 246 -142 246 -142 231 -133 c 128,-1,19
 216 -124 216 -124 210 -114 c 1,20,-1
 158 -166 l 1,21,22
 171 -185 171 -185 199 -198.5 c 128,-1,23
 227 -212 227 -212 269 -212 c 0,0,1
EndSplineSet
EndChar

StartChar: onesuperior
Encoding: 185 185 120
Width: 314
Flags: W
LayerCount: 2
Fore
SplineSet
244 329 m 1,0,-1
 148 329 l 1,1,-1
 204 608 l 1,2,-1
 116 567 l 1,3,-1
 134 659 l 1,4,-1
 217 698 l 1,5,-1
 318 698 l 1,6,-1
 244 329 l 1,0,-1
EndSplineSet
EndChar

StartChar: ordmasculine
Encoding: 186 186 121
Width: 427
Flags: W
LayerCount: 2
Fore
SplineSet
236 330 m 0,0,1
 331 330 331 330 390 396 c 0,2,3
 445 462 445 462 445 550 c 0,4,5
 445 626 445 626 403.5 668 c 128,-1,6
 362 710 362 710 294 710 c 0,7,8
 199 710 199 710 140 644 c 0,9,10
 85 580 85 580 85 491 c 0,11,12
 85 415 85 415 126.5 372.5 c 128,-1,13
 168 330 168 330 236 330 c 0,0,1
246 407 m 0,14,15
 220 407 220 407 203 422 c 128,-1,16
 186 437 186 437 186 465 c 0,17,18
 186 478 186 478 187 481.5 c 128,-1,19
 188 485 188 485 200 547 c 0,20,21
 220 633 220 633 284 633 c 0,22,23
 310 633 310 633 327 618.5 c 128,-1,24
 344 604 344 604 344 576 c 2,25,-1
 344 568 l 2,26,27
 344 565 344 565 330 494 c 0,28,29
 311 407 311 407 246 407 c 0,14,15
EndSplineSet
EndChar

StartChar: guillemotright
Encoding: 187 187 122
Width: 562
Flags: W
LayerCount: 2
Fore
SplineSet
302 50 m 1,0,-1
 505 207 l 1,1,-1
 531 335 l 1,2,-1
 375 495 l 1,3,-1
 318 412 l 1,4,-1
 412 281 l 1,5,-1
 261 143 l 1,6,-1
 302 50 l 1,0,-1
52 50 m 1,7,-1
 255 207 l 1,8,-1
 281 335 l 1,9,-1
 125 495 l 1,10,-1
 68 412 l 1,11,-1
 162 281 l 1,12,-1
 11 143 l 1,13,-1
 52 50 l 1,7,-1
EndSplineSet
EndChar

StartChar: onequarter
Encoding: 188 188 123
Width: 841
Flags: W
LayerCount: 2
Fore
SplineSet
141 0 m 1,0,-1
 798 698 l 1,1,-1
 684 698 l 1,2,-1
 27 0 l 1,3,-1
 141 0 l 1,0,-1
672 0 m 1,4,-1
 686 70 l 1,5,-1
 730 70 l 1,6,-1
 746 141 l 1,7,-1
 701 141 l 1,8,-1
 747 369 l 1,9,-1
 635 369 l 1,10,-1
 441 151 l 1,11,-1
 423 70 l 1,12,-1
 593 70 l 1,13,-1
 579 0 l 1,14,-1
 672 0 l 1,4,-1
608 141 m 1,15,-1
 519 141 l 1,16,-1
 625 258 l 1,17,-1
 632 258 l 1,18,-1
 608 141 l 1,15,-1
244 329 m 1,19,-1
 148 329 l 1,20,-1
 204 608 l 1,21,-1
 116 567 l 1,22,-1
 134 659 l 1,23,-1
 217 698 l 1,24,-1
 318 698 l 1,25,-1
 244 329 l 1,19,-1
EndSplineSet
EndChar

StartChar: onehalf
Encoding: 189 189 124
Width: 838
Flags: W
LayerCount: 2
Fore
SplineSet
141 0 m 1,0,-1
 798 698 l 1,1,-1
 684 698 l 1,2,-1
 27 0 l 1,3,-1
 141 0 l 1,0,-1
744 0 m 1,4,-1
 760 79 l 1,5,-1
 596 79 l 1,6,-1
 665 119 l 2,7,8
 728 154 728 154 760 187.5 c 128,-1,9
 792 221 792 221 792 269 c 0,10,11
 792 319 792 319 754 347 c 128,-1,12
 716 375 716 375 658 375 c 0,13,14
 551 375 551 375 507 278 c 1,15,-1
 589 247 l 1,16,17
 606 294 606 294 650 294 c 0,18,19
 667 294 667 294 678.5 285 c 128,-1,20
 690 276 690 276 690 259 c 0,21,22
 690 235 690 235 672 215 c 0,23,24
 657 199 657 199 620 176 c 2,25,-1
 480 85 l 1,26,-1
 463 0 l 1,27,-1
 744 0 l 1,4,-1
244 329 m 1,28,-1
 148 329 l 1,29,-1
 204 608 l 1,30,-1
 116 567 l 1,31,-1
 134 659 l 1,32,-1
 217 698 l 1,33,-1
 318 698 l 1,34,-1
 244 329 l 1,28,-1
EndSplineSet
EndChar

StartChar: threequarters
Encoding: 190 190 125
Width: 869
Flags: W
LayerCount: 2
Fore
SplineSet
171 323 m 0,0,1
 248 323 248 323 291 357.5 c 128,-1,2
 334 392 334 392 334 446 c 0,3,4
 334 506 334 506 270 520 c 1,5,-1
 270 522 l 1,6,7
 315 531 315 531 337.5 555.5 c 128,-1,8
 360 580 360 580 360 614 c 0,9,10
 360 655 360 655 326 679.5 c 128,-1,11
 292 704 292 704 229 704 c 0,12,13
 180 704 180 704 146.5 688.5 c 128,-1,14
 113 673 113 673 86 645 c 1,15,-1
 138 585 l 1,16,17
 175 628 175 628 215 628 c 0,18,19
 256 628 256 628 259 599 c 1,20,-1
 257 585 l 2,21,22
 255 574 255 574 240 565 c 128,-1,23
 225 556 225 556 195 556 c 2,24,-1
 159 556 l 1,25,-1
 144 479 l 1,26,-1
 184 479 l 2,27,28
 232 479 232 479 232 450 c 1,29,-1
 230 436 l 2,30,31
 226 417 226 417 209.5 408 c 128,-1,32
 193 399 193 399 172 399 c 0,33,34
 121 399 121 399 103 445 c 1,35,-1
 34 396 l 1,36,37
 63 323 63 323 171 323 c 0,0,1
169 0 m 1,38,-1
 826 698 l 1,39,-1
 712 698 l 1,40,-1
 55 0 l 1,41,-1
 169 0 l 1,38,-1
700 0 m 1,42,-1
 714 70 l 1,43,-1
 758 70 l 1,44,-1
 774 141 l 1,45,-1
 729 141 l 1,46,-1
 775 369 l 1,47,-1
 663 369 l 1,48,-1
 469 151 l 1,49,-1
 451 70 l 1,50,-1
 621 70 l 1,51,-1
 607 0 l 1,52,-1
 700 0 l 1,42,-1
636 141 m 1,53,-1
 547 141 l 1,54,-1
 653 258 l 1,55,-1
 660 258 l 1,56,-1
 636 141 l 1,53,-1
EndSplineSet
EndChar

StartChar: questiondown
Encoding: 191 191 126
Width: 490
Flags: W
LayerCount: 2
Fore
SplineSet
185 -185 m 0,0,1
 357 -185 357 -185 430 -25 c 1,2,-1
 316 26 l 1,3,4
 300 -14 300 -14 272.5 -38.5 c 128,-1,5
 245 -63 245 -63 205 -63 c 0,6,7
 175 -63 175 -63 153 -47.5 c 128,-1,8
 131 -32 131 -32 131 1 c 0,9,10
 131 21 131 21 136 37 c 0,11,12
 155 124 155 124 313 139 c 1,13,-1
 345 292 l 1,14,-1
 208 292 l 1,15,-1
 191 216 l 1,16,17
 100 196 100 196 41 131.5 c 128,-1,18
 -18 67 -18 67 -18 -17 c 0,19,20
 -18 -94 -18 -94 35.5 -139.5 c 128,-1,21
 89 -185 89 -185 185 -185 c 0,0,1
288 361 m 0,22,23
 375 361 375 361 389 437 c 2,24,-1
 395 467 l 1,25,-1
 395 479 l 2,26,27
 395 537 395 537 318 537 c 0,28,29
 231 537 231 537 217 461 c 2,30,-1
 216 455 l 2,31,32
 211 434 211 434 211 419 c 0,33,34
 211 361 211 361 288 361 c 0,22,23
EndSplineSet
EndChar

StartChar: Agrave
Encoding: 192 192 127
Width: 658
Flags: W
LayerCount: 2
Fore
SplineSet
588 0 m 1,0,-1
 509 698 l 1,1,-1
 324 698 l 1,2,-1
 -35 0 l 1,3,-1
 120 0 l 1,4,-1
 202 170 l 1,5,-1
 425 170 l 1,6,-1
 441 0 l 1,7,-1
 588 0 l 1,0,-1
415 291 m 1,8,-1
 259 291 l 1,9,-1
 386 567 l 1,10,-1
 394 567 l 1,11,-1
 415 291 l 1,8,-1
397 740 m 1,12,-1
 486 779 l 1,13,-1
 418 975 l 1,14,-1
 292 916 l 1,15,-1
 397 740 l 1,12,-1
EndSplineSet
EndChar

StartChar: Aacute
Encoding: 193 193 128
Width: 658
Flags: W
LayerCount: 2
Fore
SplineSet
588 0 m 1,0,-1
 509 698 l 1,1,-1
 324 698 l 1,2,-1
 -35 0 l 1,3,-1
 120 0 l 1,4,-1
 202 170 l 1,5,-1
 425 170 l 1,6,-1
 441 0 l 1,7,-1
 588 0 l 1,0,-1
415 291 m 1,8,-1
 259 291 l 1,9,-1
 386 567 l 1,10,-1
 394 567 l 1,11,-1
 415 291 l 1,8,-1
439 739 m 1,12,-1
 586 915 l 1,13,-1
 474 975 l 1,14,-1
 355 785 l 1,15,-1
 439 739 l 1,12,-1
EndSplineSet
EndChar

StartChar: Acircumflex
Encoding: 194 194 129
Width: 658
Flags: W
LayerCount: 2
Fore
SplineSet
588 0 m 1,0,-1
 509 698 l 1,1,-1
 324 698 l 1,2,-1
 -35 0 l 1,3,-1
 120 0 l 1,4,-1
 202 170 l 1,5,-1
 425 170 l 1,6,-1
 441 0 l 1,7,-1
 588 0 l 1,0,-1
415 291 m 1,8,-1
 259 291 l 1,9,-1
 386 567 l 1,10,-1
 394 567 l 1,11,-1
 415 291 l 1,8,-1
539 739 m 1,12,-1
 614 796 l 1,13,-1
 514 954 l 1,14,-1
 392 954 l 1,15,-1
 236 796 l 1,16,-1
 306 739 l 1,17,-1
 440 854 l 1,18,-1
 539 739 l 1,12,-1
EndSplineSet
EndChar

StartChar: Atilde
Encoding: 195 195 130
Width: 658
Flags: W
LayerCount: 2
Fore
SplineSet
588 0 m 1,0,-1
 509 698 l 1,1,-1
 324 698 l 1,2,-1
 -35 0 l 1,3,-1
 120 0 l 1,4,-1
 202 170 l 1,5,-1
 425 170 l 1,6,-1
 441 0 l 1,7,-1
 588 0 l 1,0,-1
415 291 m 1,8,-1
 259 291 l 1,9,-1
 386 567 l 1,10,-1
 394 567 l 1,11,-1
 415 291 l 1,8,-1
505 761 m 0,12,13
 571 761 571 761 620 823 c 1,14,-1
 577 892 l 1,15,16
 560 879 560 879 548 873 c 128,-1,17
 536 867 536 867 519 867 c 0,18,19
 499 867 499 867 483 873 c 128,-1,20
 467 879 467 879 447.5 888.5 c 128,-1,21
 428 898 428 898 410.5 904 c 128,-1,22
 393 910 393 910 371 910 c 0,23,24
 305 910 305 910 256 848 c 1,25,-1
 299 779 l 1,26,27
 316 792 316 792 328 798 c 128,-1,28
 340 804 340 804 357 804 c 0,29,30
 377 804 377 804 393 798 c 128,-1,31
 409 792 409 792 428.5 782.5 c 128,-1,32
 448 773 448 773 465.5 767 c 128,-1,33
 483 761 483 761 505 761 c 0,12,13
EndSplineSet
EndChar

StartChar: Adieresis
Encoding: 196 196 131
Width: 658
Flags: W
LayerCount: 2
Fore
SplineSet
588 0 m 1,0,-1
 509 698 l 1,1,-1
 324 698 l 1,2,-1
 -35 0 l 1,3,-1
 120 0 l 1,4,-1
 202 170 l 1,5,-1
 425 170 l 1,6,-1
 441 0 l 1,7,-1
 588 0 l 1,0,-1
415 291 m 1,8,-1
 259 291 l 1,9,-1
 386 567 l 1,10,-1
 394 567 l 1,11,-1
 415 291 l 1,8,-1
325 760 m 0,12,13
 399 760 399 760 410 823 c 0,14,15
 412 837 412 837 414 845.5 c 128,-1,16
 416 854 416 854 416 862 c 0,17,18
 416 882 416 882 401 896.5 c 128,-1,19
 386 911 386 911 351 911 c 0,20,21
 277 911 277 911 266 848 c 2,22,-1
 262 822 l 2,23,24
 260 814 260 814 260 809 c 0,25,26
 260 789 260 789 275 774.5 c 128,-1,27
 290 760 290 760 325 760 c 0,12,13
525 760 m 0,28,29
 599 760 599 760 610 823 c 0,30,31
 612 837 612 837 614 845.5 c 128,-1,32
 616 854 616 854 616 862 c 0,33,34
 616 882 616 882 601 896.5 c 128,-1,35
 586 911 586 911 551 911 c 0,36,37
 477 911 477 911 466 848 c 2,38,-1
 462 822 l 2,39,40
 460 814 460 814 460 809 c 0,41,42
 460 789 460 789 475 774.5 c 128,-1,43
 490 760 490 760 525 760 c 0,28,29
EndSplineSet
EndChar

StartChar: Aring
Encoding: 197 197 132
Width: 658
Flags: W
LayerCount: 2
Fore
SplineSet
588 0 m 1,0,-1
 509 698 l 1,1,-1
 324 698 l 1,2,-1
 -35 0 l 1,3,-1
 120 0 l 1,4,-1
 202 170 l 1,5,-1
 425 170 l 1,6,-1
 441 0 l 1,7,-1
 588 0 l 1,0,-1
415 291 m 1,8,-1
 259 291 l 1,9,-1
 386 567 l 1,10,-1
 394 567 l 1,11,-1
 415 291 l 1,8,-1
416 719 m 0,12,13
 482 719 482 719 531.5 763 c 128,-1,14
 581 807 581 807 581 883 c 0,15,16
 581 936 581 936 545 970.5 c 128,-1,17
 509 1005 509 1005 453 1005 c 0,18,19
 387 1005 387 1005 337.5 960 c 128,-1,20
 288 915 288 915 288 841 c 0,21,22
 288 788 288 788 324 753.5 c 128,-1,23
 360 719 360 719 416 719 c 0,12,13
422 793 m 0,24,25
 382 793 382 793 381 832 c 0,26,27
 381 845 381 845 389 879 c 0,28,29
 401 931 401 931 447 931 c 0,30,31
 488 931 488 931 488 892 c 0,32,33
 488 879 488 879 480 845 c 0,34,35
 469 793 469 793 422 793 c 0,24,25
EndSplineSet
EndChar

StartChar: AE
Encoding: 198 198 133
Width: 920
Flags: W
LayerCount: 2
Fore
SplineSet
823 0 m 1,0,-1
 849 128 l 1,1,-1
 535 128 l 1,2,-1
 567 289 l 1,3,-1
 835 289 l 1,4,-1
 861 417 l 1,5,-1
 593 417 l 1,6,-1
 624 570 l 1,7,-1
 927 570 l 1,8,-1
 953 698 l 1,9,-1
 388 698 l 1,10,-1
 -56 0 l 1,11,-1
 100 0 l 1,12,-1
 201 169 l 1,13,-1
 398 169 l 1,14,-1
 364 0 l 1,15,-1
 823 0 l 1,0,-1
422 291 m 1,16,-1
 278 291 l 1,17,-1
 449 570 l 1,18,-1
 478 570 l 1,19,-1
 422 291 l 1,16,-1
EndSplineSet
EndChar

StartChar: Ccedilla
Encoding: 199 199 134
Width: 635
Flags: W
LayerCount: 2
Fore
SplineSet
267 -212 m 0,0,1
 327 -212 327 -212 369 -186 c 128,-1,2
 411 -160 411 -160 411 -108 c 0,3,4
 411 -82 411 -82 393 -67 c 128,-1,5
 375 -52 375 -52 349 -52 c 0,6,7
 328 -52 328 -52 306 -59 c 1,8,-1
 304 -55 l 1,9,-1
 321 -12 l 1,10,11
 499 -8 499 -8 593 166 c 1,12,-1
 472 221 l 1,13,14
 449 174 449 174 413.5 145.5 c 128,-1,15
 378 117 378 117 320 117 c 0,16,17
 205 117 205 117 204 246 c 0,18,19
 204 266 204 266 209 296 c 2,20,-1
 231 406 l 2,21,22
 247 485 247 485 290.5 533 c 128,-1,23
 334 581 334 581 404 581 c 0,24,25
 460 581 460 581 485.5 553.5 c 128,-1,26
 511 526 511 526 522 486 c 1,27,-1
 651 540 l 1,28,29
 626 622 626 622 568 666 c 128,-1,30
 510 710 510 710 416 710 c 0,31,32
 340 710 340 710 274.5 676.5 c 128,-1,33
 209 643 209 643 161 583 c 0,34,35
 57 457 57 457 57 272 c 0,36,37
 57 147 57 147 111 77 c 128,-1,38
 165 7 165 7 256 -8 c 1,39,-1
 228 -73 l 1,40,-1
 250 -75 l 2,41,42
 316 -82 316 -82 316 -111 c 0,43,44
 316 -142 316 -142 266 -142 c 0,45,46
 244 -142 244 -142 229 -133 c 128,-1,47
 214 -124 214 -124 208 -114 c 1,48,-1
 156 -166 l 1,49,50
 169 -185 169 -185 197 -198.5 c 128,-1,51
 225 -212 225 -212 267 -212 c 0,0,1
EndSplineSet
EndChar

StartChar: Egrave
Encoding: 200 200 135
Width: 578
Flags: W
LayerCount: 2
Fore
SplineSet
481 0 m 1,0,-1
 507 128 l 1,1,-1
 193 128 l 1,2,-1
 225 289 l 1,3,-1
 493 289 l 1,4,-1
 519 417 l 1,5,-1
 251 417 l 1,6,-1
 282 570 l 1,7,-1
 585 570 l 1,8,-1
 611 698 l 1,9,-1
 162 698 l 1,10,-1
 22 0 l 1,11,-1
 481 0 l 1,0,-1
372 740 m 1,12,-1
 461 779 l 1,13,-1
 393 975 l 1,14,-1
 267 916 l 1,15,-1
 372 740 l 1,12,-1
EndSplineSet
EndChar

StartChar: Eacute
Encoding: 201 201 136
Width: 578
Flags: W
LayerCount: 2
Fore
SplineSet
481 0 m 1,0,-1
 507 128 l 1,1,-1
 193 128 l 1,2,-1
 225 289 l 1,3,-1
 493 289 l 1,4,-1
 519 417 l 1,5,-1
 251 417 l 1,6,-1
 282 570 l 1,7,-1
 585 570 l 1,8,-1
 611 698 l 1,9,-1
 162 698 l 1,10,-1
 22 0 l 1,11,-1
 481 0 l 1,0,-1
414 739 m 1,12,-1
 561 915 l 1,13,-1
 449 975 l 1,14,-1
 330 785 l 1,15,-1
 414 739 l 1,12,-1
EndSplineSet
EndChar

StartChar: Ecircumflex
Encoding: 202 202 137
Width: 578
Flags: W
LayerCount: 2
Fore
SplineSet
481 0 m 1,0,-1
 507 128 l 1,1,-1
 193 128 l 1,2,-1
 225 289 l 1,3,-1
 493 289 l 1,4,-1
 519 417 l 1,5,-1
 251 417 l 1,6,-1
 282 570 l 1,7,-1
 585 570 l 1,8,-1
 611 698 l 1,9,-1
 162 698 l 1,10,-1
 22 0 l 1,11,-1
 481 0 l 1,0,-1
514 739 m 1,12,-1
 589 796 l 1,13,-1
 489 954 l 1,14,-1
 367 954 l 1,15,-1
 211 796 l 1,16,-1
 281 739 l 1,17,-1
 415 854 l 1,18,-1
 514 739 l 1,12,-1
EndSplineSet
EndChar

StartChar: Edieresis
Encoding: 203 203 138
Width: 578
Flags: W
LayerCount: 2
Fore
SplineSet
481 0 m 1,0,-1
 507 128 l 1,1,-1
 193 128 l 1,2,-1
 225 289 l 1,3,-1
 493 289 l 1,4,-1
 519 417 l 1,5,-1
 251 417 l 1,6,-1
 282 570 l 1,7,-1
 585 570 l 1,8,-1
 611 698 l 1,9,-1
 162 698 l 1,10,-1
 22 0 l 1,11,-1
 481 0 l 1,0,-1
300 760 m 0,12,13
 374 760 374 760 385 823 c 0,14,15
 387 837 387 837 389 845.5 c 128,-1,16
 391 854 391 854 391 862 c 0,17,18
 391 882 391 882 376 896.5 c 128,-1,19
 361 911 361 911 326 911 c 0,20,21
 252 911 252 911 241 848 c 2,22,-1
 237 822 l 2,23,24
 235 814 235 814 235 809 c 0,25,26
 235 789 235 789 250 774.5 c 128,-1,27
 265 760 265 760 300 760 c 0,12,13
500 760 m 0,28,29
 574 760 574 760 585 823 c 0,30,31
 587 837 587 837 589 845.5 c 128,-1,32
 591 854 591 854 591 862 c 0,33,34
 591 882 591 882 576 896.5 c 128,-1,35
 561 911 561 911 526 911 c 0,36,37
 452 911 452 911 441 848 c 2,38,-1
 437 822 l 2,39,40
 435 814 435 814 435 809 c 0,41,42
 435 789 435 789 450 774.5 c 128,-1,43
 465 760 465 760 500 760 c 0,28,29
EndSplineSet
EndChar

StartChar: Igrave
Encoding: 204 204 139
Width: 295
Flags: W
LayerCount: 2
Fore
SplineSet
221 740 m 1,0,-1
 310 779 l 1,1,-1
 242 975 l 1,2,-1
 116 916 l 1,3,-1
 221 740 l 1,0,-1
167 0 m 1,4,-1
 22 0 l 1,5,-1
 163 698 l 1,6,-1
 308 698 l 1,7,-1
 167 0 l 1,4,-1
EndSplineSet
EndChar

StartChar: Iacute
Encoding: 205 205 140
Width: 295
Flags: W
LayerCount: 2
Fore
SplineSet
263 739 m 1,0,-1
 410 915 l 1,1,-1
 298 975 l 1,2,-1
 179 785 l 1,3,-1
 263 739 l 1,0,-1
167 0 m 1,4,-1
 22 0 l 1,5,-1
 163 698 l 1,6,-1
 308 698 l 1,7,-1
 167 0 l 1,4,-1
EndSplineSet
EndChar

StartChar: Icircumflex
Encoding: 206 206 141
Width: 295
Flags: W
LayerCount: 2
Fore
SplineSet
363 739 m 1,0,-1
 438 796 l 1,1,-1
 338 954 l 1,2,-1
 216 954 l 1,3,-1
 60 796 l 1,4,-1
 130 739 l 1,5,-1
 264 854 l 1,6,-1
 363 739 l 1,0,-1
167 0 m 1,7,-1
 22 0 l 1,8,-1
 163 698 l 1,9,-1
 308 698 l 1,10,-1
 167 0 l 1,7,-1
EndSplineSet
EndChar

StartChar: Idieresis
Encoding: 207 207 142
Width: 295
Flags: W
LayerCount: 2
Fore
SplineSet
149 760 m 0,0,1
 223 760 223 760 234 823 c 0,2,3
 236 837 236 837 238 845.5 c 128,-1,4
 240 854 240 854 240 862 c 0,5,6
 240 882 240 882 225 896.5 c 128,-1,7
 210 911 210 911 175 911 c 0,8,9
 101 911 101 911 90 848 c 2,10,-1
 86 822 l 2,11,12
 84 814 84 814 84 809 c 0,13,14
 84 789 84 789 99 774.5 c 128,-1,15
 114 760 114 760 149 760 c 0,0,1
349 760 m 0,16,17
 423 760 423 760 434 823 c 0,18,19
 436 837 436 837 438 845.5 c 128,-1,20
 440 854 440 854 440 862 c 0,21,22
 440 882 440 882 425 896.5 c 128,-1,23
 410 911 410 911 375 911 c 0,24,25
 301 911 301 911 290 848 c 2,26,-1
 286 822 l 2,27,28
 284 814 284 814 284 809 c 0,29,30
 284 789 284 789 299 774.5 c 128,-1,31
 314 760 314 760 349 760 c 0,16,17
167 0 m 1,32,-1
 22 0 l 1,33,-1
 163 698 l 1,34,-1
 308 698 l 1,35,-1
 167 0 l 1,32,-1
EndSplineSet
EndChar

StartChar: Eth
Encoding: 208 208 143
Width: 687
Flags: W
LayerCount: 2
Fore
SplineSet
293 0 m 2,0,1
 381 0 381 0 449.5 33.5 c 128,-1,2
 518 67 518 67 565 126 c 0,3,4
 659 251 659 251 659 437 c 0,5,6
 659 566 659 566 587.5 632 c 128,-1,7
 516 698 516 698 391 698 c 2,8,-1
 167 698 l 1,9,-1
 109 410 l 1,10,-1
 33 410 l 1,11,-1
 10 298 l 1,12,-1
 88 298 l 1,13,-1
 27 0 l 1,14,-1
 293 0 l 2,0,1
305 128 m 2,15,-1
 198 128 l 1,16,-1
 231 298 l 1,17,-1
 344 298 l 1,18,-1
 367 410 l 1,19,-1
 254 410 l 1,20,-1
 286 570 l 1,21,-1
 400 570 l 2,22,23
 512 570 512 570 512 452 c 0,24,25
 512 443 512 443 510.5 425.5 c 128,-1,26
 509 408 509 408 486 296 c 0,27,28
 468 211 468 211 421 169.5 c 128,-1,29
 374 128 374 128 305 128 c 2,15,-1
EndSplineSet
EndChar

StartChar: Ntilde
Encoding: 209 209 144
Width: 700
Flags: W
LayerCount: 2
Fore
SplineSet
572 0 m 1,0,-1
 712 698 l 1,1,-1
 575 698 l 1,2,-1
 480 223 l 1,3,-1
 474 223 l 1,4,-1
 432 362 l 1,5,-1
 319 698 l 1,6,-1
 162 698 l 1,7,-1
 22 0 l 1,8,-1
 159 0 l 1,9,-1
 254 475 l 1,10,-1
 260 475 l 1,11,-1
 302 336 l 1,12,-1
 415 0 l 1,13,-1
 572 0 l 1,0,-1
530 761 m 0,14,15
 596 761 596 761 645 823 c 1,16,-1
 602 892 l 1,17,18
 585 879 585 879 573 873 c 128,-1,19
 561 867 561 867 544 867 c 0,20,21
 524 867 524 867 508 873 c 128,-1,22
 492 879 492 879 472.5 888.5 c 128,-1,23
 453 898 453 898 435.5 904 c 128,-1,24
 418 910 418 910 396 910 c 0,25,26
 330 910 330 910 281 848 c 1,27,-1
 324 779 l 1,28,29
 341 792 341 792 353 798 c 128,-1,30
 365 804 365 804 382 804 c 0,31,32
 402 804 402 804 418 798 c 128,-1,33
 434 792 434 792 453.5 782.5 c 128,-1,34
 473 773 473 773 490.5 767 c 128,-1,35
 508 761 508 761 530 761 c 0,14,15
EndSplineSet
EndChar

StartChar: Ograve
Encoding: 210 210 145
Width: 695
Flags: W
LayerCount: 2
Fore
SplineSet
308 -12 m 0,0,1
 386 -12 386 -12 452 22 c 128,-1,2
 518 56 518 56 566 117 c 0,3,4
 668 247 668 247 668 427 c 0,5,6
 668 569 668 569 593 643 c 0,7,8
 525 710 525 710 417 710 c 0,9,10
 339 710 339 710 273 676 c 128,-1,11
 207 642 207 642 159 581 c 0,12,13
 57 451 57 451 57 271 c 0,14,15
 57 131 57 131 133 56 c 0,16,17
 202 -12 202 -12 308 -12 c 0,0,1
318 117 m 0,18,19
 204 117 204 117 204 245 c 0,20,21
 204 268 204 268 209 297 c 2,22,-1
 230 402 l 2,23,24
 247 487 247 487 292 534 c 128,-1,25
 337 581 337 581 407 581 c 0,26,27
 521 581 521 581 521 453 c 0,28,29
 521 431 521 431 516 401 c 2,30,-1
 495 296 l 2,31,32
 478 211 478 211 433 164 c 128,-1,33
 388 117 388 117 318 117 c 0,18,19
425 740 m 1,34,-1
 514 779 l 1,35,-1
 446 975 l 1,36,-1
 320 916 l 1,37,-1
 425 740 l 1,34,-1
EndSplineSet
EndChar

StartChar: Oacute
Encoding: 211 211 146
Width: 695
Flags: W
LayerCount: 2
Fore
SplineSet
308 -12 m 0,0,1
 386 -12 386 -12 452 22 c 128,-1,2
 518 56 518 56 566 117 c 0,3,4
 668 247 668 247 668 427 c 0,5,6
 668 569 668 569 593 643 c 0,7,8
 525 710 525 710 417 710 c 0,9,10
 339 710 339 710 273 676 c 128,-1,11
 207 642 207 642 159 581 c 0,12,13
 57 451 57 451 57 271 c 0,14,15
 57 131 57 131 133 56 c 0,16,17
 202 -12 202 -12 308 -12 c 0,0,1
318 117 m 0,18,19
 204 117 204 117 204 245 c 0,20,21
 204 268 204 268 209 297 c 2,22,-1
 230 402 l 2,23,24
 247 487 247 487 292 534 c 128,-1,25
 337 581 337 581 407 581 c 0,26,27
 521 581 521 581 521 453 c 0,28,29
 521 431 521 431 516 401 c 2,30,-1
 495 296 l 2,31,32
 478 211 478 211 433 164 c 128,-1,33
 388 117 388 117 318 117 c 0,18,19
467 739 m 1,34,-1
 614 915 l 1,35,-1
 502 975 l 1,36,-1
 383 785 l 1,37,-1
 467 739 l 1,34,-1
EndSplineSet
EndChar

StartChar: Ocircumflex
Encoding: 212 212 147
Width: 695
Flags: W
LayerCount: 2
Fore
SplineSet
308 -12 m 0,0,1
 386 -12 386 -12 452 22 c 128,-1,2
 518 56 518 56 566 117 c 0,3,4
 668 247 668 247 668 427 c 0,5,6
 668 569 668 569 593 643 c 0,7,8
 525 710 525 710 417 710 c 0,9,10
 339 710 339 710 273 676 c 128,-1,11
 207 642 207 642 159 581 c 0,12,13
 57 451 57 451 57 271 c 0,14,15
 57 131 57 131 133 56 c 0,16,17
 202 -12 202 -12 308 -12 c 0,0,1
318 117 m 0,18,19
 204 117 204 117 204 245 c 0,20,21
 204 268 204 268 209 297 c 2,22,-1
 230 402 l 2,23,24
 247 487 247 487 292 534 c 128,-1,25
 337 581 337 581 407 581 c 0,26,27
 521 581 521 581 521 453 c 0,28,29
 521 431 521 431 516 401 c 2,30,-1
 495 296 l 2,31,32
 478 211 478 211 433 164 c 128,-1,33
 388 117 388 117 318 117 c 0,18,19
567 739 m 1,34,-1
 642 796 l 1,35,-1
 542 954 l 1,36,-1
 420 954 l 1,37,-1
 264 796 l 1,38,-1
 334 739 l 1,39,-1
 468 854 l 1,40,-1
 567 739 l 1,34,-1
EndSplineSet
EndChar

StartChar: Otilde
Encoding: 213 213 148
Width: 695
Flags: W
LayerCount: 2
Fore
SplineSet
308 -12 m 0,0,1
 386 -12 386 -12 452 22 c 128,-1,2
 518 56 518 56 566 117 c 0,3,4
 668 247 668 247 668 427 c 0,5,6
 668 569 668 569 593 643 c 0,7,8
 525 710 525 710 417 710 c 0,9,10
 339 710 339 710 273 676 c 128,-1,11
 207 642 207 642 159 581 c 0,12,13
 57 451 57 451 57 271 c 0,14,15
 57 131 57 131 133 56 c 0,16,17
 202 -12 202 -12 308 -12 c 0,0,1
318 117 m 0,18,19
 204 117 204 117 204 245 c 0,20,21
 204 268 204 268 209 297 c 2,22,-1
 230 402 l 2,23,24
 247 487 247 487 292 534 c 128,-1,25
 337 581 337 581 407 581 c 0,26,27
 521 581 521 581 521 453 c 0,28,29
 521 431 521 431 516 401 c 2,30,-1
 495 296 l 2,31,32
 478 211 478 211 433 164 c 128,-1,33
 388 117 388 117 318 117 c 0,18,19
533 761 m 0,34,35
 599 761 599 761 648 823 c 1,36,-1
 605 892 l 1,37,38
 588 879 588 879 576 873 c 128,-1,39
 564 867 564 867 547 867 c 0,40,41
 527 867 527 867 511 873 c 128,-1,42
 495 879 495 879 475.5 888.5 c 128,-1,43
 456 898 456 898 438.5 904 c 128,-1,44
 421 910 421 910 399 910 c 0,45,46
 333 910 333 910 284 848 c 1,47,-1
 327 779 l 1,48,49
 344 792 344 792 356 798 c 128,-1,50
 368 804 368 804 385 804 c 0,51,52
 405 804 405 804 421 798 c 128,-1,53
 437 792 437 792 456.5 782.5 c 128,-1,54
 476 773 476 773 493.5 767 c 128,-1,55
 511 761 511 761 533 761 c 0,34,35
EndSplineSet
EndChar

StartChar: Odieresis
Encoding: 214 214 149
Width: 695
Flags: W
LayerCount: 2
Fore
SplineSet
308 -12 m 0,0,1
 386 -12 386 -12 452 22 c 128,-1,2
 518 56 518 56 566 117 c 0,3,4
 668 247 668 247 668 427 c 0,5,6
 668 569 668 569 593 643 c 0,7,8
 525 710 525 710 417 710 c 0,9,10
 339 710 339 710 273 676 c 128,-1,11
 207 642 207 642 159 581 c 0,12,13
 57 451 57 451 57 271 c 0,14,15
 57 131 57 131 133 56 c 0,16,17
 202 -12 202 -12 308 -12 c 0,0,1
318 117 m 0,18,19
 204 117 204 117 204 245 c 0,20,21
 204 268 204 268 209 297 c 2,22,-1
 230 402 l 2,23,24
 247 487 247 487 292 534 c 128,-1,25
 337 581 337 581 407 581 c 0,26,27
 521 581 521 581 521 453 c 0,28,29
 521 431 521 431 516 401 c 2,30,-1
 495 296 l 2,31,32
 478 211 478 211 433 164 c 128,-1,33
 388 117 388 117 318 117 c 0,18,19
353 760 m 0,34,35
 427 760 427 760 438 823 c 0,36,37
 440 837 440 837 442 845.5 c 128,-1,38
 444 854 444 854 444 862 c 0,39,40
 444 882 444 882 429 896.5 c 128,-1,41
 414 911 414 911 379 911 c 0,42,43
 305 911 305 911 294 848 c 2,44,-1
 290 822 l 2,45,46
 288 814 288 814 288 809 c 0,47,48
 288 789 288 789 303 774.5 c 128,-1,49
 318 760 318 760 353 760 c 0,34,35
553 760 m 0,50,51
 627 760 627 760 638 823 c 0,52,53
 640 837 640 837 642 845.5 c 128,-1,54
 644 854 644 854 644 862 c 0,55,56
 644 882 644 882 629 896.5 c 128,-1,57
 614 911 614 911 579 911 c 0,58,59
 505 911 505 911 494 848 c 2,60,-1
 490 822 l 2,61,62
 488 814 488 814 488 809 c 0,63,64
 488 789 488 789 503 774.5 c 128,-1,65
 518 760 518 760 553 760 c 0,50,51
EndSplineSet
EndChar

StartChar: multiply
Encoding: 215 215 150
Width: 600
Flags: W
LayerCount: 2
Fore
SplineSet
412 76 m 1,0,-1
 508 156 l 1,1,-1
 396 299 l 1,2,-1
 567 447 l 1,3,-1
 492 534 l 1,4,-1
 325 390 l 1,5,-1
 215 534 l 1,6,-1
 119 454 l 1,7,-1
 231 311 l 1,8,-1
 60 163 l 1,9,-1
 135 76 l 1,10,-1
 302 220 l 1,11,-1
 412 76 l 1,0,-1
EndSplineSet
EndChar

StartChar: Oslash
Encoding: 216 216 151
Width: 695
Flags: W
LayerCount: 2
Fore
SplineSet
79 -60 m 1,0,-1
 158 33 l 1,1,2
 224 -12 224 -12 308 -12 c 0,3,4
 386 -12 386 -12 452 22 c 128,-1,5
 518 56 518 56 566 117 c 0,6,7
 668 247 668 247 668 427 c 0,8,9
 668 525 668 525 634 587 c 1,10,-1
 723 691 l 1,11,-1
 646 758 l 1,12,-1
 567 665 l 1,13,14
 501 710 501 710 417 710 c 0,15,16
 339 710 339 710 273 676 c 128,-1,17
 207 642 207 642 159 581 c 0,18,19
 57 451 57 451 57 271 c 0,20,21
 57 174 57 174 91 111 c 1,22,-1
 2 7 l 1,23,-1
 79 -60 l 1,0,-1
199 221 m 1,24,25
 198 224 198 224 198 231 c 0,26,27
 198 264 198 264 205 296 c 2,28,-1
 227 405 l 2,29,30
 264 587 264 587 408 587 c 0,31,32
 456 587 456 587 488 558 c 1,33,-1
 199 221 l 1,24,25
317 111 m 0,34,35
 269 111 269 111 237 140 c 1,36,-1
 526 477 l 1,37,38
 527 474 527 474 527 467 c 0,39,40
 527 434 527 434 520 402 c 2,41,-1
 498 293 l 2,42,43
 461 111 461 111 317 111 c 0,34,35
EndSplineSet
EndChar

StartChar: Ugrave
Encoding: 217 217 152
Width: 678
Flags: W
LayerCount: 2
Fore
SplineSet
308 -12 m 0,0,1
 439 -12 439 -12 508 58 c 128,-1,2
 577 128 577 128 605 275 c 2,3,-1
 690 698 l 1,4,-1
 547 698 l 1,5,-1
 461 270 l 1,6,7
 435 120 435 120 315 120 c 0,8,9
 213 120 213 120 213 220 c 0,10,11
 213 249 213 249 220 283 c 2,12,-1
 303 698 l 1,13,-1
 160 698 l 1,14,-1
 81 303 l 2,15,16
 72 255 72 255 72 214 c 0,17,18
 72 -9 72 -9 308 -12 c 0,0,1
407 740 m 1,19,-1
 496 779 l 1,20,-1
 428 975 l 1,21,-1
 302 916 l 1,22,-1
 407 740 l 1,19,-1
EndSplineSet
EndChar

StartChar: Uacute
Encoding: 218 218 153
Width: 678
Flags: W
LayerCount: 2
Fore
SplineSet
308 -12 m 0,0,1
 439 -12 439 -12 508 58 c 128,-1,2
 577 128 577 128 605 275 c 2,3,-1
 690 698 l 1,4,-1
 547 698 l 1,5,-1
 461 270 l 1,6,7
 435 120 435 120 315 120 c 0,8,9
 213 120 213 120 213 220 c 0,10,11
 213 249 213 249 220 283 c 2,12,-1
 303 698 l 1,13,-1
 160 698 l 1,14,-1
 81 303 l 2,15,16
 72 255 72 255 72 214 c 0,17,18
 72 -9 72 -9 308 -12 c 0,0,1
449 739 m 1,19,-1
 596 915 l 1,20,-1
 484 975 l 1,21,-1
 365 785 l 1,22,-1
 449 739 l 1,19,-1
EndSplineSet
EndChar

StartChar: Ucircumflex
Encoding: 219 219 154
Width: 678
Flags: W
LayerCount: 2
Fore
SplineSet
308 -12 m 0,0,1
 439 -12 439 -12 508 58 c 128,-1,2
 577 128 577 128 605 275 c 2,3,-1
 690 698 l 1,4,-1
 547 698 l 1,5,-1
 461 270 l 1,6,7
 435 120 435 120 315 120 c 0,8,9
 213 120 213 120 213 220 c 0,10,11
 213 249 213 249 220 283 c 2,12,-1
 303 698 l 1,13,-1
 160 698 l 1,14,-1
 81 303 l 2,15,16
 72 255 72 255 72 214 c 0,17,18
 72 -9 72 -9 308 -12 c 0,0,1
549 739 m 1,19,-1
 624 796 l 1,20,-1
 524 954 l 1,21,-1
 402 954 l 1,22,-1
 246 796 l 1,23,-1
 316 739 l 1,24,-1
 450 854 l 1,25,-1
 549 739 l 1,19,-1
EndSplineSet
EndChar

StartChar: Udieresis
Encoding: 220 220 155
Width: 678
Flags: W
LayerCount: 2
Fore
SplineSet
308 -12 m 0,0,1
 439 -12 439 -12 508 58 c 128,-1,2
 577 128 577 128 605 275 c 2,3,-1
 690 698 l 1,4,-1
 547 698 l 1,5,-1
 461 270 l 1,6,7
 435 120 435 120 315 120 c 0,8,9
 213 120 213 120 213 220 c 0,10,11
 213 249 213 249 220 283 c 2,12,-1
 303 698 l 1,13,-1
 160 698 l 1,14,-1
 81 303 l 2,15,16
 72 255 72 255 72 214 c 0,17,18
 72 -9 72 -9 308 -12 c 0,0,1
335 760 m 0,19,20
 409 760 409 760 420 823 c 0,21,22
 422 837 422 837 424 845.5 c 128,-1,23
 426 854 426 854 426 862 c 0,24,25
 426 882 426 882 411 896.5 c 128,-1,26
 396 911 396 911 361 911 c 0,27,28
 287 911 287 911 276 848 c 2,29,-1
 272 822 l 2,30,31
 270 814 270 814 270 809 c 0,32,33
 270 789 270 789 285 774.5 c 128,-1,34
 300 760 300 760 335 760 c 0,19,20
535 760 m 0,35,36
 609 760 609 760 620 823 c 0,37,38
 622 837 622 837 624 845.5 c 128,-1,39
 626 854 626 854 626 862 c 0,40,41
 626 882 626 882 611 896.5 c 128,-1,42
 596 911 596 911 561 911 c 0,43,44
 487 911 487 911 476 848 c 2,45,-1
 472 822 l 2,46,47
 470 814 470 814 470 809 c 0,48,49
 470 789 470 789 485 774.5 c 128,-1,50
 500 760 500 760 535 760 c 0,35,36
EndSplineSet
EndChar

StartChar: Yacute
Encoding: 221 221 156
Width: 624
Flags: W
LayerCount: 2
Fore
SplineSet
330 0 m 1,0,-1
 382 258 l 1,1,-1
 701 698 l 1,2,-1
 541 698 l 1,3,-1
 340 404 l 1,4,-1
 333 404 l 1,5,-1
 239 698 l 1,6,-1
 91 698 l 1,7,-1
 239 271 l 1,8,-1
 185 0 l 1,9,-1
 330 0 l 1,0,-1
410 739 m 1,10,-1
 557 915 l 1,11,-1
 445 975 l 1,12,-1
 326 785 l 1,13,-1
 410 739 l 1,10,-1
EndSplineSet
EndChar

StartChar: Thorn
Encoding: 222 222 157
Width: 634
Flags: W
LayerCount: 2
Fore
SplineSet
168 0 m 1,0,-1
 193 134 l 1,1,-1
 352 134 l 2,2,3
 471 134 471 134 547 205 c 128,-1,4
 623 276 623 276 623 390 c 0,5,6
 623 479 623 479 565.5 528 c 128,-1,7
 508 577 508 577 403 577 c 2,8,-1
 283 577 l 1,9,-1
 307 698 l 1,10,-1
 162 698 l 1,11,-1
 22 0 l 1,12,-1
 168 0 l 1,0,-1
370 262 m 2,13,-1
 220 262 l 1,14,-1
 256 449 l 1,15,-1
 408 449 l 2,16,17
 442 449 442 449 457.5 433.5 c 128,-1,18
 473 418 473 418 473 395 c 2,19,-1
 472 380 l 1,20,-1
 461 332 l 2,21,22
 452 297 452 297 428 279.5 c 128,-1,23
 404 262 404 262 370 262 c 2,13,-1
EndSplineSet
EndChar

StartChar: germandbls
Encoding: 223 223 158
Width: 669
Flags: W
LayerCount: 2
Fore
SplineSet
416 -12 m 0,0,1
 512 -12 512 -12 572 50 c 0,2,3
 628 113 628 113 628 189 c 0,4,5
 628 237 628 237 607 265.5 c 128,-1,6
 586 294 586 294 547 313 c 2,7,-1
 508 333 l 2,8,9
 484 345 484 345 470 358 c 128,-1,10
 456 371 456 371 456 390 c 0,11,12
 456 434 456 434 542 434 c 2,13,-1
 618 434 l 1,14,15
 626 471 626 471 633.5 508.5 c 128,-1,16
 641 546 641 546 641 580 c 0,17,18
 641 654 641 654 582.5 703 c 128,-1,19
 524 752 524 752 420 752 c 0,20,21
 312 752 312 752 237 693.5 c 128,-1,22
 162 635 162 635 140 525 c 1,23,-1
 66 525 l 1,24,-1
 43 410 l 1,25,-1
 117 410 l 1,26,-1
 35 0 l 1,27,-1
 175 0 l 1,28,-1
 281 531 l 2,29,30
 304 642 304 642 413 642 c 0,31,32
 505 642 505 642 505 567 c 2,33,-1
 505 552 l 1,34,-1
 501 530 l 1,35,36
 414 518 414 518 369.5 473.5 c 128,-1,37
 325 429 325 429 325 361 c 0,38,39
 325 315 325 315 346.5 288 c 128,-1,40
 368 261 368 261 402 244 c 2,41,-1
 442 224 l 2,42,43
 471 210 471 210 483.5 198.5 c 128,-1,44
 496 187 496 187 496 165 c 0,45,46
 496 136 496 136 475.5 116 c 128,-1,47
 455 96 455 96 419 96 c 0,48,49
 361 96 361 96 328 144 c 1,50,-1
 240 65 l 1,51,52
 290 -12 290 -12 416 -12 c 0,0,1
EndSplineSet
EndChar

StartChar: agrave
Encoding: 224 224 159
Width: 591
Flags: W
LayerCount: 2
Fore
SplineSet
171 -12 m 0,0,1
 233 -12 233 -12 272.5 23 c 128,-1,2
 312 58 312 58 342 122 c 1,3,-1
 348 122 l 1,4,5
 347 115 347 115 345.5 109 c 128,-1,6
 344 103 344 103 343 94 c 128,-1,7
 342 85 342 85 342 77 c 0,8,9
 342 40 342 40 367 20 c 128,-1,10
 392 0 392 0 430 0 c 2,11,-1
 523 0 l 1,12,-1
 545 112 l 1,13,-1
 486 112 l 1,14,-1
 569 525 l 1,15,-1
 429 525 l 1,16,-1
 411 434 l 1,17,-1
 406 434 l 1,18,19
 400 478 400 478 365 507.5 c 128,-1,20
 330 537 330 537 275 537 c 0,21,22
 175 537 175 537 103 435 c 128,-1,23
 31 333 31 333 31 170 c 0,24,25
 31 92 31 92 64.5 40 c 128,-1,26
 98 -12 98 -12 171 -12 c 0,0,1
240 103 m 0,27,28
 179 103 179 103 174 178 c 0,29,30
 174 190 174 190 176 207 c 0,31,32
 179 228 179 228 194 305 c 0,33,34
 218 422 218 422 309 422 c 0,35,36
 353 422 353 422 376 397 c 0,37,38
 393 379 393 379 393 354 c 0,39,40
 393 345 393 345 375 255 c 0,41,42
 362 194 362 194 327 151 c 0,43,44
 290 103 290 103 240 103 c 0,27,28
319 580 m 1,45,-1
 408 619 l 1,46,-1
 340 815 l 1,47,-1
 214 756 l 1,48,-1
 319 580 l 1,45,-1
EndSplineSet
EndChar

StartChar: aacute
Encoding: 225 225 160
Width: 591
Flags: W
LayerCount: 2
Fore
SplineSet
171 -12 m 0,0,1
 233 -12 233 -12 272.5 23 c 128,-1,2
 312 58 312 58 342 122 c 1,3,-1
 348 122 l 1,4,5
 347 115 347 115 345.5 109 c 128,-1,6
 344 103 344 103 343 94 c 128,-1,7
 342 85 342 85 342 77 c 0,8,9
 342 40 342 40 367 20 c 128,-1,10
 392 0 392 0 430 0 c 2,11,-1
 523 0 l 1,12,-1
 545 112 l 1,13,-1
 486 112 l 1,14,-1
 569 525 l 1,15,-1
 429 525 l 1,16,-1
 411 434 l 1,17,-1
 406 434 l 1,18,19
 400 478 400 478 365 507.5 c 128,-1,20
 330 537 330 537 275 537 c 0,21,22
 175 537 175 537 103 435 c 128,-1,23
 31 333 31 333 31 170 c 0,24,25
 31 92 31 92 64.5 40 c 128,-1,26
 98 -12 98 -12 171 -12 c 0,0,1
240 103 m 0,27,28
 179 103 179 103 174 178 c 0,29,30
 174 190 174 190 176 207 c 0,31,32
 179 228 179 228 194 305 c 0,33,34
 218 422 218 422 309 422 c 0,35,36
 353 422 353 422 376 397 c 0,37,38
 393 379 393 379 393 354 c 0,39,40
 393 345 393 345 375 255 c 0,41,42
 362 194 362 194 327 151 c 0,43,44
 290 103 290 103 240 103 c 0,27,28
361 579 m 1,45,-1
 508 755 l 1,46,-1
 396 815 l 1,47,-1
 277 625 l 1,48,-1
 361 579 l 1,45,-1
EndSplineSet
EndChar

StartChar: acircumflex
Encoding: 226 226 161
Width: 591
Flags: W
LayerCount: 2
Fore
SplineSet
171 -12 m 0,0,1
 233 -12 233 -12 272.5 23 c 128,-1,2
 312 58 312 58 342 122 c 1,3,-1
 348 122 l 1,4,5
 347 115 347 115 345.5 109 c 128,-1,6
 344 103 344 103 343 94 c 128,-1,7
 342 85 342 85 342 77 c 0,8,9
 342 40 342 40 367 20 c 128,-1,10
 392 0 392 0 430 0 c 2,11,-1
 523 0 l 1,12,-1
 545 112 l 1,13,-1
 486 112 l 1,14,-1
 569 525 l 1,15,-1
 429 525 l 1,16,-1
 411 434 l 1,17,-1
 406 434 l 1,18,19
 400 478 400 478 365 507.5 c 128,-1,20
 330 537 330 537 275 537 c 0,21,22
 175 537 175 537 103 435 c 128,-1,23
 31 333 31 333 31 170 c 0,24,25
 31 92 31 92 64.5 40 c 128,-1,26
 98 -12 98 -12 171 -12 c 0,0,1
240 103 m 0,27,28
 179 103 179 103 174 178 c 0,29,30
 174 190 174 190 176 207 c 0,31,32
 179 228 179 228 194 305 c 0,33,34
 218 422 218 422 309 422 c 0,35,36
 353 422 353 422 376 397 c 0,37,38
 393 379 393 379 393 354 c 0,39,40
 393 345 393 345 375 255 c 0,41,42
 362 194 362 194 327 151 c 0,43,44
 290 103 290 103 240 103 c 0,27,28
461 579 m 1,45,-1
 536 636 l 1,46,-1
 436 794 l 1,47,-1
 314 794 l 1,48,-1
 158 636 l 1,49,-1
 228 579 l 1,50,-1
 362 694 l 1,51,-1
 461 579 l 1,45,-1
EndSplineSet
EndChar

StartChar: atilde
Encoding: 227 227 162
Width: 591
Flags: W
LayerCount: 2
Fore
SplineSet
171 -12 m 0,0,1
 233 -12 233 -12 272.5 23 c 128,-1,2
 312 58 312 58 342 122 c 1,3,-1
 348 122 l 1,4,5
 347 115 347 115 345.5 109 c 128,-1,6
 344 103 344 103 343 94 c 128,-1,7
 342 85 342 85 342 77 c 0,8,9
 342 40 342 40 367 20 c 128,-1,10
 392 0 392 0 430 0 c 2,11,-1
 523 0 l 1,12,-1
 545 112 l 1,13,-1
 486 112 l 1,14,-1
 569 525 l 1,15,-1
 429 525 l 1,16,-1
 411 434 l 1,17,-1
 406 434 l 1,18,19
 400 478 400 478 365 507.5 c 128,-1,20
 330 537 330 537 275 537 c 0,21,22
 175 537 175 537 103 435 c 128,-1,23
 31 333 31 333 31 170 c 0,24,25
 31 92 31 92 64.5 40 c 128,-1,26
 98 -12 98 -12 171 -12 c 0,0,1
240 103 m 0,27,28
 179 103 179 103 174 178 c 0,29,30
 174 190 174 190 176 207 c 0,31,32
 179 228 179 228 194 305 c 0,33,34
 218 422 218 422 309 422 c 0,35,36
 353 422 353 422 376 397 c 0,37,38
 393 379 393 379 393 354 c 0,39,40
 393 345 393 345 375 255 c 0,41,42
 362 194 362 194 327 151 c 0,43,44
 290 103 290 103 240 103 c 0,27,28
427 601 m 0,45,46
 493 601 493 601 542 663 c 1,47,-1
 499 732 l 1,48,49
 482 719 482 719 470 713 c 128,-1,50
 458 707 458 707 441 707 c 0,51,52
 421 707 421 707 405 713 c 128,-1,53
 389 719 389 719 369.5 728.5 c 128,-1,54
 350 738 350 738 332.5 744 c 128,-1,55
 315 750 315 750 293 750 c 0,56,57
 227 750 227 750 178 688 c 1,58,-1
 221 619 l 1,59,60
 238 632 238 632 250 638 c 128,-1,61
 262 644 262 644 279 644 c 0,62,63
 299 644 299 644 315 638 c 128,-1,64
 331 632 331 632 350.5 622.5 c 128,-1,65
 370 613 370 613 387.5 607 c 128,-1,66
 405 601 405 601 427 601 c 0,45,46
EndSplineSet
EndChar

StartChar: adieresis
Encoding: 228 228 163
Width: 591
Flags: W
LayerCount: 2
Fore
SplineSet
171 -12 m 0,0,1
 233 -12 233 -12 272.5 23 c 128,-1,2
 312 58 312 58 342 122 c 1,3,-1
 348 122 l 1,4,5
 347 115 347 115 345.5 109 c 128,-1,6
 344 103 344 103 343 94 c 128,-1,7
 342 85 342 85 342 77 c 0,8,9
 342 40 342 40 367 20 c 128,-1,10
 392 0 392 0 430 0 c 2,11,-1
 523 0 l 1,12,-1
 545 112 l 1,13,-1
 486 112 l 1,14,-1
 569 525 l 1,15,-1
 429 525 l 1,16,-1
 411 434 l 1,17,-1
 406 434 l 1,18,19
 400 478 400 478 365 507.5 c 128,-1,20
 330 537 330 537 275 537 c 0,21,22
 175 537 175 537 103 435 c 128,-1,23
 31 333 31 333 31 170 c 0,24,25
 31 92 31 92 64.5 40 c 128,-1,26
 98 -12 98 -12 171 -12 c 0,0,1
240 103 m 0,27,28
 179 103 179 103 174 178 c 0,29,30
 174 190 174 190 176 207 c 0,31,32
 179 228 179 228 194 305 c 0,33,34
 218 422 218 422 309 422 c 0,35,36
 353 422 353 422 376 397 c 0,37,38
 393 379 393 379 393 354 c 0,39,40
 393 345 393 345 375 255 c 0,41,42
 362 194 362 194 327 151 c 0,43,44
 290 103 290 103 240 103 c 0,27,28
247 600 m 0,45,46
 321 600 321 600 332 663 c 2,47,-1
 335 678 l 2,48,49
 338 693 338 693 338 703 c 0,50,51
 338 723 338 723 323 737 c 128,-1,52
 308 751 308 751 273 751 c 0,53,54
 199 751 199 751 188 688 c 0,55,56
 186 678 186 678 185 670.5 c 128,-1,57
 184 663 184 663 183 657.5 c 128,-1,58
 182 652 182 652 182 648 c 0,59,60
 182 628 182 628 197 614 c 128,-1,61
 212 600 212 600 247 600 c 0,45,46
447 600 m 0,62,63
 521 600 521 600 532 663 c 2,64,-1
 535 678 l 2,65,66
 538 693 538 693 538 703 c 0,67,68
 538 723 538 723 523 737 c 128,-1,69
 508 751 508 751 473 751 c 0,70,71
 399 751 399 751 388 688 c 0,72,73
 386 678 386 678 385 670.5 c 128,-1,74
 384 663 384 663 383 657.5 c 128,-1,75
 382 652 382 652 382 648 c 0,76,77
 382 628 382 628 397 614 c 128,-1,78
 412 600 412 600 447 600 c 0,62,63
EndSplineSet
EndChar

StartChar: aring
Encoding: 229 229 164
Width: 591
Flags: W
LayerCount: 2
Fore
SplineSet
171 -12 m 0,0,1
 233 -12 233 -12 272.5 23 c 128,-1,2
 312 58 312 58 342 122 c 1,3,-1
 348 122 l 1,4,5
 347 115 347 115 345.5 109 c 128,-1,6
 344 103 344 103 343 94 c 128,-1,7
 342 85 342 85 342 77 c 0,8,9
 342 40 342 40 367 20 c 128,-1,10
 392 0 392 0 430 0 c 2,11,-1
 523 0 l 1,12,-1
 545 112 l 1,13,-1
 486 112 l 1,14,-1
 569 525 l 1,15,-1
 429 525 l 1,16,-1
 411 434 l 1,17,-1
 406 434 l 1,18,19
 400 478 400 478 365 507.5 c 128,-1,20
 330 537 330 537 275 537 c 0,21,22
 175 537 175 537 103 435 c 128,-1,23
 31 333 31 333 31 170 c 0,24,25
 31 92 31 92 64.5 40 c 128,-1,26
 98 -12 98 -12 171 -12 c 0,0,1
240 103 m 0,27,28
 179 103 179 103 174 178 c 0,29,30
 174 190 174 190 176 207 c 0,31,32
 179 228 179 228 194 305 c 0,33,34
 218 422 218 422 309 422 c 0,35,36
 353 422 353 422 376 397 c 0,37,38
 393 379 393 379 393 354 c 0,39,40
 393 345 393 345 375 255 c 0,41,42
 362 194 362 194 327 151 c 0,43,44
 290 103 290 103 240 103 c 0,27,28
338 558 m 0,45,46
 404 558 404 558 453.5 602 c 128,-1,47
 503 646 503 646 503 722 c 0,48,49
 503 775 503 775 467 809.5 c 128,-1,50
 431 844 431 844 375 844 c 0,51,52
 309 844 309 844 259.5 799 c 128,-1,53
 210 754 210 754 210 680 c 0,54,55
 210 627 210 627 246 592.5 c 128,-1,56
 282 558 282 558 338 558 c 0,45,46
344 632 m 0,57,58
 304 632 304 632 303 671 c 0,59,60
 303 684 303 684 308 703 c 2,61,-1
 311 718 l 2,62,63
 323 770 323 770 369 770 c 0,64,65
 410 770 410 770 410 731 c 0,66,67
 410 718 410 718 405 699 c 2,68,-1
 402 684 l 2,69,70
 391 632 391 632 344 632 c 0,57,58
EndSplineSet
EndChar

StartChar: ae
Encoding: 230 230 165
Width: 827
Flags: W
LayerCount: 2
Fore
SplineSet
231 89 m 0,0,1
 204 89 204 89 187.5 100 c 128,-1,2
 171 111 171 111 171 134 c 0,3,4
 171 150 171 150 175 165 c 0,5,6
 184 193 184 193 207.5 202.5 c 128,-1,7
 231 212 231 212 262 213 c 2,8,-1
 343 217 l 1,9,-1
 331 160 l 2,10,11
 322 124 322 124 293.5 106.5 c 128,-1,12
 265 89 265 89 231 89 c 0,0,1
499 301 m 1,13,-1
 503 320 l 2,14,15
 513 372 513 372 544 401 c 128,-1,16
 575 430 575 430 620 430 c 0,17,18
 680 430 680 430 680 377 c 0,19,20
 680 362 680 362 673 350 c 0,21,22
 651 310 651 310 499 301 c 1,13,-1
565 -12 m 0,23,24
 633 -12 633 -12 687 15 c 128,-1,25
 741 42 741 42 789 106 c 1,26,-1
 703 174 l 1,27,28
 668 131 668 131 639 116 c 128,-1,29
 610 101 610 101 576 101 c 0,30,31
 523 101 523 101 502.5 124 c 128,-1,32
 482 147 482 147 482 185 c 0,33,34
 482 203 482 203 483 211 c 2,35,-1
 484 216 l 1,36,37
 816 225 816 225 816 392 c 0,38,39
 816 470 816 470 752 507 c 0,40,41
 700 537 700 537 630 537 c 0,42,43
 529 537 529 537 461 461 c 1,44,-1
 454 461 l 1,45,46
 411 537 411 537 297 537 c 0,47,48
 159 537 159 537 82 436 c 1,49,-1
 164 357 l 1,50,51
 208 425 208 425 286 425 c 0,52,53
 367 425 367 425 367 355 c 0,54,55
 367 341 367 341 359 298 c 1,56,-1
 268 294 l 2,57,58
 152 289 152 289 88.5 248 c 128,-1,59
 25 207 25 207 25 125 c 0,60,61
 25 62 25 62 64.5 25 c 128,-1,62
 104 -12 104 -12 182 -12 c 0,63,64
 311 -12 311 -12 361 92 c 1,65,-1
 368 92 l 1,66,67
 419 -12 419 -12 565 -12 c 0,23,24
EndSplineSet
EndChar

StartChar: ccedilla
Encoding: 231 231 166
Width: 494
Flags: W
LayerCount: 2
Fore
SplineSet
210 -212 m 0,0,1
 270 -212 270 -212 312 -186 c 128,-1,2
 354 -160 354 -160 354 -108 c 0,3,4
 354 -82 354 -82 336 -67 c 128,-1,5
 318 -52 318 -52 292 -52 c 0,6,7
 271 -52 271 -52 249 -59 c 1,8,-1
 247 -55 l 1,9,-1
 265 -10 l 1,10,11
 396 2 396 2 460 134 c 1,12,-1
 353 184 l 1,13,14
 332 147 332 147 311 124 c 128,-1,15
 290 101 290 101 249 101 c 0,16,17
 170 101 170 101 170 183 c 0,18,19
 170 203 170 203 175 225 c 2,20,-1
 193 314 l 2,21,22
 215 424 215 424 302 424 c 0,23,24
 340 424 340 424 356 405.5 c 128,-1,25
 372 387 372 387 380 356 c 1,26,-1
 498 401 l 1,27,28
 486 463 486 463 437 500 c 0,29,30
 384 537 384 537 310 537 c 0,31,32
 190 537 190 537 110.5 446 c 128,-1,33
 31 355 31 355 31 215 c 0,34,35
 31 107 31 107 78 54 c 128,-1,36
 125 1 125 1 198 -9 c 1,37,-1
 171 -73 l 1,38,-1
 193 -75 l 2,39,40
 259 -82 259 -82 259 -111 c 0,41,42
 259 -142 259 -142 209 -142 c 0,43,44
 187 -142 187 -142 172 -133 c 128,-1,45
 157 -124 157 -124 151 -114 c 1,46,-1
 99 -166 l 1,47,48
 112 -185 112 -185 140 -198.5 c 128,-1,49
 168 -212 168 -212 210 -212 c 0,0,1
EndSplineSet
EndChar

StartChar: egrave
Encoding: 232 232 167
Width: 515
Flags: W
LayerCount: 2
Fore
SplineSet
253 -12 m 0,0,1
 321 -12 321 -12 375 15 c 128,-1,2
 429 42 429 42 477 106 c 1,3,-1
 391 174 l 1,4,5
 356 131 356 131 326.5 116 c 128,-1,6
 297 101 297 101 263 101 c 0,7,8
 211 101 211 101 190.5 124 c 128,-1,9
 170 147 170 147 170 185 c 0,10,11
 170 198 170 198 171 204 c 2,12,-1
 172 208 l 1,13,14
 504 219 504 219 504 391 c 0,15,16
 504 469 504 469 440 507 c 0,17,18
 388 537 388 537 316 537 c 0,19,20
 251 537 251 537 198 510.5 c 128,-1,21
 145 484 145 484 108 439 c 0,22,23
 31 340 31 340 31 214 c 0,24,25
 31 109 31 109 86 48.5 c 128,-1,26
 141 -12 141 -12 253 -12 c 0,0,1
187 297 m 1,27,-1
 191 320 l 2,28,29
 201 372 201 372 232 401 c 128,-1,30
 263 430 263 430 308 430 c 0,31,32
 368 430 368 430 368 377 c 0,33,34
 368 361 368 361 361 348 c 128,-1,35
 354 335 354 335 334 325 c 0,36,37
 297 304 297 304 187 297 c 1,27,-1
309 580 m 1,38,-1
 398 619 l 1,39,-1
 330 815 l 1,40,-1
 204 756 l 1,41,-1
 309 580 l 1,38,-1
EndSplineSet
EndChar

StartChar: eacute
Encoding: 233 233 168
Width: 515
Flags: W
LayerCount: 2
Fore
SplineSet
253 -12 m 0,0,1
 321 -12 321 -12 375 15 c 128,-1,2
 429 42 429 42 477 106 c 1,3,-1
 391 174 l 1,4,5
 356 131 356 131 326.5 116 c 128,-1,6
 297 101 297 101 263 101 c 0,7,8
 211 101 211 101 190.5 124 c 128,-1,9
 170 147 170 147 170 185 c 0,10,11
 170 198 170 198 171 204 c 2,12,-1
 172 208 l 1,13,14
 504 219 504 219 504 391 c 0,15,16
 504 469 504 469 440 507 c 0,17,18
 388 537 388 537 316 537 c 0,19,20
 251 537 251 537 198 510.5 c 128,-1,21
 145 484 145 484 108 439 c 0,22,23
 31 340 31 340 31 214 c 0,24,25
 31 109 31 109 86 48.5 c 128,-1,26
 141 -12 141 -12 253 -12 c 0,0,1
187 297 m 1,27,-1
 191 320 l 2,28,29
 201 372 201 372 232 401 c 128,-1,30
 263 430 263 430 308 430 c 0,31,32
 368 430 368 430 368 377 c 0,33,34
 368 361 368 361 361 348 c 128,-1,35
 354 335 354 335 334 325 c 0,36,37
 297 304 297 304 187 297 c 1,27,-1
351 579 m 1,38,-1
 498 755 l 1,39,-1
 386 815 l 1,40,-1
 267 625 l 1,41,-1
 351 579 l 1,38,-1
EndSplineSet
EndChar

StartChar: ecircumflex
Encoding: 234 234 169
Width: 515
Flags: W
LayerCount: 2
Fore
SplineSet
253 -12 m 0,0,1
 321 -12 321 -12 375 15 c 128,-1,2
 429 42 429 42 477 106 c 1,3,-1
 391 174 l 1,4,5
 356 131 356 131 326.5 116 c 128,-1,6
 297 101 297 101 263 101 c 0,7,8
 211 101 211 101 190.5 124 c 128,-1,9
 170 147 170 147 170 185 c 0,10,11
 170 198 170 198 171 204 c 2,12,-1
 172 208 l 1,13,14
 504 219 504 219 504 391 c 0,15,16
 504 469 504 469 440 507 c 0,17,18
 388 537 388 537 316 537 c 0,19,20
 251 537 251 537 198 510.5 c 128,-1,21
 145 484 145 484 108 439 c 0,22,23
 31 340 31 340 31 214 c 0,24,25
 31 109 31 109 86 48.5 c 128,-1,26
 141 -12 141 -12 253 -12 c 0,0,1
187 297 m 1,27,-1
 191 320 l 2,28,29
 201 372 201 372 232 401 c 128,-1,30
 263 430 263 430 308 430 c 0,31,32
 368 430 368 430 368 377 c 0,33,34
 368 361 368 361 361 348 c 128,-1,35
 354 335 354 335 334 325 c 0,36,37
 297 304 297 304 187 297 c 1,27,-1
451 579 m 1,38,-1
 526 636 l 1,39,-1
 426 794 l 1,40,-1
 304 794 l 1,41,-1
 148 636 l 1,42,-1
 218 579 l 1,43,-1
 352 694 l 1,44,-1
 451 579 l 1,38,-1
EndSplineSet
EndChar

StartChar: edieresis
Encoding: 235 235 170
Width: 515
Flags: W
LayerCount: 2
Fore
SplineSet
253 -12 m 0,0,1
 321 -12 321 -12 375 15 c 128,-1,2
 429 42 429 42 477 106 c 1,3,-1
 391 174 l 1,4,5
 356 131 356 131 326.5 116 c 128,-1,6
 297 101 297 101 263 101 c 0,7,8
 211 101 211 101 190.5 124 c 128,-1,9
 170 147 170 147 170 185 c 0,10,11
 170 198 170 198 171 204 c 2,12,-1
 172 208 l 1,13,14
 504 219 504 219 504 391 c 0,15,16
 504 469 504 469 440 507 c 0,17,18
 388 537 388 537 316 537 c 0,19,20
 251 537 251 537 198 510.5 c 128,-1,21
 145 484 145 484 108 439 c 0,22,23
 31 340 31 340 31 214 c 0,24,25
 31 109 31 109 86 48.5 c 128,-1,26
 141 -12 141 -12 253 -12 c 0,0,1
187 297 m 1,27,-1
 191 320 l 2,28,29
 201 372 201 372 232 401 c 128,-1,30
 263 430 263 430 308 430 c 0,31,32
 368 430 368 430 368 377 c 0,33,34
 368 361 368 361 361 348 c 128,-1,35
 354 335 354 335 334 325 c 0,36,37
 297 304 297 304 187 297 c 1,27,-1
237 600 m 0,38,39
 311 600 311 600 322 663 c 2,40,-1
 325 678 l 2,41,42
 328 693 328 693 328 703 c 0,43,44
 328 723 328 723 313 737 c 128,-1,45
 298 751 298 751 263 751 c 0,46,47
 189 751 189 751 178 688 c 0,48,49
 176 678 176 678 175 670.5 c 128,-1,50
 174 663 174 663 173 657.5 c 128,-1,51
 172 652 172 652 172 648 c 0,52,53
 172 628 172 628 187 614 c 128,-1,54
 202 600 202 600 237 600 c 0,38,39
437 600 m 0,55,56
 511 600 511 600 522 663 c 2,57,-1
 525 678 l 2,58,59
 528 693 528 693 528 703 c 0,60,61
 528 723 528 723 513 737 c 128,-1,62
 498 751 498 751 463 751 c 0,63,64
 389 751 389 751 378 688 c 0,65,66
 376 678 376 678 375 670.5 c 128,-1,67
 374 663 374 663 373 657.5 c 128,-1,68
 372 652 372 652 372 648 c 0,69,70
 372 628 372 628 387 614 c 128,-1,71
 402 600 402 600 437 600 c 0,55,56
EndSplineSet
EndChar

StartChar: igrave
Encoding: 236 236 171
Width: 281
Flags: W
LayerCount: 2
Fore
SplineSet
213 0 m 1,0,-1
 235 112 l 1,1,-1
 176 112 l 1,2,-1
 259 525 l 1,3,-1
 119 525 l 1,4,5
 32 90 32 90 32 80 c 0,6,7
 32 44 32 44 56.5 22 c 128,-1,8
 81 0 81 0 122 0 c 2,9,-1
 213 0 l 1,0,-1
176 580 m 1,10,-1
 265 619 l 1,11,-1
 197 815 l 1,12,-1
 71 756 l 1,13,-1
 176 580 l 1,10,-1
EndSplineSet
EndChar

StartChar: iacute
Encoding: 237 237 172
Width: 281
Flags: W
LayerCount: 2
Fore
SplineSet
213 0 m 1,0,-1
 235 112 l 1,1,-1
 176 112 l 1,2,-1
 259 525 l 1,3,-1
 119 525 l 1,4,5
 32 90 32 90 32 80 c 0,6,7
 32 44 32 44 56.5 22 c 128,-1,8
 81 0 81 0 122 0 c 2,9,-1
 213 0 l 1,0,-1
218 579 m 1,10,-1
 365 755 l 1,11,-1
 253 815 l 1,12,-1
 134 625 l 1,13,-1
 218 579 l 1,10,-1
EndSplineSet
EndChar

StartChar: icircumflex
Encoding: 238 238 173
Width: 281
Flags: W
LayerCount: 2
Fore
SplineSet
213 0 m 1,0,-1
 235 112 l 1,1,-1
 176 112 l 1,2,-1
 259 525 l 1,3,-1
 119 525 l 1,4,5
 32 90 32 90 32 80 c 0,6,7
 32 44 32 44 56.5 22 c 128,-1,8
 81 0 81 0 122 0 c 2,9,-1
 213 0 l 1,0,-1
318 579 m 1,10,-1
 393 636 l 1,11,-1
 293 794 l 1,12,-1
 171 794 l 1,13,-1
 15 636 l 1,14,-1
 85 579 l 1,15,-1
 219 694 l 1,16,-1
 318 579 l 1,10,-1
EndSplineSet
EndChar

StartChar: idieresis
Encoding: 239 239 174
Width: 281
Flags: W
LayerCount: 2
Fore
SplineSet
213 0 m 1,0,-1
 235 112 l 1,1,-1
 176 112 l 1,2,-1
 259 525 l 1,3,-1
 119 525 l 1,4,5
 32 90 32 90 32 80 c 0,6,7
 32 44 32 44 56.5 22 c 128,-1,8
 81 0 81 0 122 0 c 2,9,-1
 213 0 l 1,0,-1
104 600 m 0,10,11
 178 600 178 600 189 663 c 2,12,-1
 192 678 l 2,13,14
 195 693 195 693 195 703 c 0,15,16
 195 723 195 723 180 737 c 128,-1,17
 165 751 165 751 130 751 c 0,18,19
 56 751 56 751 45 688 c 0,20,21
 43 678 43 678 42 670.5 c 128,-1,22
 41 663 41 663 40 657.5 c 128,-1,23
 39 652 39 652 39 648 c 0,24,25
 39 628 39 628 54 614 c 128,-1,26
 69 600 69 600 104 600 c 0,10,11
304 600 m 0,27,28
 378 600 378 600 389 663 c 2,29,-1
 392 678 l 2,30,31
 395 693 395 693 395 703 c 0,32,33
 395 723 395 723 380 737 c 128,-1,34
 365 751 365 751 330 751 c 0,35,36
 256 751 256 751 245 688 c 0,37,38
 243 678 243 678 242 670.5 c 128,-1,39
 241 663 241 663 240 657.5 c 128,-1,40
 239 652 239 652 239 648 c 0,41,42
 239 628 239 628 254 614 c 128,-1,43
 269 600 269 600 304 600 c 0,27,28
EndSplineSet
EndChar

StartChar: eth
Encoding: 240 240 175
Width: 573
Flags: W
LayerCount: 2
Fore
SplineSet
242 -12 m 0,0,1
 364 -12 364 -12 445 72 c 0,2,3
 535 165 535 165 535 344 c 0,4,5
 535 518 535 518 447 645 c 1,6,-1
 530 688 l 1,7,-1
 498 751 l 1,8,-1
 399 699 l 1,9,10
 378 721 378 721 353 740 c 1,11,-1
 158 740 l 1,12,13
 211 707 211 707 280 637 c 1,14,-1
 186 588 l 1,15,-1
 218 526 l 1,16,-1
 325 581 l 1,17,18
 381 505 381 505 400 398 c 1,19,-1
 391 398 l 1,20,21
 376 444 376 444 343 472 c 128,-1,22
 310 500 310 500 257 500 c 0,23,24
 166 500 166 500 98.5 416.5 c 128,-1,25
 31 333 31 333 31 211 c 0,26,27
 31 104 31 104 86.5 46 c 128,-1,28
 142 -12 142 -12 242 -12 c 0,0,1
250 96 m 0,29,30
 214 96 214 96 193.5 118.5 c 128,-1,31
 173 141 173 141 173 182 c 0,32,33
 173 199 173 199 177.5 223 c 128,-1,34
 182 247 182 247 187 271 c 0,35,36
 212 390 212 390 297 390 c 0,37,38
 333 390 333 390 353.5 367.5 c 128,-1,39
 374 345 374 345 374 304 c 0,40,41
 374 288 374 288 369.5 263.5 c 128,-1,42
 365 239 365 239 360 215 c 0,43,44
 336 96 336 96 250 96 c 0,29,30
EndSplineSet
EndChar

StartChar: ntilde
Encoding: 241 241 176
Width: 588
Flags: W
LayerCount: 2
Fore
SplineSet
520 0 m 1,0,-1
 542 112 l 1,1,-1
 489 112 l 1,2,-1
 532 327 l 2,3,4
 541 364 541 364 541 401 c 0,5,6
 541 466 541 466 508.5 501.5 c 128,-1,7
 476 537 476 537 415 537 c 0,8,9
 353 537 353 537 311.5 502 c 128,-1,10
 270 467 270 467 241 403 c 1,11,-1
 235 403 l 1,12,-1
 259 525 l 1,13,-1
 119 525 l 1,14,-1
 14 0 l 1,15,-1
 154 0 l 1,16,-1
 208 270 l 2,17,18
 221 330 221 330 258 372 c 0,19,20
 298 420 298 420 343 420 c 0,21,22
 396 420 396 420 396 368 c 0,23,24
 396 338 396 338 369 208 c 0,25,26
 345 89 345 89 345 76 c 0,27,28
 345 41 345 41 367 20.5 c 128,-1,29
 389 0 389 0 429 0 c 2,30,-1
 520 0 l 1,0,-1
442 601 m 0,31,32
 508 601 508 601 557 663 c 1,33,-1
 514 732 l 1,34,35
 497 719 497 719 485 713 c 128,-1,36
 473 707 473 707 456 707 c 0,37,38
 436 707 436 707 420 713 c 128,-1,39
 404 719 404 719 384.5 728.5 c 128,-1,40
 365 738 365 738 347.5 744 c 128,-1,41
 330 750 330 750 308 750 c 0,42,43
 242 750 242 750 193 688 c 1,44,-1
 236 619 l 1,45,46
 253 632 253 632 265 638 c 128,-1,47
 277 644 277 644 294 644 c 0,48,49
 314 644 314 644 330 638 c 128,-1,50
 346 632 346 632 365.5 622.5 c 128,-1,51
 385 613 385 613 402.5 607 c 128,-1,52
 420 601 420 601 442 601 c 0,31,32
EndSplineSet
EndChar

StartChar: ograve
Encoding: 242 242 177
Width: 542
Flags: W
LayerCount: 2
Fore
SplineSet
240 -12 m 0,0,1
 356 -12 356 -12 433.5 82 c 128,-1,2
 511 176 511 176 511 318 c 0,3,4
 511 422 511 422 455 479.5 c 128,-1,5
 399 537 399 537 302 537 c 0,6,7
 184 537 184 537 107.5 443.5 c 128,-1,8
 31 350 31 350 31 207 c 0,9,10
 31 103 31 103 87 45.5 c 128,-1,11
 143 -12 143 -12 240 -12 c 0,0,1
245 101 m 0,12,13
 172 101 172 101 170 184 c 0,14,15
 170 201 170 201 173 212 c 0,16,17
 173 215 173 215 192 309 c 0,18,19
 215 424 215 424 297 424 c 0,20,21
 371 424 371 424 372 341 c 0,22,23
 372 324 372 324 369 313 c 0,24,25
 369 310 369 310 350 216 c 0,26,27
 328 101 328 101 245 101 c 0,12,13
303 580 m 1,28,-1
 392 619 l 1,29,-1
 324 815 l 1,30,-1
 198 756 l 1,31,-1
 303 580 l 1,28,-1
EndSplineSet
EndChar

StartChar: oacute
Encoding: 243 243 178
Width: 542
Flags: W
LayerCount: 2
Fore
SplineSet
240 -12 m 0,0,1
 356 -12 356 -12 433.5 82 c 128,-1,2
 511 176 511 176 511 318 c 0,3,4
 511 422 511 422 455 479.5 c 128,-1,5
 399 537 399 537 302 537 c 0,6,7
 184 537 184 537 107.5 443.5 c 128,-1,8
 31 350 31 350 31 207 c 0,9,10
 31 103 31 103 87 45.5 c 128,-1,11
 143 -12 143 -12 240 -12 c 0,0,1
245 101 m 0,12,13
 172 101 172 101 170 184 c 0,14,15
 170 201 170 201 173 212 c 0,16,17
 173 215 173 215 192 309 c 0,18,19
 215 424 215 424 297 424 c 0,20,21
 371 424 371 424 372 341 c 0,22,23
 372 324 372 324 369 313 c 0,24,25
 369 310 369 310 350 216 c 0,26,27
 328 101 328 101 245 101 c 0,12,13
345 579 m 1,28,-1
 492 755 l 1,29,-1
 380 815 l 1,30,-1
 261 625 l 1,31,-1
 345 579 l 1,28,-1
EndSplineSet
EndChar

StartChar: ocircumflex
Encoding: 244 244 179
Width: 542
Flags: W
LayerCount: 2
Fore
SplineSet
240 -12 m 0,0,1
 356 -12 356 -12 433.5 82 c 128,-1,2
 511 176 511 176 511 318 c 0,3,4
 511 422 511 422 455 479.5 c 128,-1,5
 399 537 399 537 302 537 c 0,6,7
 184 537 184 537 107.5 443.5 c 128,-1,8
 31 350 31 350 31 207 c 0,9,10
 31 103 31 103 87 45.5 c 128,-1,11
 143 -12 143 -12 240 -12 c 0,0,1
245 101 m 0,12,13
 172 101 172 101 170 184 c 0,14,15
 170 201 170 201 173 212 c 0,16,17
 173 215 173 215 192 309 c 0,18,19
 215 424 215 424 297 424 c 0,20,21
 371 424 371 424 372 341 c 0,22,23
 372 324 372 324 369 313 c 0,24,25
 369 310 369 310 350 216 c 0,26,27
 328 101 328 101 245 101 c 0,12,13
445 579 m 1,28,-1
 520 636 l 1,29,-1
 420 794 l 1,30,-1
 298 794 l 1,31,-1
 142 636 l 1,32,-1
 212 579 l 1,33,-1
 346 694 l 1,34,-1
 445 579 l 1,28,-1
EndSplineSet
EndChar

StartChar: otilde
Encoding: 245 245 180
Width: 542
Flags: W
LayerCount: 2
Fore
SplineSet
240 -12 m 0,0,1
 356 -12 356 -12 433.5 82 c 128,-1,2
 511 176 511 176 511 318 c 0,3,4
 511 422 511 422 455 479.5 c 128,-1,5
 399 537 399 537 302 537 c 0,6,7
 184 537 184 537 107.5 443.5 c 128,-1,8
 31 350 31 350 31 207 c 0,9,10
 31 103 31 103 87 45.5 c 128,-1,11
 143 -12 143 -12 240 -12 c 0,0,1
245 101 m 0,12,13
 172 101 172 101 170 184 c 0,14,15
 170 201 170 201 173 212 c 0,16,17
 173 215 173 215 192 309 c 0,18,19
 215 424 215 424 297 424 c 0,20,21
 371 424 371 424 372 341 c 0,22,23
 372 324 372 324 369 313 c 0,24,25
 369 310 369 310 350 216 c 0,26,27
 328 101 328 101 245 101 c 0,12,13
411 601 m 0,28,29
 477 601 477 601 526 663 c 1,30,-1
 483 732 l 1,31,32
 466 719 466 719 454 713 c 128,-1,33
 442 707 442 707 425 707 c 0,34,35
 405 707 405 707 389 713 c 128,-1,36
 373 719 373 719 353.5 728.5 c 128,-1,37
 334 738 334 738 316.5 744 c 128,-1,38
 299 750 299 750 277 750 c 0,39,40
 211 750 211 750 162 688 c 1,41,-1
 205 619 l 1,42,43
 222 632 222 632 234 638 c 128,-1,44
 246 644 246 644 263 644 c 0,45,46
 283 644 283 644 299 638 c 128,-1,47
 315 632 315 632 334.5 622.5 c 128,-1,48
 354 613 354 613 371.5 607 c 128,-1,49
 389 601 389 601 411 601 c 0,28,29
EndSplineSet
EndChar

StartChar: odieresis
Encoding: 246 246 181
Width: 542
Flags: W
LayerCount: 2
Fore
SplineSet
240 -12 m 0,0,1
 356 -12 356 -12 433.5 82 c 128,-1,2
 511 176 511 176 511 318 c 0,3,4
 511 422 511 422 455 479.5 c 128,-1,5
 399 537 399 537 302 537 c 0,6,7
 184 537 184 537 107.5 443.5 c 128,-1,8
 31 350 31 350 31 207 c 0,9,10
 31 103 31 103 87 45.5 c 128,-1,11
 143 -12 143 -12 240 -12 c 0,0,1
245 101 m 0,12,13
 172 101 172 101 170 184 c 0,14,15
 170 201 170 201 173 212 c 0,16,17
 173 215 173 215 192 309 c 0,18,19
 215 424 215 424 297 424 c 0,20,21
 371 424 371 424 372 341 c 0,22,23
 372 324 372 324 369 313 c 0,24,25
 369 310 369 310 350 216 c 0,26,27
 328 101 328 101 245 101 c 0,12,13
231 600 m 0,28,29
 305 600 305 600 316 663 c 2,30,-1
 319 678 l 2,31,32
 322 693 322 693 322 703 c 0,33,34
 322 723 322 723 307 737 c 128,-1,35
 292 751 292 751 257 751 c 0,36,37
 183 751 183 751 172 688 c 0,38,39
 170 678 170 678 169 670.5 c 128,-1,40
 168 663 168 663 167 657.5 c 128,-1,41
 166 652 166 652 166 648 c 0,42,43
 166 628 166 628 181 614 c 128,-1,44
 196 600 196 600 231 600 c 0,28,29
431 600 m 0,45,46
 505 600 505 600 516 663 c 2,47,-1
 519 678 l 2,48,49
 522 693 522 693 522 703 c 0,50,51
 522 723 522 723 507 737 c 128,-1,52
 492 751 492 751 457 751 c 0,53,54
 383 751 383 751 372 688 c 0,55,56
 370 678 370 678 369 670.5 c 128,-1,57
 368 663 368 663 367 657.5 c 128,-1,58
 366 652 366 652 366 648 c 0,59,60
 366 628 366 628 381 614 c 128,-1,61
 396 600 396 600 431 600 c 0,45,46
EndSplineSet
EndChar

StartChar: divide
Encoding: 247 247 182
Width: 600
Flags: W
LayerCount: 2
Fore
SplineSet
529 248 m 1,0,-1
 552 364 l 1,1,-1
 89 364 l 1,2,-1
 66 248 l 1,3,-1
 529 248 l 1,0,-1
258 30 m 0,4,5
 339 30 339 30 353 96 c 0,6,7
 359 121 359 121 359 140 c 0,8,9
 359 160 359 160 342 175 c 128,-1,10
 325 190 325 190 283 190 c 0,11,12
 202 190 202 190 188 124 c 0,13,14
 182 99 182 99 182 80 c 0,15,16
 182 60 182 60 199 45 c 128,-1,17
 216 30 216 30 258 30 c 0,4,5
335 422 m 0,18,19
 416 422 416 422 430 488 c 0,20,21
 436 513 436 513 436 532 c 0,22,23
 436 552 436 552 419 567 c 128,-1,24
 402 582 402 582 360 582 c 0,25,26
 279 582 279 582 265 516 c 0,27,28
 259 491 259 491 259 472 c 0,29,30
 259 452 259 452 276 437 c 128,-1,31
 293 422 293 422 335 422 c 0,18,19
EndSplineSet
EndChar

StartChar: oslash
Encoding: 248 248 183
Width: 543
Flags: W
LayerCount: 2
Fore
SplineSet
38 -43 m 1,0,-1
 107 28 l 1,1,2
 159 -12 159 -12 240 -12 c 0,3,4
 356 -12 356 -12 434 82 c 128,-1,5
 512 176 512 176 512 318 c 0,6,7
 512 374 512 374 494 418 c 1,8,-1
 577 504 l 1,9,-1
 505 568 l 1,10,-1
 436 497 l 1,11,12
 384 537 384 537 303 537 c 0,13,14
 185 537 185 537 109 443 c 0,15,16
 31 350 31 350 31 207 c 0,17,18
 31 150 31 150 49 107 c 1,19,-1
 -34 21 l 1,20,-1
 38 -43 l 1,0,-1
245 95 m 0,21,22
 209 95 209 95 187 118 c 1,23,-1
 371 305 l 1,24,-1
 353 215 l 2,25,26
 325 95 325 95 245 95 c 0,21,22
171 219 m 1,27,-1
 190 310 l 2,28,29
 219 430 219 430 298 430 c 0,30,31
 334 430 334 430 356 407 c 1,32,-1
 171 219 l 1,27,-1
EndSplineSet
EndChar

StartChar: ugrave
Encoding: 249 249 184
Width: 582
Flags: W
LayerCount: 2
Fore
SplineSet
164 -12 m 256,0,1
 224 -12 224 -12 264 23.5 c 128,-1,2
 304 59 304 59 333 122 c 1,3,-1
 339 122 l 1,4,5
 338 115 338 115 336.5 109 c 128,-1,6
 335 103 335 103 334 94 c 128,-1,7
 333 85 333 85 333 77 c 0,8,9
 333 40 333 40 358 20 c 128,-1,10
 383 0 383 0 421 0 c 2,11,-1
 514 0 l 1,12,-1
 536 112 l 1,13,-1
 477 112 l 1,14,-1
 560 525 l 1,15,-1
 420 525 l 1,16,-1
 366 255 l 2,17,18
 354 197 354 197 318 153 c 0,19,20
 280 105 280 105 234 105 c 0,21,22
 185 105 185 105 185 160 c 0,23,24
 185 183 185 183 192 213 c 2,25,-1
 254 525 l 1,26,-1
 114 525 l 1,27,-1
 49 200 l 2,28,29
 40 165 40 165 40 124 c 0,30,31
 40 59 40 59 72 23.5 c 128,-1,32
 104 -12 104 -12 164 -12 c 256,0,1
322 580 m 1,33,-1
 411 619 l 1,34,-1
 343 815 l 1,35,-1
 217 756 l 1,36,-1
 322 580 l 1,33,-1
EndSplineSet
EndChar

StartChar: uacute
Encoding: 250 250 185
Width: 582
Flags: W
LayerCount: 2
Fore
SplineSet
164 -12 m 256,0,1
 224 -12 224 -12 264 23.5 c 128,-1,2
 304 59 304 59 333 122 c 1,3,-1
 339 122 l 1,4,5
 338 115 338 115 336.5 109 c 128,-1,6
 335 103 335 103 334 94 c 128,-1,7
 333 85 333 85 333 77 c 0,8,9
 333 40 333 40 358 20 c 128,-1,10
 383 0 383 0 421 0 c 2,11,-1
 514 0 l 1,12,-1
 536 112 l 1,13,-1
 477 112 l 1,14,-1
 560 525 l 1,15,-1
 420 525 l 1,16,-1
 366 255 l 2,17,18
 354 197 354 197 318 153 c 0,19,20
 280 105 280 105 234 105 c 0,21,22
 185 105 185 105 185 160 c 0,23,24
 185 183 185 183 192 213 c 2,25,-1
 254 525 l 1,26,-1
 114 525 l 1,27,-1
 49 200 l 2,28,29
 40 165 40 165 40 124 c 0,30,31
 40 59 40 59 72 23.5 c 128,-1,32
 104 -12 104 -12 164 -12 c 256,0,1
364 579 m 1,33,-1
 511 755 l 1,34,-1
 399 815 l 1,35,-1
 280 625 l 1,36,-1
 364 579 l 1,33,-1
EndSplineSet
EndChar

StartChar: ucircumflex
Encoding: 251 251 186
Width: 582
Flags: W
LayerCount: 2
Fore
SplineSet
164 -12 m 256,0,1
 224 -12 224 -12 264 23.5 c 128,-1,2
 304 59 304 59 333 122 c 1,3,-1
 339 122 l 1,4,5
 338 115 338 115 336.5 109 c 128,-1,6
 335 103 335 103 334 94 c 128,-1,7
 333 85 333 85 333 77 c 0,8,9
 333 40 333 40 358 20 c 128,-1,10
 383 0 383 0 421 0 c 2,11,-1
 514 0 l 1,12,-1
 536 112 l 1,13,-1
 477 112 l 1,14,-1
 560 525 l 1,15,-1
 420 525 l 1,16,-1
 366 255 l 2,17,18
 354 197 354 197 318 153 c 0,19,20
 280 105 280 105 234 105 c 0,21,22
 185 105 185 105 185 160 c 0,23,24
 185 183 185 183 192 213 c 2,25,-1
 254 525 l 1,26,-1
 114 525 l 1,27,-1
 49 200 l 2,28,29
 40 165 40 165 40 124 c 0,30,31
 40 59 40 59 72 23.5 c 128,-1,32
 104 -12 104 -12 164 -12 c 256,0,1
464 579 m 1,33,-1
 539 636 l 1,34,-1
 439 794 l 1,35,-1
 317 794 l 1,36,-1
 161 636 l 1,37,-1
 231 579 l 1,38,-1
 365 694 l 1,39,-1
 464 579 l 1,33,-1
EndSplineSet
EndChar

StartChar: udieresis
Encoding: 252 252 187
Width: 582
Flags: W
LayerCount: 2
Fore
SplineSet
164 -12 m 256,0,1
 224 -12 224 -12 264 23.5 c 128,-1,2
 304 59 304 59 333 122 c 1,3,-1
 339 122 l 1,4,5
 338 115 338 115 336.5 109 c 128,-1,6
 335 103 335 103 334 94 c 128,-1,7
 333 85 333 85 333 77 c 0,8,9
 333 40 333 40 358 20 c 128,-1,10
 383 0 383 0 421 0 c 2,11,-1
 514 0 l 1,12,-1
 536 112 l 1,13,-1
 477 112 l 1,14,-1
 560 525 l 1,15,-1
 420 525 l 1,16,-1
 366 255 l 2,17,18
 354 197 354 197 318 153 c 0,19,20
 280 105 280 105 234 105 c 0,21,22
 185 105 185 105 185 160 c 0,23,24
 185 183 185 183 192 213 c 2,25,-1
 254 525 l 1,26,-1
 114 525 l 1,27,-1
 49 200 l 2,28,29
 40 165 40 165 40 124 c 0,30,31
 40 59 40 59 72 23.5 c 128,-1,32
 104 -12 104 -12 164 -12 c 256,0,1
250 600 m 0,33,34
 324 600 324 600 335 663 c 2,35,-1
 338 678 l 2,36,37
 341 693 341 693 341 703 c 0,38,39
 341 723 341 723 326 737 c 128,-1,40
 311 751 311 751 276 751 c 0,41,42
 202 751 202 751 191 688 c 0,43,44
 189 678 189 678 188 670.5 c 128,-1,45
 187 663 187 663 186 657.5 c 128,-1,46
 185 652 185 652 185 648 c 0,47,48
 185 628 185 628 200 614 c 128,-1,49
 215 600 215 600 250 600 c 0,33,34
450 600 m 0,50,51
 524 600 524 600 535 663 c 2,52,-1
 538 678 l 2,53,54
 541 693 541 693 541 703 c 0,55,56
 541 723 541 723 526 737 c 128,-1,57
 511 751 511 751 476 751 c 0,58,59
 402 751 402 751 391 688 c 0,60,61
 389 678 389 678 388 670.5 c 128,-1,62
 387 663 387 663 386 657.5 c 128,-1,63
 385 652 385 652 385 648 c 0,64,65
 385 628 385 628 400 614 c 128,-1,66
 415 600 415 600 450 600 c 0,50,51
EndSplineSet
EndChar

StartChar: yacute
Encoding: 253 253 188
Width: 509
Flags: W
LayerCount: 2
Fore
SplineSet
49 -200 m 2,0,1
 123 -200 123 -200 164.5 -171.5 c 128,-1,2
 206 -143 206 -143 235 -85 c 2,3,-1
 557 525 l 1,4,-1
 408 525 l 1,5,-1
 314 327 l 1,6,-1
 226 131 l 1,7,-1
 220 131 l 1,8,9
 212 229 212 229 203 327.5 c 128,-1,10
 194 426 194 426 184 525 c 1,11,-1
 45 525 l 1,12,-1
 119 -30 l 1,13,-1
 91 -88 l 1,14,-1
 -6 -88 l 1,15,-1
 -29 -200 l 1,16,-1
 49 -200 l 2,0,1
315 579 m 1,17,-1
 462 755 l 1,18,-1
 350 815 l 1,19,-1
 231 625 l 1,20,-1
 315 579 l 1,17,-1
EndSplineSet
EndChar

StartChar: thorn
Encoding: 254 254 189
Width: 583
Flags: W
LayerCount: 2
Fore
SplineSet
114 -200 m 1,0,-1
 172 91 l 1,1,-1
 177 91 l 1,2,3
 183 47 183 47 218 17.5 c 128,-1,4
 253 -12 253 -12 308 -12 c 0,5,6
 409 -12 409 -12 480.5 90 c 128,-1,7
 552 192 552 192 552 355 c 0,8,9
 552 433 552 433 519 485 c 128,-1,10
 486 537 486 537 412 537 c 0,11,12
 350 537 350 537 310.5 502 c 128,-1,13
 271 467 271 467 241 403 c 1,14,-1
 235 403 l 1,15,-1
 302 740 l 1,16,-1
 162 740 l 1,17,-1
 -26 -200 l 1,18,-1
 114 -200 l 1,0,-1
274 103 m 0,19,20
 230 103 230 103 207 126 c 0,21,22
 190 144 190 144 190 170 c 0,23,24
 190 180 190 180 208 270 c 0,25,26
 221 331 221 331 256 374 c 0,27,28
 293 422 293 422 343 422 c 0,29,30
 405 422 405 422 409 347 c 0,31,32
 409 335 409 335 407 319 c 0,33,34
 404 297 404 297 389 220 c 0,35,36
 366 103 366 103 274 103 c 0,19,20
EndSplineSet
EndChar

StartChar: ydieresis
Encoding: 255 255 190
Width: 509
Flags: W
LayerCount: 2
Fore
SplineSet
49 -200 m 2,0,1
 123 -200 123 -200 164.5 -171.5 c 128,-1,2
 206 -143 206 -143 235 -85 c 2,3,-1
 557 525 l 1,4,-1
 408 525 l 1,5,-1
 314 327 l 1,6,-1
 226 131 l 1,7,-1
 220 131 l 1,8,9
 212 229 212 229 203 327.5 c 128,-1,10
 194 426 194 426 184 525 c 1,11,-1
 45 525 l 1,12,-1
 119 -30 l 1,13,-1
 91 -88 l 1,14,-1
 -6 -88 l 1,15,-1
 -29 -200 l 1,16,-1
 49 -200 l 2,0,1
201 600 m 0,17,18
 275 600 275 600 286 663 c 2,19,-1
 289 678 l 2,20,21
 292 693 292 693 292 703 c 0,22,23
 292 723 292 723 277 737 c 128,-1,24
 262 751 262 751 227 751 c 0,25,26
 153 751 153 751 142 688 c 0,27,28
 140 678 140 678 139 670.5 c 128,-1,29
 138 663 138 663 137 657.5 c 128,-1,30
 136 652 136 652 136 648 c 0,31,32
 136 628 136 628 151 614 c 128,-1,33
 166 600 166 600 201 600 c 0,17,18
401 600 m 0,34,35
 475 600 475 600 486 663 c 2,36,-1
 489 678 l 2,37,38
 492 693 492 693 492 703 c 0,39,40
 492 723 492 723 477 737 c 128,-1,41
 462 751 462 751 427 751 c 0,42,43
 353 751 353 751 342 688 c 0,44,45
 340 678 340 678 339 670.5 c 128,-1,46
 338 663 338 663 337 657.5 c 128,-1,47
 336 652 336 652 336 648 c 0,48,49
 336 628 336 628 351 614 c 128,-1,50
 366 600 366 600 401 600 c 0,34,35
EndSplineSet
EndChar

StartChar: Amacron
Encoding: 256 256 191
Width: 658
Flags: W
LayerCount: 2
Fore
SplineSet
588 0 m 1,0,-1
 509 698 l 1,1,-1
 324 698 l 1,2,-1
 -35 0 l 1,3,-1
 120 0 l 1,4,-1
 202 170 l 1,5,-1
 425 170 l 1,6,-1
 441 0 l 1,7,-1
 588 0 l 1,0,-1
415 291 m 1,8,-1
 259 291 l 1,9,-1
 386 567 l 1,10,-1
 394 567 l 1,11,-1
 415 291 l 1,8,-1
567 785 m 1,12,-1
 587 887 l 1,13,-1
 309 887 l 1,14,-1
 289 785 l 1,15,-1
 567 785 l 1,12,-1
EndSplineSet
EndChar

StartChar: amacron
Encoding: 257 257 192
Width: 591
Flags: W
LayerCount: 2
Fore
SplineSet
171 -12 m 0,0,1
 233 -12 233 -12 272.5 23 c 128,-1,2
 312 58 312 58 342 122 c 1,3,-1
 348 122 l 1,4,5
 347 115 347 115 345.5 109 c 128,-1,6
 344 103 344 103 343 94 c 128,-1,7
 342 85 342 85 342 77 c 0,8,9
 342 40 342 40 367 20 c 128,-1,10
 392 0 392 0 430 0 c 2,11,-1
 523 0 l 1,12,-1
 545 112 l 1,13,-1
 486 112 l 1,14,-1
 569 525 l 1,15,-1
 429 525 l 1,16,-1
 411 434 l 1,17,-1
 406 434 l 1,18,19
 400 478 400 478 365 507.5 c 128,-1,20
 330 537 330 537 275 537 c 0,21,22
 175 537 175 537 103 435 c 128,-1,23
 31 333 31 333 31 170 c 0,24,25
 31 92 31 92 64.5 40 c 128,-1,26
 98 -12 98 -12 171 -12 c 0,0,1
240 103 m 0,27,28
 179 103 179 103 174 178 c 0,29,30
 174 190 174 190 176 207 c 0,31,32
 179 228 179 228 194 305 c 0,33,34
 218 422 218 422 309 422 c 0,35,36
 353 422 353 422 376 397 c 0,37,38
 393 379 393 379 393 354 c 0,39,40
 393 345 393 345 375 255 c 0,41,42
 362 194 362 194 327 151 c 0,43,44
 290 103 290 103 240 103 c 0,27,28
489 625 m 1,45,-1
 509 727 l 1,46,-1
 231 727 l 1,47,-1
 211 625 l 1,48,-1
 489 625 l 1,45,-1
EndSplineSet
EndChar

StartChar: Abreve
Encoding: 258 258 193
Width: 658
Flags: W
LayerCount: 2
Fore
SplineSet
588 0 m 1,0,-1
 509 698 l 1,1,-1
 324 698 l 1,2,-1
 -35 0 l 1,3,-1
 120 0 l 1,4,-1
 202 170 l 1,5,-1
 425 170 l 1,6,-1
 441 0 l 1,7,-1
 588 0 l 1,0,-1
415 291 m 1,8,-1
 259 291 l 1,9,-1
 386 567 l 1,10,-1
 394 567 l 1,11,-1
 415 291 l 1,8,-1
423 739 m 0,12,13
 498 739 498 739 554 790 c 0,14,15
 605 839 605 839 640 905 c 1,16,-1
 557 951 l 1,17,-1
 529 914 l 2,18,19
 502 877 502 877 480 858.5 c 128,-1,20
 458 840 458 840 431 840 c 0,21,22
 399 840 399 840 382.5 859 c 128,-1,23
 366 878 366 878 351 912 c 2,24,-1
 333 951 l 1,25,-1
 253 909 l 1,26,27
 263 844 263 844 302 793 c 0,28,29
 346 739 346 739 423 739 c 0,12,13
EndSplineSet
EndChar

StartChar: abreve
Encoding: 259 259 194
Width: 591
Flags: W
LayerCount: 2
Fore
SplineSet
171 -12 m 0,0,1
 233 -12 233 -12 272.5 23 c 128,-1,2
 312 58 312 58 342 122 c 1,3,-1
 348 122 l 1,4,5
 347 115 347 115 345.5 109 c 128,-1,6
 344 103 344 103 343 94 c 128,-1,7
 342 85 342 85 342 77 c 0,8,9
 342 40 342 40 367 20 c 128,-1,10
 392 0 392 0 430 0 c 2,11,-1
 523 0 l 1,12,-1
 545 112 l 1,13,-1
 486 112 l 1,14,-1
 569 525 l 1,15,-1
 429 525 l 1,16,-1
 411 434 l 1,17,-1
 406 434 l 1,18,19
 400 478 400 478 365 507.5 c 128,-1,20
 330 537 330 537 275 537 c 0,21,22
 175 537 175 537 103 435 c 128,-1,23
 31 333 31 333 31 170 c 0,24,25
 31 92 31 92 64.5 40 c 128,-1,26
 98 -12 98 -12 171 -12 c 0,0,1
240 103 m 0,27,28
 179 103 179 103 174 178 c 0,29,30
 174 190 174 190 176 207 c 0,31,32
 179 228 179 228 194 305 c 0,33,34
 218 422 218 422 309 422 c 0,35,36
 353 422 353 422 376 397 c 0,37,38
 393 379 393 379 393 354 c 0,39,40
 393 345 393 345 375 255 c 0,41,42
 362 194 362 194 327 151 c 0,43,44
 290 103 290 103 240 103 c 0,27,28
345 579 m 0,45,46
 420 579 420 579 476 630 c 0,47,48
 527 679 527 679 562 745 c 1,49,-1
 479 791 l 1,50,-1
 451 754 l 2,51,52
 424 717 424 717 402 698.5 c 128,-1,53
 380 680 380 680 353 680 c 0,54,55
 321 680 321 680 304.5 699 c 128,-1,56
 288 718 288 718 273 752 c 2,57,-1
 255 791 l 1,58,-1
 175 749 l 1,59,60
 185 684 185 684 224 633 c 0,61,62
 268 579 268 579 345 579 c 0,45,46
EndSplineSet
EndChar

StartChar: Aogonek
Encoding: 260 260 195
Width: 658
Flags: W
LayerCount: 2
Fore
SplineSet
485 -212 m 0,0,1
 533 -212 533 -212 562.5 -198.5 c 128,-1,2
 592 -185 592 -185 610 -162 c 1,3,-1
 558 -113 l 1,4,5
 541 -140 541 -140 504 -140 c 0,6,7
 469 -140 469 -140 469 -111 c 0,8,9
 469 -93 469 -93 487 -73 c 0,10,11
 508 -48 508 -48 588 0 c 1,12,-1
 509 698 l 1,13,-1
 324 698 l 1,14,-1
 -35 0 l 1,15,-1
 120 0 l 1,16,-1
 202 170 l 1,17,-1
 425 170 l 1,18,-1
 441 0 l 1,19,-1
 503 0 l 1,20,-1
 504 -4 l 1,21,22
 432 -25 432 -25 399 -58 c 128,-1,23
 366 -91 366 -91 366 -129 c 0,24,25
 366 -170 366 -170 400.5 -191 c 128,-1,26
 435 -212 435 -212 485 -212 c 0,0,1
415 291 m 1,27,-1
 259 291 l 1,28,-1
 386 567 l 1,29,-1
 394 567 l 1,30,-1
 415 291 l 1,27,-1
EndSplineSet
EndChar

StartChar: aogonek
Encoding: 261 261 196
Width: 591
Flags: W
LayerCount: 2
Fore
SplineSet
420 -212 m 0,0,1
 468 -212 468 -212 497.5 -198.5 c 128,-1,2
 527 -185 527 -185 545 -162 c 1,3,-1
 493 -113 l 1,4,5
 476 -140 476 -140 439 -140 c 0,6,7
 404 -140 404 -140 404 -111 c 0,8,9
 404 -93 404 -93 422 -73 c 0,10,11
 443 -48 443 -48 523 0 c 1,12,-1
 545 112 l 1,13,-1
 486 112 l 1,14,-1
 569 525 l 1,15,-1
 429 525 l 1,16,-1
 411 434 l 1,17,-1
 406 434 l 1,18,19
 400 478 400 478 365 507.5 c 128,-1,20
 330 537 330 537 275 537 c 0,21,22
 175 537 175 537 103 435 c 128,-1,23
 31 333 31 333 31 170 c 0,24,25
 31 92 31 92 64.5 40 c 128,-1,26
 98 -12 98 -12 171 -12 c 0,27,28
 233 -12 233 -12 272.5 23 c 128,-1,29
 312 58 312 58 342 122 c 1,30,-1
 348 122 l 1,31,32
 347 115 347 115 345.5 109 c 128,-1,33
 344 103 344 103 343 94 c 128,-1,34
 342 85 342 85 342 77 c 0,35,36
 342 40 342 40 367 20 c 128,-1,37
 392 0 392 0 430 0 c 2,38,-1
 438 0 l 1,39,-1
 439 -4 l 1,40,41
 367 -25 367 -25 334 -58 c 128,-1,42
 301 -91 301 -91 301 -129 c 0,43,44
 301 -170 301 -170 335.5 -191 c 128,-1,45
 370 -212 370 -212 420 -212 c 0,0,1
240 103 m 0,46,47
 179 103 179 103 174 178 c 0,48,49
 174 190 174 190 176 207 c 0,50,51
 179 228 179 228 194 305 c 0,52,53
 218 422 218 422 309 422 c 0,54,55
 353 422 353 422 376 397 c 0,56,57
 393 379 393 379 393 354 c 0,58,59
 393 345 393 345 375 255 c 0,60,61
 362 194 362 194 327 151 c 0,62,63
 290 103 290 103 240 103 c 0,46,47
EndSplineSet
EndChar

StartChar: Cacute
Encoding: 262 262 197
Width: 635
Flags: W
LayerCount: 2
Fore
SplineSet
306 -12 m 0,0,1
 397 -12 397 -12 471 31.5 c 128,-1,2
 545 75 545 75 593 166 c 1,3,-1
 472 221 l 1,4,5
 450 174 450 174 414 145.5 c 128,-1,6
 378 117 378 117 319 117 c 0,7,8
 204 117 204 117 204 246 c 0,9,10
 204 266 204 266 209 296 c 2,11,-1
 231 406 l 2,12,13
 247 486 247 486 290.5 533.5 c 128,-1,14
 334 581 334 581 404 581 c 0,15,16
 460 581 460 581 485.5 554.5 c 128,-1,17
 511 528 511 528 522 486 c 1,18,-1
 651 540 l 1,19,20
 626 622 626 622 567.5 666 c 128,-1,21
 509 710 509 710 415 710 c 0,22,23
 339 710 339 710 273.5 676.5 c 128,-1,24
 208 643 208 643 160 583 c 128,-1,25
 112 523 112 523 84.5 443.5 c 128,-1,26
 57 364 57 364 57 272 c 0,27,28
 57 130 57 130 126 60 c 0,29,30
 194 -12 194 -12 306 -12 c 0,0,1
447 739 m 1,31,-1
 594 915 l 1,32,-1
 482 975 l 1,33,-1
 363 785 l 1,34,-1
 447 739 l 1,31,-1
EndSplineSet
EndChar

StartChar: cacute
Encoding: 263 263 198
Width: 494
Flags: W
LayerCount: 2
Fore
SplineSet
237 -12 m 0,0,1
 387 -12 387 -12 460 134 c 1,2,-1
 353 184 l 1,3,4
 332 147 332 147 311 124 c 128,-1,5
 290 101 290 101 249 101 c 0,6,7
 170 101 170 101 170 183 c 0,8,9
 170 203 170 203 175 225 c 2,10,-1
 193 314 l 2,11,12
 215 424 215 424 302 424 c 0,13,14
 340 424 340 424 356 405.5 c 128,-1,15
 372 387 372 387 380 356 c 1,16,-1
 498 401 l 1,17,18
 486 463 486 463 437 500 c 0,19,20
 384 537 384 537 310 537 c 0,21,22
 190 537 190 537 110.5 446 c 128,-1,23
 31 355 31 355 31 215 c 0,24,25
 31 99 31 99 91 41 c 0,26,27
 145 -12 145 -12 237 -12 c 0,0,1
341 579 m 1,28,-1
 488 755 l 1,29,-1
 376 815 l 1,30,-1
 257 625 l 1,31,-1
 341 579 l 1,28,-1
EndSplineSet
EndChar

StartChar: Ccircumflex
Encoding: 264 264 199
Width: 635
Flags: W
LayerCount: 2
Fore
SplineSet
306 -12 m 0,0,1
 397 -12 397 -12 471 31.5 c 128,-1,2
 545 75 545 75 593 166 c 1,3,-1
 472 221 l 1,4,5
 450 174 450 174 414 145.5 c 128,-1,6
 378 117 378 117 319 117 c 0,7,8
 204 117 204 117 204 246 c 0,9,10
 204 266 204 266 209 296 c 2,11,-1
 231 406 l 2,12,13
 247 486 247 486 290.5 533.5 c 128,-1,14
 334 581 334 581 404 581 c 0,15,16
 460 581 460 581 485.5 554.5 c 128,-1,17
 511 528 511 528 522 486 c 1,18,-1
 651 540 l 1,19,20
 626 622 626 622 567.5 666 c 128,-1,21
 509 710 509 710 415 710 c 0,22,23
 339 710 339 710 273.5 676.5 c 128,-1,24
 208 643 208 643 160 583 c 128,-1,25
 112 523 112 523 84.5 443.5 c 128,-1,26
 57 364 57 364 57 272 c 0,27,28
 57 130 57 130 126 60 c 0,29,30
 194 -12 194 -12 306 -12 c 0,0,1
547 739 m 1,31,-1
 622 796 l 1,32,-1
 522 954 l 1,33,-1
 400 954 l 1,34,-1
 244 796 l 1,35,-1
 314 739 l 1,36,-1
 448 854 l 1,37,-1
 547 739 l 1,31,-1
EndSplineSet
EndChar

StartChar: ccircumflex
Encoding: 265 265 200
Width: 494
Flags: W
LayerCount: 2
Fore
SplineSet
237 -12 m 0,0,1
 387 -12 387 -12 460 134 c 1,2,-1
 353 184 l 1,3,4
 332 147 332 147 311 124 c 128,-1,5
 290 101 290 101 249 101 c 0,6,7
 170 101 170 101 170 183 c 0,8,9
 170 203 170 203 175 225 c 2,10,-1
 193 314 l 2,11,12
 215 424 215 424 302 424 c 0,13,14
 340 424 340 424 356 405.5 c 128,-1,15
 372 387 372 387 380 356 c 1,16,-1
 498 401 l 1,17,18
 486 463 486 463 437 500 c 0,19,20
 384 537 384 537 310 537 c 0,21,22
 190 537 190 537 110.5 446 c 128,-1,23
 31 355 31 355 31 215 c 0,24,25
 31 99 31 99 91 41 c 0,26,27
 145 -12 145 -12 237 -12 c 0,0,1
441 579 m 1,28,-1
 516 636 l 1,29,-1
 416 794 l 1,30,-1
 294 794 l 1,31,-1
 138 636 l 1,32,-1
 208 579 l 1,33,-1
 342 694 l 1,34,-1
 441 579 l 1,28,-1
EndSplineSet
EndChar

StartChar: Cdot
Encoding: 266 266 201
Width: 635
Flags: W
LayerCount: 2
Fore
SplineSet
306 -12 m 0,0,1
 397 -12 397 -12 471 31.5 c 128,-1,2
 545 75 545 75 593 166 c 1,3,-1
 472 221 l 1,4,5
 450 174 450 174 414 145.5 c 128,-1,6
 378 117 378 117 319 117 c 0,7,8
 204 117 204 117 204 246 c 0,9,10
 204 266 204 266 209 296 c 2,11,-1
 231 406 l 2,12,13
 247 486 247 486 290.5 533.5 c 128,-1,14
 334 581 334 581 404 581 c 0,15,16
 460 581 460 581 485.5 554.5 c 128,-1,17
 511 528 511 528 522 486 c 1,18,-1
 651 540 l 1,19,20
 626 622 626 622 567.5 666 c 128,-1,21
 509 710 509 710 415 710 c 0,22,23
 339 710 339 710 273.5 676.5 c 128,-1,24
 208 643 208 643 160 583 c 128,-1,25
 112 523 112 523 84.5 443.5 c 128,-1,26
 57 364 57 364 57 272 c 0,27,28
 57 130 57 130 126 60 c 0,29,30
 194 -12 194 -12 306 -12 c 0,0,1
434 751 m 0,31,32
 482 751 482 751 503 769.5 c 128,-1,33
 524 788 524 788 528 818 c 0,34,35
 535 851 535 851 535 860 c 0,36,37
 535 919 535 919 459 919 c 0,38,39
 411 919 411 919 390 900.5 c 128,-1,40
 369 882 369 882 365 852 c 2,41,-1
 360 824 l 2,42,43
 358 816 358 816 358 810 c 0,44,45
 358 751 358 751 434 751 c 0,31,32
EndSplineSet
EndChar

StartChar: cdot
Encoding: 267 267 202
Width: 494
Flags: W
LayerCount: 2
Fore
SplineSet
237 -12 m 0,0,1
 387 -12 387 -12 460 134 c 1,2,-1
 353 184 l 1,3,4
 332 147 332 147 311 124 c 128,-1,5
 290 101 290 101 249 101 c 0,6,7
 170 101 170 101 170 183 c 0,8,9
 170 203 170 203 175 225 c 2,10,-1
 193 314 l 2,11,12
 215 424 215 424 302 424 c 0,13,14
 340 424 340 424 356 405.5 c 128,-1,15
 372 387 372 387 380 356 c 1,16,-1
 498 401 l 1,17,18
 486 463 486 463 437 500 c 0,19,20
 384 537 384 537 310 537 c 0,21,22
 190 537 190 537 110.5 446 c 128,-1,23
 31 355 31 355 31 215 c 0,24,25
 31 99 31 99 91 41 c 0,26,27
 145 -12 145 -12 237 -12 c 0,0,1
327 591 m 0,28,29
 375 591 375 591 396 609.5 c 128,-1,30
 417 628 417 628 421 658 c 0,31,32
 428 691 428 691 428 700 c 0,33,34
 428 759 428 759 352 759 c 0,35,36
 304 759 304 759 283 740.5 c 128,-1,37
 262 722 262 722 258 692 c 2,38,-1
 253 664 l 2,39,40
 251 656 251 656 251 650 c 0,41,42
 251 591 251 591 327 591 c 0,28,29
EndSplineSet
EndChar

StartChar: Ccaron
Encoding: 268 268 203
Width: 635
Flags: W
LayerCount: 2
Fore
SplineSet
306 -12 m 0,0,1
 397 -12 397 -12 471 31.5 c 128,-1,2
 545 75 545 75 593 166 c 1,3,-1
 472 221 l 1,4,5
 450 174 450 174 414 145.5 c 128,-1,6
 378 117 378 117 319 117 c 0,7,8
 204 117 204 117 204 246 c 0,9,10
 204 266 204 266 209 296 c 2,11,-1
 231 406 l 2,12,13
 247 486 247 486 290.5 533.5 c 128,-1,14
 334 581 334 581 404 581 c 0,15,16
 460 581 460 581 485.5 554.5 c 128,-1,17
 511 528 511 528 522 486 c 1,18,-1
 651 540 l 1,19,20
 626 622 626 622 567.5 666 c 128,-1,21
 509 710 509 710 415 710 c 0,22,23
 339 710 339 710 273.5 676.5 c 128,-1,24
 208 643 208 643 160 583 c 128,-1,25
 112 523 112 523 84.5 443.5 c 128,-1,26
 57 364 57 364 57 272 c 0,27,28
 57 130 57 130 126 60 c 0,29,30
 194 -12 194 -12 306 -12 c 0,0,1
490 748 m 1,31,-1
 645 906 l 1,32,-1
 573 963 l 1,33,-1
 436 848 l 1,34,-1
 340 963 l 1,35,-1
 266 906 l 1,36,-1
 367 748 l 1,37,-1
 490 748 l 1,31,-1
EndSplineSet
EndChar

StartChar: ccaron
Encoding: 269 269 204
Width: 494
Flags: W
LayerCount: 2
Fore
SplineSet
237 -12 m 0,0,1
 387 -12 387 -12 460 134 c 1,2,-1
 353 184 l 1,3,4
 332 147 332 147 311 124 c 128,-1,5
 290 101 290 101 249 101 c 0,6,7
 170 101 170 101 170 183 c 0,8,9
 170 203 170 203 175 225 c 2,10,-1
 193 314 l 2,11,12
 215 424 215 424 302 424 c 0,13,14
 340 424 340 424 356 405.5 c 128,-1,15
 372 387 372 387 380 356 c 1,16,-1
 498 401 l 1,17,18
 486 463 486 463 437 500 c 0,19,20
 384 537 384 537 310 537 c 0,21,22
 190 537 190 537 110.5 446 c 128,-1,23
 31 355 31 355 31 215 c 0,24,25
 31 99 31 99 91 41 c 0,26,27
 145 -12 145 -12 237 -12 c 0,0,1
384 588 m 1,28,-1
 539 746 l 1,29,-1
 467 803 l 1,30,-1
 330 688 l 1,31,-1
 234 803 l 1,32,-1
 160 746 l 1,33,-1
 261 588 l 1,34,-1
 384 588 l 1,28,-1
EndSplineSet
EndChar

StartChar: Dcaron
Encoding: 270 270 205
Width: 682
Flags: W
LayerCount: 2
Fore
SplineSet
288 0 m 2,0,1
 376 0 376 0 444.5 33.5 c 128,-1,2
 513 67 513 67 560 126 c 0,3,4
 654 251 654 251 654 437 c 0,5,6
 654 566 654 566 582.5 632 c 128,-1,7
 511 698 511 698 386 698 c 2,8,-1
 162 698 l 1,9,-1
 22 0 l 1,10,-1
 288 0 l 2,0,1
300 128 m 2,11,-1
 193 128 l 1,12,-1
 282 570 l 1,13,-1
 395 570 l 2,14,15
 507 570 507 570 507 452 c 0,16,17
 507 443 507 443 505.5 425.5 c 128,-1,18
 504 408 504 408 481 296 c 0,19,20
 463 210 463 210 415.5 169 c 128,-1,21
 368 128 368 128 300 128 c 2,11,-1
464 748 m 1,22,-1
 619 906 l 1,23,-1
 547 963 l 1,24,-1
 410 848 l 1,25,-1
 314 963 l 1,26,-1
 240 906 l 1,27,-1
 341 748 l 1,28,-1
 464 748 l 1,22,-1
EndSplineSet
EndChar

StartChar: dcaron
Encoding: 271 271 206
Width: 660
Flags: W
LayerCount: 2
Fore
SplineSet
171 -12 m 0,0,1
 233 -12 233 -12 272.5 23 c 128,-1,2
 312 58 312 58 342 122 c 1,3,-1
 348 122 l 1,4,5
 347 115 347 115 345.5 109 c 128,-1,6
 344 103 344 103 343 94 c 128,-1,7
 342 85 342 85 342 77 c 0,8,9
 342 40 342 40 367 20 c 128,-1,10
 392 0 392 0 430 0 c 2,11,-1
 523 0 l 1,12,-1
 545 112 l 1,13,-1
 486 112 l 1,14,-1
 612 740 l 1,15,-1
 472 740 l 1,16,-1
 411 434 l 1,17,-1
 406 434 l 1,18,19
 400 478 400 478 365 507.5 c 128,-1,20
 330 537 330 537 275 537 c 0,21,22
 175 537 175 537 103 435 c 128,-1,23
 31 333 31 333 31 170 c 0,24,25
 31 92 31 92 64.5 40 c 128,-1,26
 98 -12 98 -12 171 -12 c 0,0,1
240 103 m 0,27,28
 179 103 179 103 174 178 c 0,29,30
 174 190 174 190 176 207 c 0,31,32
 179 228 179 228 194 305 c 0,33,34
 218 422 218 422 309 422 c 0,35,36
 353 422 353 422 376 399 c 0,37,38
 393 381 393 381 393 355 c 0,39,40
 393 345 393 345 375 255 c 0,41,42
 362 194 362 194 327 151 c 0,43,44
 290 103 290 103 240 103 c 0,27,28
723 525 m 1,45,-1
 832 740 l 1,46,-1
 676 740 l 1,47,-1
 626 525 l 1,48,-1
 723 525 l 1,45,-1
EndSplineSet
EndChar

StartChar: Dcroat
Encoding: 272 272 207
Width: 687
Flags: W
LayerCount: 2
Fore
SplineSet
293 0 m 2,0,1
 381 0 381 0 449.5 33.5 c 128,-1,2
 518 67 518 67 565 126 c 0,3,4
 659 251 659 251 659 437 c 0,5,6
 659 566 659 566 587.5 632 c 128,-1,7
 516 698 516 698 391 698 c 2,8,-1
 167 698 l 1,9,-1
 109 410 l 1,10,-1
 33 410 l 1,11,-1
 10 298 l 1,12,-1
 88 298 l 1,13,-1
 27 0 l 1,14,-1
 293 0 l 2,0,1
305 128 m 2,15,-1
 198 128 l 1,16,-1
 231 298 l 1,17,-1
 344 298 l 1,18,-1
 367 410 l 1,19,-1
 254 410 l 1,20,-1
 286 570 l 1,21,-1
 400 570 l 2,22,23
 512 570 512 570 512 452 c 0,24,25
 512 443 512 443 510.5 425.5 c 128,-1,26
 509 408 509 408 486 296 c 0,27,28
 468 211 468 211 421 169.5 c 128,-1,29
 374 128 374 128 305 128 c 2,15,-1
EndSplineSet
EndChar

StartChar: dcroat
Encoding: 273 273 208
Width: 591
Flags: W
LayerCount: 2
Fore
SplineSet
171 -12 m 0,0,1
 233 -12 233 -12 272.5 23 c 128,-1,2
 312 58 312 58 342 122 c 1,3,-1
 348 122 l 1,4,5
 347 115 347 115 345.5 109 c 128,-1,6
 344 103 344 103 343 94 c 128,-1,7
 342 85 342 85 342 77 c 0,8,9
 342 40 342 40 367 20 c 128,-1,10
 392 0 392 0 430 0 c 2,11,-1
 523 0 l 1,12,-1
 545 112 l 1,13,-1
 486 112 l 1,14,-1
 583 592 l 1,15,-1
 640 592 l 1,16,-1
 660 688 l 1,17,-1
 602 688 l 1,18,-1
 612 740 l 1,19,-1
 472 740 l 1,20,-1
 462 688 l 1,21,-1
 311 688 l 1,22,-1
 292 592 l 1,23,-1
 443 592 l 1,24,-1
 411 434 l 1,25,-1
 406 434 l 1,26,27
 400 478 400 478 365 507.5 c 128,-1,28
 330 537 330 537 275 537 c 0,29,30
 175 537 175 537 103 435 c 128,-1,31
 31 333 31 333 31 170 c 0,32,33
 31 92 31 92 64.5 40 c 128,-1,34
 98 -12 98 -12 171 -12 c 0,0,1
240 103 m 0,35,36
 179 103 179 103 174 178 c 0,37,38
 174 190 174 190 176 207 c 0,39,40
 179 228 179 228 194 305 c 0,41,42
 218 422 218 422 309 422 c 0,43,44
 353 422 353 422 376 399 c 0,45,46
 393 381 393 381 393 355 c 0,47,48
 393 345 393 345 375 255 c 0,49,50
 362 194 362 194 327 151 c 0,51,52
 290 103 290 103 240 103 c 0,35,36
EndSplineSet
EndChar

StartChar: Emacron
Encoding: 274 274 209
Width: 578
Flags: W
LayerCount: 2
Fore
SplineSet
481 0 m 1,0,-1
 507 128 l 1,1,-1
 193 128 l 1,2,-1
 225 289 l 1,3,-1
 493 289 l 1,4,-1
 519 417 l 1,5,-1
 251 417 l 1,6,-1
 282 570 l 1,7,-1
 585 570 l 1,8,-1
 611 698 l 1,9,-1
 162 698 l 1,10,-1
 22 0 l 1,11,-1
 481 0 l 1,0,-1
542 785 m 1,12,-1
 562 887 l 1,13,-1
 284 887 l 1,14,-1
 264 785 l 1,15,-1
 542 785 l 1,12,-1
EndSplineSet
EndChar

StartChar: emacron
Encoding: 275 275 210
Width: 515
Flags: W
LayerCount: 2
Fore
SplineSet
253 -12 m 0,0,1
 321 -12 321 -12 375 15 c 128,-1,2
 429 42 429 42 477 106 c 1,3,-1
 391 174 l 1,4,5
 356 131 356 131 326.5 116 c 128,-1,6
 297 101 297 101 263 101 c 0,7,8
 211 101 211 101 190.5 124 c 128,-1,9
 170 147 170 147 170 185 c 0,10,11
 170 198 170 198 171 204 c 2,12,-1
 172 208 l 1,13,14
 504 219 504 219 504 391 c 0,15,16
 504 469 504 469 440 507 c 0,17,18
 388 537 388 537 316 537 c 0,19,20
 251 537 251 537 198 510.5 c 128,-1,21
 145 484 145 484 108 439 c 0,22,23
 31 340 31 340 31 214 c 0,24,25
 31 109 31 109 86 48.5 c 128,-1,26
 141 -12 141 -12 253 -12 c 0,0,1
187 297 m 1,27,-1
 191 320 l 2,28,29
 201 372 201 372 232 401 c 128,-1,30
 263 430 263 430 308 430 c 0,31,32
 368 430 368 430 368 377 c 0,33,34
 368 361 368 361 361 348 c 128,-1,35
 354 335 354 335 334 325 c 0,36,37
 297 304 297 304 187 297 c 1,27,-1
479 625 m 1,38,-1
 499 727 l 1,39,-1
 221 727 l 1,40,-1
 201 625 l 1,41,-1
 479 625 l 1,38,-1
EndSplineSet
EndChar

StartChar: Ebreve
Encoding: 276 276 211
Width: 578
Flags: W
LayerCount: 2
Fore
SplineSet
481 0 m 1,0,-1
 507 128 l 1,1,-1
 193 128 l 1,2,-1
 225 289 l 1,3,-1
 493 289 l 1,4,-1
 519 417 l 1,5,-1
 251 417 l 1,6,-1
 282 570 l 1,7,-1
 585 570 l 1,8,-1
 611 698 l 1,9,-1
 162 698 l 1,10,-1
 22 0 l 1,11,-1
 481 0 l 1,0,-1
398 739 m 0,12,13
 473 739 473 739 529 790 c 0,14,15
 580 839 580 839 615 905 c 1,16,-1
 532 951 l 1,17,-1
 504 914 l 2,18,19
 477 877 477 877 455 858.5 c 128,-1,20
 433 840 433 840 406 840 c 0,21,22
 374 840 374 840 357.5 859 c 128,-1,23
 341 878 341 878 326 912 c 2,24,-1
 308 951 l 1,25,-1
 228 909 l 1,26,27
 238 844 238 844 277 793 c 0,28,29
 321 739 321 739 398 739 c 0,12,13
EndSplineSet
EndChar

StartChar: ebreve
Encoding: 277 277 212
Width: 515
Flags: W
LayerCount: 2
Fore
SplineSet
253 -12 m 0,0,1
 321 -12 321 -12 375 15 c 128,-1,2
 429 42 429 42 477 106 c 1,3,-1
 391 174 l 1,4,5
 356 131 356 131 326.5 116 c 128,-1,6
 297 101 297 101 263 101 c 0,7,8
 211 101 211 101 190.5 124 c 128,-1,9
 170 147 170 147 170 185 c 0,10,11
 170 198 170 198 171 204 c 2,12,-1
 172 208 l 1,13,14
 504 219 504 219 504 391 c 0,15,16
 504 469 504 469 440 507 c 0,17,18
 388 537 388 537 316 537 c 0,19,20
 251 537 251 537 198 510.5 c 128,-1,21
 145 484 145 484 108 439 c 0,22,23
 31 340 31 340 31 214 c 0,24,25
 31 109 31 109 86 48.5 c 128,-1,26
 141 -12 141 -12 253 -12 c 0,0,1
187 297 m 1,27,-1
 191 320 l 2,28,29
 201 372 201 372 232 401 c 128,-1,30
 263 430 263 430 308 430 c 0,31,32
 368 430 368 430 368 377 c 0,33,34
 368 361 368 361 361 348 c 128,-1,35
 354 335 354 335 334 325 c 0,36,37
 297 304 297 304 187 297 c 1,27,-1
335 579 m 0,38,39
 410 579 410 579 466 630 c 0,40,41
 517 679 517 679 552 745 c 1,42,-1
 469 791 l 1,43,-1
 441 754 l 2,44,45
 414 717 414 717 392 698.5 c 128,-1,46
 370 680 370 680 343 680 c 0,47,48
 311 680 311 680 294.5 699 c 128,-1,49
 278 718 278 718 263 752 c 2,50,-1
 245 791 l 1,51,-1
 165 749 l 1,52,53
 175 684 175 684 214 633 c 0,54,55
 258 579 258 579 335 579 c 0,38,39
EndSplineSet
EndChar

StartChar: Edot
Encoding: 278 278 213
Width: 578
Flags: W
LayerCount: 2
Fore
SplineSet
481 0 m 1,0,-1
 507 128 l 1,1,-1
 193 128 l 1,2,-1
 225 289 l 1,3,-1
 493 289 l 1,4,-1
 519 417 l 1,5,-1
 251 417 l 1,6,-1
 282 570 l 1,7,-1
 585 570 l 1,8,-1
 611 698 l 1,9,-1
 162 698 l 1,10,-1
 22 0 l 1,11,-1
 481 0 l 1,0,-1
401 751 m 0,12,13
 449 751 449 751 470 769.5 c 128,-1,14
 491 788 491 788 495 818 c 0,15,16
 502 851 502 851 502 860 c 0,17,18
 502 919 502 919 426 919 c 0,19,20
 378 919 378 919 357 900.5 c 128,-1,21
 336 882 336 882 332 852 c 2,22,-1
 327 824 l 2,23,24
 325 816 325 816 325 810 c 0,25,26
 325 751 325 751 401 751 c 0,12,13
EndSplineSet
EndChar

StartChar: edot
Encoding: 279 279 214
Width: 515
Flags: W
LayerCount: 2
Fore
SplineSet
253 -12 m 0,0,1
 321 -12 321 -12 375 15 c 128,-1,2
 429 42 429 42 477 106 c 1,3,-1
 391 174 l 1,4,5
 356 131 356 131 326.5 116 c 128,-1,6
 297 101 297 101 263 101 c 0,7,8
 211 101 211 101 190.5 124 c 128,-1,9
 170 147 170 147 170 185 c 0,10,11
 170 198 170 198 171 204 c 2,12,-1
 172 208 l 1,13,14
 504 219 504 219 504 391 c 0,15,16
 504 469 504 469 440 507 c 0,17,18
 388 537 388 537 316 537 c 0,19,20
 251 537 251 537 198 510.5 c 128,-1,21
 145 484 145 484 108 439 c 0,22,23
 31 340 31 340 31 214 c 0,24,25
 31 109 31 109 86 48.5 c 128,-1,26
 141 -12 141 -12 253 -12 c 0,0,1
187 297 m 1,27,-1
 191 320 l 2,28,29
 201 372 201 372 232 401 c 128,-1,30
 263 430 263 430 308 430 c 0,31,32
 368 430 368 430 368 377 c 0,33,34
 368 361 368 361 361 348 c 128,-1,35
 354 335 354 335 334 325 c 0,36,37
 297 304 297 304 187 297 c 1,27,-1
337 591 m 0,38,39
 385 591 385 591 406 609.5 c 128,-1,40
 427 628 427 628 431 658 c 0,41,42
 438 691 438 691 438 700 c 0,43,44
 438 759 438 759 362 759 c 0,45,46
 314 759 314 759 293 740.5 c 128,-1,47
 272 722 272 722 268 692 c 2,48,-1
 263 664 l 2,49,50
 261 656 261 656 261 650 c 0,51,52
 261 591 261 591 337 591 c 0,38,39
EndSplineSet
EndChar

StartChar: Eogonek
Encoding: 280 280 215
Width: 578
Flags: W
LayerCount: 2
Fore
SplineSet
378 -212 m 0,0,1
 426 -212 426 -212 455.5 -198.5 c 128,-1,2
 485 -185 485 -185 503 -162 c 1,3,-1
 451 -113 l 1,4,5
 434 -140 434 -140 397 -140 c 0,6,7
 362 -140 362 -140 362 -111 c 0,8,9
 362 -93 362 -93 380 -73 c 0,10,11
 401 -48 401 -48 481 0 c 1,12,-1
 507 128 l 1,13,-1
 193 128 l 1,14,-1
 225 289 l 1,15,-1
 493 289 l 1,16,-1
 519 417 l 1,17,-1
 251 417 l 1,18,-1
 282 570 l 1,19,-1
 585 570 l 1,20,-1
 611 698 l 1,21,-1
 162 698 l 1,22,-1
 22 0 l 1,23,-1
 396 0 l 1,24,-1
 397 -4 l 1,25,26
 325 -25 325 -25 292 -58 c 128,-1,27
 259 -91 259 -91 259 -129 c 0,28,29
 259 -170 259 -170 293.5 -191 c 128,-1,30
 328 -212 328 -212 378 -212 c 0,0,1
EndSplineSet
EndChar

StartChar: eogonek
Encoding: 281 281 216
Width: 515
Flags: W
LayerCount: 2
Fore
SplineSet
234 -212 m 0,0,1
 282 -212 282 -212 311.5 -198.5 c 128,-1,2
 341 -185 341 -185 359 -162 c 1,3,-1
 307 -113 l 1,4,5
 290 -140 290 -140 253 -140 c 0,6,7
 218 -140 218 -140 218 -111 c 0,8,9
 218 -105 218 -105 221 -95 c 0,10,11
 233 -60 233 -60 335 -4 c 0,12,13
 352 5 352 5 368.5 13 c 128,-1,14
 385 21 385 21 403 33 c 0,15,16
 437 55 437 55 477 106 c 1,17,-1
 391 174 l 1,18,19
 356 131 356 131 326.5 116 c 128,-1,20
 297 101 297 101 263 101 c 0,21,22
 211 101 211 101 190.5 124 c 128,-1,23
 170 147 170 147 170 185 c 0,24,25
 170 198 170 198 171 204 c 2,26,-1
 172 208 l 1,27,28
 504 219 504 219 504 391 c 0,29,30
 504 469 504 469 440 507 c 0,31,32
 388 537 388 537 316 537 c 0,33,34
 251 537 251 537 198 510.5 c 128,-1,35
 145 484 145 484 108 439 c 0,36,37
 31 340 31 340 31 214 c 0,38,39
 31 116 31 116 80.5 55.5 c 128,-1,40
 130 -5 130 -5 233 -11 c 1,41,-1
 234 -15 l 1,42,43
 174 -33 174 -33 144.5 -63.5 c 128,-1,44
 115 -94 115 -94 115 -129 c 0,45,46
 115 -170 115 -170 149.5 -191 c 128,-1,47
 184 -212 184 -212 234 -212 c 0,0,1
187 297 m 1,48,-1
 191 320 l 2,49,50
 201 372 201 372 232 401 c 128,-1,51
 263 430 263 430 308 430 c 0,52,53
 368 430 368 430 368 377 c 0,54,55
 368 361 368 361 361 348 c 128,-1,56
 354 335 354 335 334 325 c 0,57,58
 297 304 297 304 187 297 c 1,48,-1
EndSplineSet
EndChar

StartChar: Ecaron
Encoding: 282 282 217
Width: 578
Flags: W
LayerCount: 2
Fore
SplineSet
481 0 m 1,0,-1
 507 128 l 1,1,-1
 193 128 l 1,2,-1
 225 289 l 1,3,-1
 493 289 l 1,4,-1
 519 417 l 1,5,-1
 251 417 l 1,6,-1
 282 570 l 1,7,-1
 585 570 l 1,8,-1
 611 698 l 1,9,-1
 162 698 l 1,10,-1
 22 0 l 1,11,-1
 481 0 l 1,0,-1
457 748 m 1,12,-1
 612 906 l 1,13,-1
 540 963 l 1,14,-1
 403 848 l 1,15,-1
 307 963 l 1,16,-1
 233 906 l 1,17,-1
 334 748 l 1,18,-1
 457 748 l 1,12,-1
EndSplineSet
EndChar

StartChar: ecaron
Encoding: 283 283 218
Width: 515
Flags: W
LayerCount: 2
Fore
SplineSet
253 -12 m 0,0,1
 321 -12 321 -12 375 15 c 128,-1,2
 429 42 429 42 477 106 c 1,3,-1
 391 174 l 1,4,5
 356 131 356 131 326.5 116 c 128,-1,6
 297 101 297 101 263 101 c 0,7,8
 211 101 211 101 190.5 124 c 128,-1,9
 170 147 170 147 170 185 c 0,10,11
 170 198 170 198 171 204 c 2,12,-1
 172 208 l 1,13,14
 504 219 504 219 504 391 c 0,15,16
 504 469 504 469 440 507 c 0,17,18
 388 537 388 537 316 537 c 0,19,20
 251 537 251 537 198 510.5 c 128,-1,21
 145 484 145 484 108 439 c 0,22,23
 31 340 31 340 31 214 c 0,24,25
 31 109 31 109 86 48.5 c 128,-1,26
 141 -12 141 -12 253 -12 c 0,0,1
187 297 m 1,27,-1
 191 320 l 2,28,29
 201 372 201 372 232 401 c 128,-1,30
 263 430 263 430 308 430 c 0,31,32
 368 430 368 430 368 377 c 0,33,34
 368 361 368 361 361 348 c 128,-1,35
 354 335 354 335 334 325 c 0,36,37
 297 304 297 304 187 297 c 1,27,-1
394 588 m 1,38,-1
 549 746 l 1,39,-1
 477 803 l 1,40,-1
 340 688 l 1,41,-1
 244 803 l 1,42,-1
 170 746 l 1,43,-1
 271 588 l 1,44,-1
 394 588 l 1,38,-1
EndSplineSet
EndChar

StartChar: Gcircumflex
Encoding: 284 284 219
Width: 700
Flags: W
LayerCount: 2
Fore
SplineSet
283 -12 m 0,0,1
 354 -12 354 -12 401 23.5 c 128,-1,2
 448 59 448 59 474 111 c 1,3,-1
 482 111 l 1,4,-1
 460 0 l 1,5,-1
 579 0 l 1,6,-1
 656 386 l 1,7,-1
 392 386 l 1,8,-1
 368 264 l 1,9,-1
 494 264 l 1,10,-1
 487 230 l 2,11,12
 476 181 476 181 429.5 149 c 128,-1,13
 383 117 383 117 318 117 c 0,14,15
 272 117 272 117 237.5 146 c 128,-1,16
 203 175 203 175 203 241 c 0,17,18
 203 267 203 267 209 297 c 2,19,-1
 231 407 l 2,20,21
 264 581 264 581 417 581 c 0,22,23
 471 581 471 581 507.5 555.5 c 128,-1,24
 544 530 544 530 556 481 c 1,25,-1
 677 545 l 1,26,27
 652 625 652 625 586 668 c 0,28,29
 517 710 517 710 425 710 c 0,30,31
 342 710 342 710 274.5 677 c 128,-1,32
 207 644 207 644 159 584 c 0,33,34
 57 456 57 456 57 268 c 0,35,36
 57 129 57 129 120 58.5 c 128,-1,37
 183 -12 183 -12 283 -12 c 0,0,1
558 739 m 1,38,-1
 633 796 l 1,39,-1
 533 954 l 1,40,-1
 411 954 l 1,41,-1
 255 796 l 1,42,-1
 325 739 l 1,43,-1
 459 854 l 1,44,-1
 558 739 l 1,38,-1
EndSplineSet
EndChar

StartChar: gcircumflex
Encoding: 285 285 220
Width: 572
Flags: W
LayerCount: 2
Fore
SplineSet
455 579 m 1,0,-1
 356 694 l 1,1,-1
 222 579 l 1,2,-1
 152 636 l 1,3,-1
 308 794 l 1,4,-1
 430 794 l 1,5,-1
 530 636 l 1,6,-1
 455 579 l 1,0,-1
207 -212 m 0,7,8
 141 -212 141 -212 87.5 -190.5 c 128,-1,9
 34 -169 34 -169 -4 -118 c 1,10,-1
 85 -37 l 1,11,12
 127 -100 127 -100 203 -100 c 0,13,14
 304 -100 304 -100 328 26 c 2,15,-1
 350 136 l 1,16,-1
 344 136 l 1,17,18
 314 72 314 72 274.5 37 c 128,-1,19
 235 2 235 2 173 2 c 0,20,21
 100 2 100 2 66.5 53.5 c 128,-1,22
 33 105 33 105 33 184 c 0,23,24
 33 296 33 296 65.5 374.5 c 128,-1,25
 98 453 98 453 152.5 495 c 128,-1,26
 207 537 207 537 274 537 c 0,27,28
 329 537 329 537 364 507.5 c 128,-1,29
 399 478 399 478 405 434 c 1,30,-1
 410 434 l 1,31,-1
 428 525 l 1,32,-1
 568 525 l 1,33,-1
 467 19 l 2,34,35
 447 -92 447 -92 387.5 -152 c 128,-1,36
 328 -212 328 -212 207 -212 c 0,7,8
242 117 m 0,37,38
 291 117 291 117 329 165 c 0,39,40
 364 208 364 208 377 269 c 0,41,42
 391 342 391 342 391 350 c 0,43,44
 391 374 391 374 373.5 398 c 128,-1,45
 356 422 356 422 308 422 c 0,46,47
 215 422 215 422 193 305 c 2,48,-1
 182 249 l 2,49,50
 176 216 176 216 176 192 c 0,51,52
 176 122 176 122 242 117 c 0,37,38
EndSplineSet
EndChar

StartChar: Gbreve
Encoding: 286 286 221
Width: 700
Flags: W
LayerCount: 2
Fore
SplineSet
283 -12 m 0,0,1
 354 -12 354 -12 401 23.5 c 128,-1,2
 448 59 448 59 474 111 c 1,3,-1
 482 111 l 1,4,-1
 460 0 l 1,5,-1
 579 0 l 1,6,-1
 656 386 l 1,7,-1
 392 386 l 1,8,-1
 368 264 l 1,9,-1
 494 264 l 1,10,-1
 487 230 l 2,11,12
 476 181 476 181 429.5 149 c 128,-1,13
 383 117 383 117 318 117 c 0,14,15
 272 117 272 117 237.5 146 c 128,-1,16
 203 175 203 175 203 241 c 0,17,18
 203 267 203 267 209 297 c 2,19,-1
 231 407 l 2,20,21
 264 581 264 581 417 581 c 0,22,23
 471 581 471 581 507.5 555.5 c 128,-1,24
 544 530 544 530 556 481 c 1,25,-1
 677 545 l 1,26,27
 652 625 652 625 586 668 c 0,28,29
 517 710 517 710 425 710 c 0,30,31
 342 710 342 710 274.5 677 c 128,-1,32
 207 644 207 644 159 584 c 0,33,34
 57 456 57 456 57 268 c 0,35,36
 57 129 57 129 120 58.5 c 128,-1,37
 183 -12 183 -12 283 -12 c 0,0,1
442 739 m 0,38,39
 517 739 517 739 573 790 c 0,40,41
 624 839 624 839 659 905 c 1,42,-1
 576 951 l 1,43,-1
 548 914 l 2,44,45
 521 877 521 877 499 858.5 c 128,-1,46
 477 840 477 840 450 840 c 0,47,48
 418 840 418 840 401.5 859 c 128,-1,49
 385 878 385 878 370 912 c 2,50,-1
 352 951 l 1,51,-1
 272 909 l 1,52,53
 282 844 282 844 321 793 c 0,54,55
 365 739 365 739 442 739 c 0,38,39
EndSplineSet
EndChar

StartChar: gbreve
Encoding: 287 287 222
Width: 572
Flags: W
LayerCount: 2
Fore
SplineSet
339 579 m 0,0,1
 283 579 283 579 248.5 604.5 c 128,-1,2
 214 630 214 630 195.5 668.5 c 128,-1,3
 177 707 177 707 169 749 c 1,4,-1
 249 791 l 1,5,-1
 267 752 l 2,6,7
 282 718 282 718 299 699 c 128,-1,8
 316 680 316 680 347 680 c 0,9,10
 374 680 374 680 396 698.5 c 128,-1,11
 418 717 418 717 445 754 c 2,12,-1
 473 791 l 1,13,-1
 556 745 l 1,14,15
 532 702 532 702 502.5 664.5 c 128,-1,16
 473 627 473 627 433.5 603 c 128,-1,17
 394 579 394 579 339 579 c 0,0,1
207 -212 m 0,18,19
 141 -212 141 -212 87.5 -190.5 c 128,-1,20
 34 -169 34 -169 -4 -118 c 1,21,-1
 85 -37 l 1,22,23
 127 -100 127 -100 203 -100 c 0,24,25
 304 -100 304 -100 328 26 c 2,26,-1
 350 136 l 1,27,-1
 344 136 l 1,28,29
 314 72 314 72 274.5 37 c 128,-1,30
 235 2 235 2 173 2 c 0,31,32
 100 2 100 2 66.5 53.5 c 128,-1,33
 33 105 33 105 33 184 c 0,34,35
 33 296 33 296 65.5 374.5 c 128,-1,36
 98 453 98 453 152.5 495 c 128,-1,37
 207 537 207 537 274 537 c 0,38,39
 329 537 329 537 364 507.5 c 128,-1,40
 399 478 399 478 405 434 c 1,41,-1
 410 434 l 1,42,-1
 428 525 l 1,43,-1
 568 525 l 1,44,-1
 467 19 l 2,45,46
 447 -92 447 -92 387.5 -152 c 128,-1,47
 328 -212 328 -212 207 -212 c 0,18,19
242 117 m 0,48,49
 291 117 291 117 329 165 c 0,50,51
 364 208 364 208 377 269 c 0,52,53
 391 342 391 342 391 350 c 0,54,55
 391 374 391 374 373.5 398 c 128,-1,56
 356 422 356 422 308 422 c 0,57,58
 215 422 215 422 193 305 c 2,59,-1
 182 249 l 2,60,61
 176 216 176 216 176 192 c 0,62,63
 176 122 176 122 242 117 c 0,48,49
EndSplineSet
EndChar

StartChar: Gdot
Encoding: 288 288 223
Width: 700
Flags: W
LayerCount: 2
Fore
SplineSet
283 -12 m 0,0,1
 354 -12 354 -12 401 23.5 c 128,-1,2
 448 59 448 59 474 111 c 1,3,-1
 482 111 l 1,4,-1
 460 0 l 1,5,-1
 579 0 l 1,6,-1
 656 386 l 1,7,-1
 392 386 l 1,8,-1
 368 264 l 1,9,-1
 494 264 l 1,10,-1
 487 230 l 2,11,12
 476 181 476 181 429.5 149 c 128,-1,13
 383 117 383 117 318 117 c 0,14,15
 272 117 272 117 237.5 146 c 128,-1,16
 203 175 203 175 203 241 c 0,17,18
 203 267 203 267 209 297 c 2,19,-1
 231 407 l 2,20,21
 264 581 264 581 417 581 c 0,22,23
 471 581 471 581 507.5 555.5 c 128,-1,24
 544 530 544 530 556 481 c 1,25,-1
 677 545 l 1,26,27
 652 625 652 625 586 668 c 0,28,29
 517 710 517 710 425 710 c 0,30,31
 342 710 342 710 274.5 677 c 128,-1,32
 207 644 207 644 159 584 c 0,33,34
 57 456 57 456 57 268 c 0,35,36
 57 129 57 129 120 58.5 c 128,-1,37
 183 -12 183 -12 283 -12 c 0,0,1
445 751 m 0,38,39
 493 751 493 751 514 769.5 c 128,-1,40
 535 788 535 788 539 818 c 0,41,42
 546 851 546 851 546 860 c 0,43,44
 546 919 546 919 470 919 c 0,45,46
 422 919 422 919 401 900.5 c 128,-1,47
 380 882 380 882 376 852 c 2,48,-1
 371 824 l 2,49,50
 369 816 369 816 369 810 c 0,51,52
 369 751 369 751 445 751 c 0,38,39
EndSplineSet
EndChar

StartChar: gdot
Encoding: 289 289 224
Width: 572
Flags: W
LayerCount: 2
Fore
SplineSet
341 591 m 0,0,1
 265 591 265 591 265 650 c 0,2,3
 265 654 265 654 265.5 658 c 128,-1,4
 266 662 266 662 267.5 670 c 128,-1,5
 269 678 269 678 272 692 c 0,6,7
 276 722 276 722 297 740.5 c 128,-1,8
 318 759 318 759 366 759 c 0,9,10
 442 759 442 759 442 700 c 0,11,12
 442 696 442 696 441.5 692 c 128,-1,13
 441 688 441 688 439.5 680 c 128,-1,14
 438 672 438 672 435 658 c 0,15,16
 431 628 431 628 410 609.5 c 128,-1,17
 389 591 389 591 341 591 c 0,0,1
207 -212 m 0,18,19
 141 -212 141 -212 87.5 -190.5 c 128,-1,20
 34 -169 34 -169 -4 -118 c 1,21,-1
 85 -37 l 1,22,23
 127 -100 127 -100 203 -100 c 0,24,25
 304 -100 304 -100 328 26 c 2,26,-1
 350 136 l 1,27,-1
 344 136 l 1,28,29
 314 72 314 72 274.5 37 c 128,-1,30
 235 2 235 2 173 2 c 0,31,32
 100 2 100 2 66.5 53.5 c 128,-1,33
 33 105 33 105 33 184 c 0,34,35
 33 296 33 296 65.5 374.5 c 128,-1,36
 98 453 98 453 152.5 495 c 128,-1,37
 207 537 207 537 274 537 c 0,38,39
 329 537 329 537 364 507.5 c 128,-1,40
 399 478 399 478 405 434 c 1,41,-1
 410 434 l 1,42,-1
 428 525 l 1,43,-1
 568 525 l 1,44,-1
 467 19 l 2,45,46
 447 -92 447 -92 387.5 -152 c 128,-1,47
 328 -212 328 -212 207 -212 c 0,18,19
242 117 m 0,48,49
 291 117 291 117 329 165 c 0,50,51
 364 208 364 208 377 269 c 0,52,53
 391 342 391 342 391 350 c 0,54,55
 391 374 391 374 373.5 398 c 128,-1,56
 356 422 356 422 308 422 c 0,57,58
 215 422 215 422 193 305 c 2,59,-1
 182 249 l 2,60,61
 176 216 176 216 176 192 c 0,62,63
 176 122 176 122 242 117 c 0,48,49
EndSplineSet
EndChar

StartChar: Gcedilla
Encoding: 290 290 225
Width: 700
Flags: W
LayerCount: 2
Fore
SplineSet
283 -12 m 0,0,1
 354 -12 354 -12 401 23.5 c 128,-1,2
 448 59 448 59 474 111 c 1,3,-1
 482 111 l 1,4,-1
 460 0 l 1,5,-1
 579 0 l 1,6,-1
 656 386 l 1,7,-1
 392 386 l 1,8,-1
 368 264 l 1,9,-1
 494 264 l 1,10,-1
 487 230 l 2,11,12
 476 181 476 181 429.5 149 c 128,-1,13
 383 117 383 117 318 117 c 0,14,15
 272 117 272 117 237.5 146 c 128,-1,16
 203 175 203 175 203 241 c 0,17,18
 203 267 203 267 209 297 c 2,19,-1
 231 407 l 2,20,21
 264 581 264 581 417 581 c 0,22,23
 471 581 471 581 507.5 555.5 c 128,-1,24
 544 530 544 530 556 481 c 1,25,-1
 677 545 l 1,26,27
 652 625 652 625 586 668 c 0,28,29
 517 710 517 710 425 710 c 0,30,31
 342 710 342 710 274.5 677 c 128,-1,32
 207 644 207 644 159 584 c 0,33,34
 57 456 57 456 57 268 c 0,35,36
 57 129 57 129 120 58.5 c 128,-1,37
 183 -12 183 -12 283 -12 c 0,0,1
242 -275 m 1,38,39
 314 -220 314 -220 338 -120 c 0,40,41
 341 -105 341 -105 341 -93 c 0,42,43
 341 -42 341 -42 278 -42 c 0,44,45
 220 -42 220 -42 204 -104 c 0,46,47
 200 -123 200 -123 200 -131 c 0,48,49
 200 -149 200 -149 208 -161 c 128,-1,50
 216 -173 216 -173 239 -176 c 1,51,52
 214 -234 214 -234 159 -275 c 1,53,-1
 242 -275 l 1,38,39
EndSplineSet
EndChar

StartChar: gcedilla
Encoding: 291 291 226
Width: 572
Flags: W
LayerCount: 2
Fore
SplineSet
335 576 m 0,0,1
 272 576 272 576 272 627 c 0,2,3
 272 639 272 639 275 654 c 0,4,5
 285 700 285 700 311.5 742 c 128,-1,6
 338 784 338 784 371 809 c 1,7,-1
 454 809 l 1,8,9
 398 768 398 768 374 710 c 1,10,11
 413 707 413 707 413 665 c 1,12,-1
 412 655 l 2,13,14
 401 576 401 576 335 576 c 0,0,1
207 -212 m 0,15,16
 141 -212 141 -212 87.5 -190.5 c 128,-1,17
 34 -169 34 -169 -4 -118 c 1,18,-1
 85 -37 l 1,19,20
 127 -100 127 -100 203 -100 c 0,21,22
 304 -100 304 -100 328 26 c 2,23,-1
 350 136 l 1,24,-1
 344 136 l 1,25,26
 314 72 314 72 274.5 37 c 128,-1,27
 235 2 235 2 173 2 c 0,28,29
 100 2 100 2 66.5 53.5 c 128,-1,30
 33 105 33 105 33 184 c 0,31,32
 33 296 33 296 65.5 374.5 c 128,-1,33
 98 453 98 453 152.5 495 c 128,-1,34
 207 537 207 537 274 537 c 0,35,36
 329 537 329 537 364 507.5 c 128,-1,37
 399 478 399 478 405 434 c 1,38,-1
 410 434 l 1,39,-1
 428 525 l 1,40,-1
 568 525 l 1,41,-1
 467 19 l 2,42,43
 447 -92 447 -92 387.5 -152 c 128,-1,44
 328 -212 328 -212 207 -212 c 0,15,16
242 117 m 0,45,46
 291 117 291 117 329 165 c 0,47,48
 364 208 364 208 377 269 c 0,49,50
 391 342 391 342 391 350 c 0,51,52
 391 374 391 374 373.5 398 c 128,-1,53
 356 422 356 422 308 422 c 0,54,55
 215 422 215 422 193 305 c 2,56,-1
 182 249 l 2,57,58
 176 216 176 216 176 192 c 0,59,60
 176 122 176 122 242 117 c 0,45,46
EndSplineSet
EndChar

StartChar: Hcircumflex
Encoding: 292 292 227
Width: 700
Flags: W
LayerCount: 2
Fore
SplineSet
572 0 m 1,0,-1
 712 698 l 1,1,-1
 567 698 l 1,2,-1
 511 417 l 1,3,-1
 251 417 l 1,4,-1
 307 698 l 1,5,-1
 162 698 l 1,6,-1
 22 0 l 1,7,-1
 167 0 l 1,8,-1
 225 289 l 1,9,-1
 485 289 l 1,10,-1
 427 0 l 1,11,-1
 572 0 l 1,0,-1
553 739 m 1,12,-1
 628 796 l 1,13,-1
 528 954 l 1,14,-1
 406 954 l 1,15,-1
 250 796 l 1,16,-1
 320 739 l 1,17,-1
 454 854 l 1,18,-1
 553 739 l 1,12,-1
EndSplineSet
EndChar

StartChar: hcircumflex
Encoding: 293 293 228
Width: 588
Flags: W
LayerCount: 2
Fore
SplineSet
520 0 m 1,0,-1
 542 112 l 1,1,-1
 489 112 l 1,2,-1
 532 327 l 2,3,4
 541 364 541 364 541 401 c 0,5,6
 541 466 541 466 508.5 501.5 c 128,-1,7
 476 537 476 537 415 537 c 0,8,9
 353 537 353 537 311.5 502 c 128,-1,10
 270 467 270 467 241 403 c 1,11,-1
 235 403 l 1,12,-1
 302 740 l 1,13,-1
 162 740 l 1,14,-1
 14 0 l 1,15,-1
 154 0 l 1,16,-1
 208 270 l 2,17,18
 221 330 221 330 258 372 c 0,19,20
 298 420 298 420 343 420 c 0,21,22
 396 420 396 420 396 368 c 0,23,24
 396 338 396 338 369 208 c 0,25,26
 345 89 345 89 345 76 c 0,27,28
 345 41 345 41 367 20.5 c 128,-1,29
 389 0 389 0 429 0 c 2,30,-1
 520 0 l 1,0,-1
354 747 m 1,31,-1
 429 804 l 1,32,-1
 329 962 l 1,33,-1
 207 962 l 1,34,-1
 51 804 l 1,35,-1
 121 747 l 1,36,-1
 255 862 l 1,37,-1
 354 747 l 1,31,-1
EndSplineSet
EndChar

StartChar: Hbar
Encoding: 294 294 229
Width: 710
Flags: W
LayerCount: 2
Fore
SplineSet
577 0 m 1,0,-1
 680 513 l 1,1,-1
 752 513 l 1,2,-1
 773 620 l 1,3,-1
 701 620 l 1,4,-1
 717 698 l 1,5,-1
 572 698 l 1,6,-1
 556 620 l 1,7,-1
 296 620 l 1,8,-1
 312 698 l 1,9,-1
 167 698 l 1,10,-1
 151 620 l 1,11,-1
 79 620 l 1,12,-1
 58 513 l 1,13,-1
 130 513 l 1,14,-1
 27 0 l 1,15,-1
 172 0 l 1,16,-1
 230 289 l 1,17,-1
 490 289 l 1,18,-1
 432 0 l 1,19,-1
 577 0 l 1,0,-1
516 417 m 1,20,-1
 256 417 l 1,21,-1
 275 513 l 1,22,-1
 535 513 l 1,23,-1
 516 417 l 1,20,-1
EndSplineSet
EndChar

StartChar: hbar
Encoding: 295 295 230
Width: 588
Flags: W
LayerCount: 2
Fore
SplineSet
520 0 m 1,0,-1
 542 112 l 1,1,-1
 489 112 l 1,2,-1
 532 327 l 2,3,4
 541 364 541 364 541 401 c 0,5,6
 541 466 541 466 508.5 501.5 c 128,-1,7
 476 537 476 537 415 537 c 0,8,9
 353 537 353 537 311.5 502 c 128,-1,10
 270 467 270 467 241 403 c 1,11,-1
 235 403 l 1,12,-1
 272 592 l 1,13,-1
 412 592 l 1,14,-1
 432 688 l 1,15,-1
 291 688 l 1,16,-1
 302 740 l 1,17,-1
 162 740 l 1,18,-1
 151 688 l 1,19,-1
 83 688 l 1,20,-1
 63 592 l 1,21,-1
 132 592 l 1,22,-1
 14 0 l 1,23,-1
 154 0 l 1,24,-1
 208 270 l 2,25,26
 221 330 221 330 258 372 c 0,27,28
 298 420 298 420 343 420 c 0,29,30
 396 420 396 420 396 368 c 0,31,32
 396 338 396 338 369 208 c 0,33,34
 345 89 345 89 345 76 c 0,35,36
 345 41 345 41 367 20.5 c 128,-1,37
 389 0 389 0 429 0 c 2,38,-1
 520 0 l 1,0,-1
EndSplineSet
EndChar

StartChar: Itilde
Encoding: 296 296 231
Width: 295
Flags: W
LayerCount: 2
Fore
SplineSet
329 761 m 0,0,1
 395 761 395 761 444 823 c 1,2,-1
 401 892 l 1,3,4
 384 879 384 879 372 873 c 128,-1,5
 360 867 360 867 343 867 c 0,6,7
 323 867 323 867 307 873 c 128,-1,8
 291 879 291 879 271.5 888.5 c 128,-1,9
 252 898 252 898 234.5 904 c 128,-1,10
 217 910 217 910 195 910 c 0,11,12
 129 910 129 910 80 848 c 1,13,-1
 123 779 l 1,14,15
 140 792 140 792 152 798 c 128,-1,16
 164 804 164 804 181 804 c 0,17,18
 201 804 201 804 217 798 c 128,-1,19
 233 792 233 792 252.5 782.5 c 128,-1,20
 272 773 272 773 289.5 767 c 128,-1,21
 307 761 307 761 329 761 c 0,0,1
167 0 m 1,22,-1
 22 0 l 1,23,-1
 163 698 l 1,24,-1
 308 698 l 1,25,-1
 167 0 l 1,22,-1
EndSplineSet
EndChar

StartChar: itilde
Encoding: 297 297 232
Width: 281
Flags: W
LayerCount: 2
Fore
SplineSet
213 0 m 1,0,-1
 235 112 l 1,1,-1
 176 112 l 1,2,-1
 259 525 l 1,3,-1
 119 525 l 1,4,5
 32 90 32 90 32 80 c 0,6,7
 32 44 32 44 56.5 22 c 128,-1,8
 81 0 81 0 122 0 c 2,9,-1
 213 0 l 1,0,-1
284 601 m 0,10,11
 350 601 350 601 399 663 c 1,12,-1
 356 732 l 1,13,14
 339 719 339 719 327 713 c 128,-1,15
 315 707 315 707 298 707 c 0,16,17
 278 707 278 707 262 713 c 128,-1,18
 246 719 246 719 226.5 728.5 c 128,-1,19
 207 738 207 738 189.5 744 c 128,-1,20
 172 750 172 750 150 750 c 0,21,22
 84 750 84 750 35 688 c 1,23,-1
 78 619 l 1,24,25
 95 632 95 632 107 638 c 128,-1,26
 119 644 119 644 136 644 c 0,27,28
 156 644 156 644 172 638 c 128,-1,29
 188 632 188 632 207.5 622.5 c 128,-1,30
 227 613 227 613 244.5 607 c 128,-1,31
 262 601 262 601 284 601 c 0,10,11
EndSplineSet
EndChar

StartChar: Imacron
Encoding: 298 298 233
Width: 295
Flags: W
LayerCount: 2
Fore
SplineSet
391 785 m 1,0,-1
 411 887 l 1,1,-1
 133 887 l 1,2,-1
 113 785 l 1,3,-1
 391 785 l 1,0,-1
167 0 m 1,4,-1
 22 0 l 1,5,-1
 163 698 l 1,6,-1
 308 698 l 1,7,-1
 167 0 l 1,4,-1
EndSplineSet
EndChar

StartChar: imacron
Encoding: 299 299 234
Width: 281
Flags: W
LayerCount: 2
Fore
SplineSet
213 0 m 1,0,-1
 235 112 l 1,1,-1
 176 112 l 1,2,-1
 259 525 l 1,3,-1
 119 525 l 1,4,5
 32 90 32 90 32 80 c 0,6,7
 32 44 32 44 56.5 22 c 128,-1,8
 81 0 81 0 122 0 c 2,9,-1
 213 0 l 1,0,-1
346 625 m 1,10,-1
 366 727 l 1,11,-1
 88 727 l 1,12,-1
 68 625 l 1,13,-1
 346 625 l 1,10,-1
EndSplineSet
EndChar

StartChar: Ibreve
Encoding: 300 300 235
Width: 295
Flags: W
LayerCount: 2
Fore
SplineSet
247 739 m 0,0,1
 322 739 322 739 378 790 c 0,2,3
 429 839 429 839 464 905 c 1,4,-1
 381 951 l 1,5,-1
 353 914 l 2,6,7
 326 877 326 877 304 858.5 c 128,-1,8
 282 840 282 840 255 840 c 0,9,10
 223 840 223 840 206.5 859 c 128,-1,11
 190 878 190 878 175 912 c 2,12,-1
 157 951 l 1,13,-1
 77 909 l 1,14,15
 87 844 87 844 126 793 c 0,16,17
 170 739 170 739 247 739 c 0,0,1
167 0 m 1,18,-1
 22 0 l 1,19,-1
 163 698 l 1,20,-1
 308 698 l 1,21,-1
 167 0 l 1,18,-1
EndSplineSet
EndChar

StartChar: ibreve
Encoding: 301 301 236
Width: 281
Flags: W
LayerCount: 2
Fore
SplineSet
213 0 m 1,0,-1
 235 112 l 1,1,-1
 176 112 l 1,2,-1
 259 525 l 1,3,-1
 119 525 l 1,4,5
 32 90 32 90 32 80 c 0,6,7
 32 44 32 44 56.5 22 c 128,-1,8
 81 0 81 0 122 0 c 2,9,-1
 213 0 l 1,0,-1
202 579 m 0,10,11
 277 579 277 579 333 630 c 0,12,13
 384 679 384 679 419 745 c 1,14,-1
 336 791 l 1,15,-1
 308 754 l 2,16,17
 281 717 281 717 259 698.5 c 128,-1,18
 237 680 237 680 210 680 c 0,19,20
 178 680 178 680 161.5 699 c 128,-1,21
 145 718 145 718 130 752 c 2,22,-1
 112 791 l 1,23,-1
 32 749 l 1,24,25
 42 684 42 684 81 633 c 0,26,27
 125 579 125 579 202 579 c 0,10,11
EndSplineSet
EndChar

StartChar: Iogonek
Encoding: 302 302 237
Width: 295
Flags: W
LayerCount: 2
Fore
SplineSet
64 -212 m 0,0,1
 112 -212 112 -212 141.5 -198.5 c 128,-1,2
 171 -185 171 -185 189 -162 c 1,3,-1
 137 -113 l 1,4,5
 120 -140 120 -140 83 -140 c 0,6,7
 48 -140 48 -140 48 -111 c 0,8,9
 48 -93 48 -93 66 -73 c 0,10,11
 87 -48 87 -48 167 0 c 1,12,-1
 308 698 l 1,13,-1
 163 698 l 1,14,-1
 22 0 l 1,15,-1
 82 0 l 1,16,-1
 83 -4 l 1,17,18
 11 -25 11 -25 -22 -58 c 128,-1,19
 -55 -91 -55 -91 -55 -129 c 0,20,21
 -55 -170 -55 -170 -20.5 -191 c 128,-1,22
 14 -212 14 -212 64 -212 c 0,0,1
EndSplineSet
EndChar

StartChar: iogonek
Encoding: 303 303 238
Width: 281
Flags: W
LayerCount: 2
Fore
SplineSet
110 -212 m 0,0,1
 158 -212 158 -212 187.5 -198.5 c 128,-1,2
 217 -185 217 -185 235 -162 c 1,3,-1
 183 -113 l 1,4,5
 166 -140 166 -140 129 -140 c 0,6,7
 94 -140 94 -140 94 -111 c 0,8,9
 94 -93 94 -93 112 -73 c 0,10,11
 133 -48 133 -48 213 0 c 1,12,-1
 235 112 l 1,13,-1
 176 112 l 1,14,-1
 259 525 l 1,15,-1
 119 525 l 1,16,17
 32 90 32 90 32 80 c 0,18,19
 32 44 32 44 56.5 22 c 128,-1,20
 81 0 81 0 122 0 c 2,21,-1
 130 0 l 1,22,-1
 131 -4 l 1,23,24
 59 -25 59 -25 25 -58 c 128,-1,25
 -9 -91 -9 -91 -9 -129 c 0,26,27
 -9 -170 -9 -170 25.5 -191 c 128,-1,28
 60 -212 60 -212 110 -212 c 0,0,1
202 583 m 0,29,30
 227 583 227 583 244 590 c 0,31,32
 304 612 304 612 304 695 c 0,33,34
 304 719 304 719 286.5 733 c 128,-1,35
 269 747 269 747 232 747 c 0,36,37
 207 747 207 747 190 740 c 0,38,39
 130 718 130 718 130 635 c 0,40,41
 130 611 130 611 147.5 597 c 128,-1,42
 165 583 165 583 202 583 c 0,29,30
EndSplineSet
EndChar

StartChar: Idot
Encoding: 304 304 239
Width: 295
Flags: W
LayerCount: 2
Fore
SplineSet
250 751 m 0,0,1
 298 751 298 751 319 769.5 c 128,-1,2
 340 788 340 788 344 818 c 0,3,4
 351 851 351 851 351 860 c 0,5,6
 351 919 351 919 275 919 c 0,7,8
 227 919 227 919 206 900.5 c 128,-1,9
 185 882 185 882 181 852 c 2,10,-1
 176 824 l 2,11,12
 174 816 174 816 174 810 c 0,13,14
 174 751 174 751 250 751 c 0,0,1
167 0 m 1,15,-1
 22 0 l 1,16,-1
 163 698 l 1,17,-1
 308 698 l 1,18,-1
 167 0 l 1,15,-1
EndSplineSet
EndChar

StartChar: dotlessi
Encoding: 305 305 240
Width: 281
Flags: W
LayerCount: 2
Fore
SplineSet
213 0 m 1,0,-1
 235 112 l 1,1,-1
 176 112 l 1,2,-1
 259 525 l 1,3,-1
 119 525 l 1,4,5
 32 90 32 90 32 80 c 0,6,7
 32 44 32 44 56.5 22 c 128,-1,8
 81 0 81 0 122 0 c 2,9,-1
 213 0 l 1,0,-1
EndSplineSet
EndChar

StartChar: ij
Encoding: 307 307 242
Width: 560
Flags: W
LayerCount: 2
Fore
SplineSet
202 583 m 0,0,1
 227 583 227 583 244 590 c 0,2,3
 304 612 304 612 304 695 c 0,4,5
 304 719 304 719 286.5 733 c 128,-1,6
 269 747 269 747 232 747 c 0,7,8
 207 747 207 747 190 740 c 0,9,10
 130 718 130 718 130 635 c 0,11,12
 130 611 130 611 147.5 597 c 128,-1,13
 165 583 165 583 202 583 c 0,0,1
213 0 m 1,14,-1
 235 112 l 1,15,-1
 176 112 l 1,16,-1
 259 525 l 1,17,-1
 119 525 l 1,18,19
 32 90 32 90 32 80 c 0,20,21
 32 44 32 44 56.5 22 c 128,-1,22
 81 0 81 0 122 0 c 2,23,-1
 213 0 l 1,14,-1
266 -200 m 2,24,25
 339 -200 339 -200 377 -165 c 128,-1,26
 415 -130 415 -130 428 -61 c 2,27,-1
 547 525 l 1,28,-1
 407 525 l 1,29,-1
 284 -88 l 1,30,-1
 209 -88 l 1,31,-1
 187 -200 l 1,32,-1
 266 -200 l 2,24,25
490 583 m 0,33,34
 515 583 515 583 532 590 c 0,35,36
 592 612 592 612 592 695 c 0,37,38
 592 719 592 719 574.5 733 c 128,-1,39
 557 747 557 747 520 747 c 0,40,41
 495 747 495 747 478 740 c 0,42,43
 418 718 418 718 418 635 c 0,44,45
 418 611 418 611 435.5 597 c 128,-1,46
 453 583 453 583 490 583 c 0,33,34
EndSplineSet
EndChar

StartChar: Jcircumflex
Encoding: 308 308 243
Width: 536
Flags: W
LayerCount: 2
Fore
SplineSet
510 739 m 1,0,-1
 411 854 l 1,1,-1
 277 739 l 1,2,-1
 207 796 l 1,3,-1
 363 954 l 1,4,-1
 485 954 l 1,5,-1
 585 796 l 1,6,-1
 510 739 l 1,0,-1
215 -11 m 0,7,8
 148 -11 148 -11 103 14.5 c 128,-1,9
 58 40 58 40 34 83 c 128,-1,10
 10 126 10 126 5 180 c 1,11,-1
 144 208 l 1,12,13
 147 165 147 165 162.5 140 c 128,-1,14
 178 115 178 115 215 115 c 0,15,16
 246 115 246 115 270.5 136 c 128,-1,17
 295 157 295 157 305 205 c 2,18,-1
 404 698 l 1,19,-1
 549 698 l 1,20,-1
 447 190 l 2,21,22
 429 98 429 98 371 43.5 c 128,-1,23
 313 -11 313 -11 215 -11 c 0,7,8
EndSplineSet
EndChar

StartChar: jcircumflex
Encoding: 309 309 244
Width: 276
Flags: W
LayerCount: 2
Fore
SplineSet
-18 -200 m 2,0,1
 55 -200 55 -200 93 -165 c 128,-1,2
 131 -130 131 -130 144 -61 c 2,3,-1
 263 525 l 1,4,-1
 123 525 l 1,5,-1
 0 -88 l 1,6,-1
 -75 -88 l 1,7,-1
 -97 -200 l 1,8,-1
 -18 -200 l 2,0,1
325 579 m 1,9,-1
 400 636 l 1,10,-1
 300 794 l 1,11,-1
 178 794 l 1,12,-1
 22 636 l 1,13,-1
 92 579 l 1,14,-1
 226 694 l 1,15,-1
 325 579 l 1,9,-1
EndSplineSet
EndChar

StartChar: Kcedilla
Encoding: 310 310 245
Width: 657
Flags: W
LayerCount: 2
Fore
SplineSet
596 0 m 1,0,-1
 433 398 l 1,1,-1
 721 698 l 1,2,-1
 545 698 l 1,3,-1
 357 495 l 1,4,-1
 247 364 l 1,5,-1
 240 364 l 1,6,-1
 307 698 l 1,7,-1
 162 698 l 1,8,-1
 22 0 l 1,9,-1
 167 0 l 1,10,-1
 203 179 l 1,11,-1
 319 299 l 1,12,-1
 436 0 l 1,13,-1
 596 0 l 1,0,-1
250 -275 m 1,14,15
 322 -220 322 -220 346 -120 c 0,16,17
 349 -105 349 -105 349 -93 c 0,18,19
 349 -42 349 -42 286 -42 c 0,20,21
 228 -42 228 -42 212 -104 c 0,22,23
 208 -123 208 -123 208 -131 c 0,24,25
 208 -149 208 -149 216 -161 c 128,-1,26
 224 -173 224 -173 247 -176 c 1,27,28
 222 -234 222 -234 167 -275 c 1,29,-1
 250 -275 l 1,14,15
EndSplineSet
EndChar

StartChar: kcedilla
Encoding: 311 311 246
Width: 550
Flags: W
LayerCount: 2
Fore
SplineSet
479 0 m 1,0,-1
 503 112 l 1,1,-1
 442 112 l 1,2,-1
 370 312 l 1,3,-1
 583 525 l 1,4,-1
 420 525 l 1,5,-1
 294 395 l 1,6,-1
 222 305 l 1,7,-1
 215 305 l 1,8,-1
 302 740 l 1,9,-1
 162 740 l 1,10,-1
 14 0 l 1,11,-1
 154 0 l 1,12,-1
 182 142 l 1,13,-1
 261 216 l 1,14,-1
 305 79 l 2,15,16
 331 0 331 0 404 0 c 2,17,-1
 479 0 l 1,0,-1
205 -275 m 1,18,19
 277 -220 277 -220 301 -120 c 0,20,21
 304 -105 304 -105 304 -93 c 0,22,23
 304 -42 304 -42 241 -42 c 0,24,25
 183 -42 183 -42 167 -104 c 0,26,27
 163 -123 163 -123 163 -131 c 0,28,29
 163 -149 163 -149 171 -161 c 128,-1,30
 179 -173 179 -173 202 -176 c 1,31,32
 177 -234 177 -234 122 -275 c 1,33,-1
 205 -275 l 1,18,19
EndSplineSet
EndChar

StartChar: kgreenlandic
Encoding: 312 312 247
Width: 555
Flags: W
LayerCount: 2
Fore
SplineSet
479 0 m 1,0,-1
 503 112 l 1,1,-1
 442 112 l 1,2,-1
 376 311 l 1,3,-1
 593 525 l 1,4,-1
 430 525 l 1,5,-1
 300 394 l 1,6,-1
 222 305 l 1,7,-1
 215 305 l 1,8,-1
 259 525 l 1,9,-1
 119 525 l 1,10,-1
 14 0 l 1,11,-1
 154 0 l 1,12,-1
 182 142 l 1,13,-1
 263 216 l 1,14,-1
 306 80 l 2,15,16
 332 0 332 0 404 0 c 2,17,-1
 479 0 l 1,0,-1
EndSplineSet
EndChar

StartChar: Lacute
Encoding: 313 313 248
Width: 510
Flags: W
LayerCount: 2
Fore
SplineSet
423 0 m 1,0,-1
 449 128 l 1,1,-1
 193 128 l 1,2,-1
 307 698 l 1,3,-1
 162 698 l 1,4,-1
 22 0 l 1,5,-1
 423 0 l 1,0,-1
263 739 m 1,6,-1
 410 915 l 1,7,-1
 298 975 l 1,8,-1
 179 785 l 1,9,-1
 263 739 l 1,6,-1
EndSplineSet
EndChar

StartChar: lacute
Encoding: 314 314 249
Width: 281
Flags: W
LayerCount: 2
Fore
SplineSet
216 0 m 1,0,-1
 238 112 l 1,1,-1
 176 112 l 1,2,-1
 302 740 l 1,3,-1
 162 740 l 1,4,5
 32 90 32 90 32 80 c 0,6,7
 32 44 32 44 56.5 22 c 128,-1,8
 81 0 81 0 122 0 c 2,9,-1
 216 0 l 1,0,-1
263 779 m 1,10,-1
 410 955 l 1,11,-1
 298 1015 l 1,12,-1
 179 825 l 1,13,-1
 263 779 l 1,10,-1
EndSplineSet
EndChar

StartChar: Lcedilla
Encoding: 315 315 250
Width: 510
Flags: W
LayerCount: 2
Fore
SplineSet
423 0 m 1,0,-1
 449 128 l 1,1,-1
 193 128 l 1,2,-1
 307 698 l 1,3,-1
 162 698 l 1,4,-1
 22 0 l 1,5,-1
 423 0 l 1,0,-1
175 -275 m 1,6,7
 247 -220 247 -220 271 -120 c 0,8,9
 274 -105 274 -105 274 -93 c 0,10,11
 274 -42 274 -42 211 -42 c 0,12,13
 153 -42 153 -42 137 -104 c 0,14,15
 133 -123 133 -123 133 -131 c 0,16,17
 133 -149 133 -149 141 -161 c 128,-1,18
 149 -173 149 -173 172 -176 c 1,19,20
 147 -234 147 -234 92 -275 c 1,21,-1
 175 -275 l 1,6,7
EndSplineSet
EndChar

StartChar: lcedilla
Encoding: 316 316 251
Width: 281
Flags: W
LayerCount: 2
Fore
SplineSet
216 0 m 1,0,-1
 238 112 l 1,1,-1
 176 112 l 1,2,-1
 302 740 l 1,3,-1
 162 740 l 1,4,5
 32 90 32 90 32 80 c 0,6,7
 32 44 32 44 56.5 22 c 128,-1,8
 81 0 81 0 122 0 c 2,9,-1
 216 0 l 1,0,-1
82 -275 m 1,10,11
 154 -220 154 -220 178 -120 c 0,12,13
 181 -105 181 -105 181 -93 c 0,14,15
 181 -42 181 -42 118 -42 c 0,16,17
 60 -42 60 -42 44 -104 c 0,18,19
 40 -123 40 -123 40 -131 c 0,20,21
 40 -149 40 -149 48 -161 c 128,-1,22
 56 -173 56 -173 79 -176 c 1,23,24
 54 -234 54 -234 -1 -275 c 1,25,-1
 82 -275 l 1,10,11
EndSplineSet
EndChar

StartChar: Lcaron
Encoding: 317 317 252
Width: 510
Flags: W
LayerCount: 2
Fore
SplineSet
423 0 m 1,0,-1
 449 128 l 1,1,-1
 193 128 l 1,2,-1
 307 698 l 1,3,-1
 162 698 l 1,4,-1
 22 0 l 1,5,-1
 423 0 l 1,0,-1
434 525 m 1,6,-1
 543 740 l 1,7,-1
 387 740 l 1,8,-1
 337 525 l 1,9,-1
 434 525 l 1,6,-1
EndSplineSet
EndChar

StartChar: lcaron
Encoding: 318 318 253
Width: 350
Flags: W
LayerCount: 2
Fore
SplineSet
216 0 m 1,0,-1
 238 112 l 1,1,-1
 176 112 l 1,2,-1
 302 740 l 1,3,-1
 162 740 l 1,4,5
 32 90 32 90 32 80 c 0,6,7
 32 44 32 44 56.5 22 c 128,-1,8
 81 0 81 0 122 0 c 2,9,-1
 216 0 l 1,0,-1
415 525 m 1,10,-1
 524 740 l 1,11,-1
 368 740 l 1,12,-1
 318 525 l 1,13,-1
 415 525 l 1,10,-1
EndSplineSet
EndChar

StartChar: Ldot
Encoding: 319 319 254
Width: 511
Flags: W
LayerCount: 2
Fore
SplineSet
423 0 m 1,0,-1
 449 128 l 1,1,-1
 193 128 l 1,2,-1
 307 698 l 1,3,-1
 162 698 l 1,4,-1
 22 0 l 1,5,-1
 423 0 l 1,0,-1
418 310 m 0,6,7
 466 310 466 310 487 328.5 c 128,-1,8
 508 347 508 347 512 377 c 0,9,10
 519 410 519 410 519 419 c 0,11,12
 519 478 519 478 443 478 c 0,13,14
 395 478 395 478 374 459.5 c 128,-1,15
 353 441 353 441 349 411 c 2,16,-1
 344 383 l 2,17,18
 342 375 342 375 342 369 c 0,19,20
 342 310 342 310 418 310 c 0,6,7
EndSplineSet
EndChar

StartChar: ldot
Encoding: 320 320 255
Width: 421
Flags: W
LayerCount: 2
Fore
SplineSet
216 0 m 1,0,-1
 238 112 l 1,1,-1
 176 112 l 1,2,-1
 302 740 l 1,3,-1
 162 740 l 1,4,5
 32 90 32 90 32 80 c 0,6,7
 32 44 32 44 56.5 22 c 128,-1,8
 81 0 81 0 122 0 c 2,9,-1
 216 0 l 1,0,-1
353 273 m 0,10,11
 401 273 401 273 422 291.5 c 128,-1,12
 443 310 443 310 447 340 c 0,13,14
 454 373 454 373 454 382 c 0,15,16
 454 441 454 441 378 441 c 0,17,18
 330 441 330 441 309 422.5 c 128,-1,19
 288 404 288 404 284 374 c 2,20,-1
 279 346 l 2,21,22
 277 338 277 338 277 332 c 0,23,24
 277 273 277 273 353 273 c 0,10,11
EndSplineSet
EndChar

StartChar: Lslash
Encoding: 321 321 256
Width: 521
Flags: W
LayerCount: 2
Fore
SplineSet
429 0 m 1,0,-1
 455 128 l 1,1,-1
 199 128 l 1,2,-1
 231 291 l 1,3,-1
 402 341 l 1,4,-1
 424 454 l 1,5,-1
 254 403 l 1,6,-1
 313 698 l 1,7,-1
 168 698 l 1,8,-1
 99 357 l 1,9,-1
 21 334 l 1,10,-1
 -3 223 l 1,11,-1
 77 246 l 1,12,-1
 28 0 l 1,13,-1
 429 0 l 1,0,-1
EndSplineSet
EndChar

StartChar: lslash
Encoding: 322 322 257
Width: 294
Flags: W
LayerCount: 2
Fore
SplineSet
222 0 m 1,0,-1
 244 112 l 1,1,-1
 182 112 l 1,2,-1
 228 347 l 1,3,-1
 327 380 l 1,4,-1
 347 487 l 1,5,-1
 249 454 l 1,6,-1
 307 740 l 1,7,-1
 166 740 l 1,8,-1
 98 403 l 1,9,-1
 20 377 l 1,10,-1
 -1 270 l 1,11,-1
 77 296 l 1,12,13
 36 90 36 90 36 80 c 0,14,15
 36 44 36 44 60 22 c 128,-1,16
 84 0 84 0 125 0 c 2,17,-1
 222 0 l 1,0,-1
EndSplineSet
EndChar

StartChar: Nacute
Encoding: 323 323 258
Width: 700
Flags: W
LayerCount: 2
Fore
SplineSet
572 0 m 1,0,-1
 712 698 l 1,1,-1
 575 698 l 1,2,-1
 480 223 l 1,3,-1
 474 223 l 1,4,-1
 432 362 l 1,5,-1
 319 698 l 1,6,-1
 162 698 l 1,7,-1
 22 0 l 1,8,-1
 159 0 l 1,9,-1
 254 475 l 1,10,-1
 260 475 l 1,11,-1
 302 336 l 1,12,-1
 415 0 l 1,13,-1
 572 0 l 1,0,-1
464 739 m 1,14,-1
 611 915 l 1,15,-1
 499 975 l 1,16,-1
 380 785 l 1,17,-1
 464 739 l 1,14,-1
EndSplineSet
EndChar

StartChar: nacute
Encoding: 324 324 259
Width: 588
Flags: W
LayerCount: 2
Fore
SplineSet
520 0 m 1,0,-1
 542 112 l 1,1,-1
 489 112 l 1,2,-1
 532 327 l 2,3,4
 541 364 541 364 541 401 c 0,5,6
 541 466 541 466 508.5 501.5 c 128,-1,7
 476 537 476 537 415 537 c 0,8,9
 353 537 353 537 311.5 502 c 128,-1,10
 270 467 270 467 241 403 c 1,11,-1
 235 403 l 1,12,-1
 259 525 l 1,13,-1
 119 525 l 1,14,-1
 14 0 l 1,15,-1
 154 0 l 1,16,-1
 208 270 l 2,17,18
 221 330 221 330 258 372 c 0,19,20
 298 420 298 420 343 420 c 0,21,22
 396 420 396 420 396 368 c 0,23,24
 396 338 396 338 369 208 c 0,25,26
 345 89 345 89 345 76 c 0,27,28
 345 41 345 41 367 20.5 c 128,-1,29
 389 0 389 0 429 0 c 2,30,-1
 520 0 l 1,0,-1
376 579 m 1,31,-1
 523 755 l 1,32,-1
 411 815 l 1,33,-1
 292 625 l 1,34,-1
 376 579 l 1,31,-1
EndSplineSet
EndChar

StartChar: Ncedilla
Encoding: 325 325 260
Width: 700
Flags: W
LayerCount: 2
Fore
SplineSet
572 0 m 1,0,-1
 712 698 l 1,1,-1
 575 698 l 1,2,-1
 480 223 l 1,3,-1
 474 223 l 1,4,-1
 432 362 l 1,5,-1
 319 698 l 1,6,-1
 162 698 l 1,7,-1
 22 0 l 1,8,-1
 159 0 l 1,9,-1
 254 475 l 1,10,-1
 260 475 l 1,11,-1
 302 336 l 1,12,-1
 415 0 l 1,13,-1
 572 0 l 1,0,-1
250 -275 m 1,14,15
 322 -220 322 -220 346 -120 c 0,16,17
 349 -105 349 -105 349 -93 c 0,18,19
 349 -42 349 -42 286 -42 c 0,20,21
 228 -42 228 -42 212 -104 c 0,22,23
 208 -123 208 -123 208 -131 c 0,24,25
 208 -149 208 -149 216 -161 c 128,-1,26
 224 -173 224 -173 247 -176 c 1,27,28
 222 -234 222 -234 167 -275 c 1,29,-1
 250 -275 l 1,14,15
EndSplineSet
EndChar

StartChar: ncedilla
Encoding: 326 326 261
Width: 588
Flags: W
LayerCount: 2
Fore
SplineSet
520 0 m 1,0,-1
 542 112 l 1,1,-1
 489 112 l 1,2,-1
 532 327 l 2,3,4
 541 364 541 364 541 401 c 0,5,6
 541 466 541 466 508.5 501.5 c 128,-1,7
 476 537 476 537 415 537 c 0,8,9
 353 537 353 537 311.5 502 c 128,-1,10
 270 467 270 467 241 403 c 1,11,-1
 235 403 l 1,12,-1
 259 525 l 1,13,-1
 119 525 l 1,14,-1
 14 0 l 1,15,-1
 154 0 l 1,16,-1
 208 270 l 2,17,18
 221 330 221 330 258 372 c 0,19,20
 298 420 298 420 343 420 c 0,21,22
 396 420 396 420 396 368 c 0,23,24
 396 338 396 338 369 208 c 0,25,26
 345 89 345 89 345 76 c 0,27,28
 345 41 345 41 367 20.5 c 128,-1,29
 389 0 389 0 429 0 c 2,30,-1
 520 0 l 1,0,-1
216 -275 m 1,31,32
 288 -220 288 -220 312 -120 c 0,33,34
 315 -105 315 -105 315 -93 c 0,35,36
 315 -42 315 -42 252 -42 c 0,37,38
 194 -42 194 -42 178 -104 c 0,39,40
 174 -123 174 -123 174 -131 c 0,41,42
 174 -149 174 -149 182 -161 c 128,-1,43
 190 -173 190 -173 213 -176 c 1,44,45
 188 -234 188 -234 133 -275 c 1,46,-1
 216 -275 l 1,31,32
EndSplineSet
EndChar

StartChar: Ncaron
Encoding: 327 327 262
Width: 700
Flags: W
LayerCount: 2
Fore
SplineSet
572 0 m 1,0,-1
 712 698 l 1,1,-1
 575 698 l 1,2,-1
 480 223 l 1,3,-1
 474 223 l 1,4,-1
 432 362 l 1,5,-1
 319 698 l 1,6,-1
 162 698 l 1,7,-1
 22 0 l 1,8,-1
 159 0 l 1,9,-1
 254 475 l 1,10,-1
 260 475 l 1,11,-1
 302 336 l 1,12,-1
 415 0 l 1,13,-1
 572 0 l 1,0,-1
507 748 m 1,14,-1
 662 906 l 1,15,-1
 590 963 l 1,16,-1
 453 848 l 1,17,-1
 357 963 l 1,18,-1
 283 906 l 1,19,-1
 384 748 l 1,20,-1
 507 748 l 1,14,-1
EndSplineSet
EndChar

StartChar: ncaron
Encoding: 328 328 263
Width: 588
Flags: W
LayerCount: 2
Fore
SplineSet
520 0 m 1,0,-1
 542 112 l 1,1,-1
 489 112 l 1,2,-1
 532 327 l 2,3,4
 541 364 541 364 541 401 c 0,5,6
 541 466 541 466 508.5 501.5 c 128,-1,7
 476 537 476 537 415 537 c 0,8,9
 353 537 353 537 311.5 502 c 128,-1,10
 270 467 270 467 241 403 c 1,11,-1
 235 403 l 1,12,-1
 259 525 l 1,13,-1
 119 525 l 1,14,-1
 14 0 l 1,15,-1
 154 0 l 1,16,-1
 208 270 l 2,17,18
 221 330 221 330 258 372 c 0,19,20
 298 420 298 420 343 420 c 0,21,22
 396 420 396 420 396 368 c 0,23,24
 396 338 396 338 369 208 c 0,25,26
 345 89 345 89 345 76 c 0,27,28
 345 41 345 41 367 20.5 c 128,-1,29
 389 0 389 0 429 0 c 2,30,-1
 520 0 l 1,0,-1
419 588 m 1,31,-1
 574 746 l 1,32,-1
 502 803 l 1,33,-1
 365 688 l 1,34,-1
 269 803 l 1,35,-1
 195 746 l 1,36,-1
 296 588 l 1,37,-1
 419 588 l 1,31,-1
EndSplineSet
EndChar

StartChar: napostrophe
Encoding: 329 329 264
Width: 874
Flags: W
LayerCount: 2
Fore
SplineSet
165 450 m 1,0,1
 220 490 220 490 259 545 c 0,2,3
 312 623 312 623 312 689 c 0,4,5
 312 711 312 711 295.5 730.5 c 128,-1,6
 279 750 279 750 237 750 c 256,7,8
 195 750 195 750 171 730 c 128,-1,9
 147 710 147 710 141 679 c 2,10,-1
 139 669 l 2,11,12
 134 644 134 644 134 635 c 0,13,14
 134 618 134 618 146 602.5 c 128,-1,15
 158 587 158 587 185 580 c 1,16,17
 147 509 147 509 66 450 c 1,18,-1
 165 450 l 1,0,1
806 0 m 1,19,-1
 828 112 l 1,20,-1
 775 112 l 1,21,-1
 818 327 l 2,22,23
 827 364 827 364 827 401 c 0,24,25
 827 466 827 466 794.5 501.5 c 128,-1,26
 762 537 762 537 701 537 c 0,27,28
 639 537 639 537 597.5 502 c 128,-1,29
 556 467 556 467 527 403 c 1,30,-1
 521 403 l 1,31,-1
 545 525 l 1,32,-1
 405 525 l 1,33,-1
 300 0 l 1,34,-1
 440 0 l 1,35,-1
 494 270 l 2,36,37
 507 330 507 330 544 372 c 0,38,39
 584 420 584 420 629 420 c 0,40,41
 682 420 682 420 682 368 c 0,42,43
 682 338 682 338 655 208 c 0,44,45
 631 89 631 89 631 76 c 0,46,47
 631 41 631 41 653 20.5 c 128,-1,48
 675 0 675 0 715 0 c 2,49,-1
 806 0 l 1,19,-1
EndSplineSet
EndChar

StartChar: Eng
Encoding: 330 330 265
Width: 700
Flags: W
LayerCount: 2
Fore
SplineSet
394 -200 m 2,0,1
 532 -200 532 -200 561 -55 c 2,2,-1
 712 698 l 1,3,-1
 575 698 l 1,4,-1
 480 223 l 1,5,-1
 474 223 l 1,6,-1
 432 362 l 1,7,-1
 319 698 l 1,8,-1
 162 698 l 1,9,-1
 22 0 l 1,10,-1
 159 0 l 1,11,-1
 254 475 l 1,12,-1
 260 475 l 1,13,-1
 302 336 l 1,14,-1
 415 0 l 1,15,-1
 439 0 l 1,16,-1
 421 -89 l 1,17,-1
 340 -89 l 1,18,-1
 318 -200 l 1,19,-1
 394 -200 l 2,0,1
EndSplineSet
EndChar

StartChar: eng
Encoding: 331 331 266
Width: 586
Flags: W
LayerCount: 2
Fore
SplineSet
292 -200 m 2,0,1
 364 -200 364 -200 402 -165 c 128,-1,2
 440 -130 440 -130 454 -61 c 2,3,-1
 532 327 l 2,4,5
 541 365 541 365 541 399 c 0,6,7
 541 537 541 537 414 537 c 0,8,9
 305 537 305 537 241 403 c 1,10,-1
 235 403 l 1,11,-1
 259 525 l 1,12,-1
 119 525 l 1,13,-1
 14 0 l 1,14,-1
 154 0 l 1,15,-1
 211 283 l 2,16,17
 225 337 225 337 256 370 c 0,18,19
 272 391 272 391 295 405.5 c 128,-1,20
 318 420 318 420 344 420 c 0,21,22
 396 420 396 420 396 363 c 0,23,24
 396 347 396 347 392.5 330.5 c 128,-1,25
 389 314 389 314 310 -89 c 1,26,-1
 234 -89 l 1,27,-1
 212 -200 l 1,28,-1
 292 -200 l 2,0,1
EndSplineSet
EndChar

